<svg width="235" height="398" viewBox="0 0 235 398" fill="none" xmlns="http://www.w3.org/2000/svg">
<rect x="2" y="2" width="229" height="38" rx="3" stroke="#0C7264" stroke-width="4" stroke-linecap="round"/>
<path d="M13.9457 27H12.0821L16.2696 15.3636H18.298L22.4855 27H20.6219L17.3321 17.4773H17.2412L13.9457 27ZM14.2582 22.4432H20.3037V23.9205H14.2582V22.4432ZM29.382 23.3807V18.2727H31.0865V27H29.416V25.4886H29.3251C29.1244 25.9545 28.8024 26.3428 28.3592 26.6534C27.9198 26.9602 27.3725 27.1136 26.7172 27.1136C26.1566 27.1136 25.6604 26.9905 25.2285 26.7443C24.8005 26.4943 24.4634 26.125 24.2172 25.6364C23.9748 25.1477 23.8535 24.5436 23.8535 23.8239V18.2727H25.5524V23.6193C25.5524 24.214 25.7172 24.6875 26.0467 25.0398C26.3763 25.392 26.8043 25.5682 27.3308 25.5682C27.649 25.5682 27.9653 25.4886 28.2797 25.3295C28.5979 25.1705 28.8611 24.9299 29.0695 24.608C29.2816 24.286 29.3857 23.8769 29.382 23.3807ZM37.267 18.2727V19.6364H32.5V18.2727H37.267ZM33.7784 16.1818H35.4773V24.4375C35.4773 24.767 35.5265 25.0152 35.625 25.1818C35.7235 25.3447 35.8504 25.4564 36.0057 25.517C36.1648 25.5739 36.3371 25.6023 36.5227 25.6023C36.6591 25.6023 36.7784 25.5928 36.8807 25.5739C36.9829 25.5549 37.0625 25.5398 37.1193 25.5284L37.4261 26.9318C37.3276 26.9697 37.1875 27.0076 37.0057 27.0455C36.8239 27.0871 36.5966 27.1098 36.3239 27.1136C35.8769 27.1212 35.4602 27.0417 35.0738 26.875C34.6875 26.7083 34.375 26.4508 34.1363 26.1023C33.8977 25.7538 33.7784 25.3163 33.7784 24.7898V16.1818ZM42.5527 27.1761C41.7345 27.1761 41.0205 26.9886 40.4106 26.6136C39.8008 26.2386 39.3273 25.714 38.9902 25.0398C38.6531 24.3655 38.4845 23.5777 38.4845 22.6761C38.4845 21.7708 38.6531 20.9792 38.9902 20.3011C39.3273 19.6231 39.8008 19.0966 40.4106 18.7216C41.0205 18.3466 41.7345 18.1591 42.5527 18.1591C43.3709 18.1591 44.0849 18.3466 44.6947 18.7216C45.3046 19.0966 45.7781 19.6231 46.1152 20.3011C46.4523 20.9792 46.6209 21.7708 46.6209 22.6761C46.6209 23.5777 46.4523 24.3655 46.1152 25.0398C45.7781 25.714 45.3046 26.2386 44.6947 26.6136C44.0849 26.9886 43.3709 27.1761 42.5527 27.1761ZM42.5584 25.75C43.0887 25.75 43.5281 25.6098 43.8765 25.3295C44.225 25.0492 44.4826 24.6761 44.6493 24.2102C44.8197 23.7443 44.905 23.2311 44.905 22.6705C44.905 22.1136 44.8197 21.6023 44.6493 21.1364C44.4826 20.6667 44.225 20.2898 43.8765 20.0057C43.5281 19.7216 43.0887 19.5795 42.5584 19.5795C42.0243 19.5795 41.5811 19.7216 41.2288 20.0057C40.8803 20.2898 40.6209 20.6667 40.4504 21.1364C40.2837 21.6023 40.2004 22.1136 40.2004 22.6705C40.2004 23.2311 40.2837 23.7443 40.4504 24.2102C40.6209 24.6761 40.8803 25.0492 41.2288 25.3295C41.5811 25.6098 42.0243 25.75 42.5584 25.75ZM48.3412 27V18.2727H49.9719V19.6932H50.0798C50.2616 19.2121 50.559 18.8371 50.9719 18.5682C51.3847 18.2955 51.879 18.1591 52.4548 18.1591C53.0381 18.1591 53.5268 18.2955 53.9207 18.5682C54.3184 18.8409 54.612 19.2159 54.8014 19.6932H54.8923C55.1006 19.2273 55.4321 18.8561 55.8866 18.5795C56.3412 18.2992 56.8828 18.1591 57.5116 18.1591C58.3033 18.1591 58.9491 18.4072 59.4491 18.9034C59.9529 19.3996 60.2048 20.1477 60.2048 21.1477V27H58.5059V21.3068C58.5059 20.7159 58.345 20.2879 58.023 20.0227C57.701 19.7576 57.3165 19.625 56.8696 19.625C56.3165 19.625 55.8866 19.7955 55.5798 20.1364C55.273 20.4735 55.1196 20.9072 55.1196 21.4375V27H53.4264V21.1989C53.4264 20.7254 53.2787 20.3447 52.9832 20.0568C52.6878 19.7689 52.3033 19.625 51.8298 19.625C51.5078 19.625 51.2105 19.7102 50.9378 19.8807C50.6688 20.0473 50.451 20.2803 50.2844 20.5795C50.1215 20.8788 50.04 21.2254 50.04 21.6193V27H48.3412ZM64.8456 27.1932C64.2925 27.1932 63.7925 27.0909 63.3456 26.8864C62.8986 26.678 62.5444 26.3769 62.2831 25.983C62.0255 25.589 61.8967 25.1061 61.8967 24.5341C61.8967 24.0417 61.9914 23.6364 62.1808 23.3182C62.3702 23 62.6259 22.7481 62.9478 22.5625C63.2698 22.3769 63.6297 22.2367 64.0274 22.142C64.4251 22.0473 64.8304 21.9754 65.2433 21.9261C65.766 21.8655 66.1903 21.8163 66.516 21.7784C66.8418 21.7367 67.0785 21.6705 67.2262 21.5795C67.374 21.4886 67.4478 21.3409 67.4478 21.1364V21.0966C67.4478 20.6004 67.3077 20.2159 67.0274 19.9432C66.7509 19.6705 66.338 19.5341 65.7887 19.5341C65.2168 19.5341 64.766 19.661 64.4365 19.9148C64.1107 20.1648 63.8853 20.4432 63.7603 20.75L62.1637 20.3864C62.3531 19.8561 62.6297 19.428 62.9933 19.1023C63.3607 18.7727 63.7831 18.5341 64.2603 18.3864C64.7376 18.2348 65.2395 18.1591 65.766 18.1591C66.1145 18.1591 66.4838 18.2008 66.874 18.2841C67.2679 18.3636 67.6353 18.5114 67.9762 18.7273C68.3209 18.9432 68.6031 19.2519 68.8228 19.6534C69.0425 20.0511 69.1524 20.5682 69.1524 21.2045V27H67.4933V25.8068H67.4251C67.3153 26.0265 67.1505 26.2424 66.9308 26.4545C66.7111 26.6667 66.4289 26.8428 66.0842 26.983C65.7395 27.1231 65.3266 27.1932 64.8456 27.1932ZM65.2149 25.8295C65.6846 25.8295 66.0861 25.7367 66.4194 25.5511C66.7565 25.3655 67.0122 25.1231 67.1865 24.8239C67.3645 24.5208 67.4535 24.197 67.4535 23.8523V22.7273C67.3929 22.7879 67.2755 22.8447 67.1012 22.8977C66.9308 22.947 66.7357 22.9905 66.516 23.0284C66.2963 23.0625 66.0823 23.0947 65.874 23.125C65.6656 23.1515 65.4914 23.1742 65.3512 23.1932C65.0217 23.2348 64.7206 23.3049 64.4478 23.4034C64.1789 23.5019 63.963 23.6439 63.8001 23.8295C63.641 24.0114 63.5615 24.2538 63.5615 24.5568C63.5615 24.9773 63.7168 25.2955 64.0274 25.5114C64.338 25.7235 64.7338 25.8295 65.2149 25.8295ZM75.313 18.2727V19.6364H70.546V18.2727H75.313ZM71.8244 16.1818H73.5233V24.4375C73.5233 24.767 73.5725 25.0152 73.671 25.1818C73.7695 25.3447 73.8964 25.4564 74.0517 25.517C74.2108 25.5739 74.3831 25.6023 74.5687 25.6023C74.7051 25.6023 74.8244 25.5928 74.9267 25.5739C75.0289 25.5549 75.1085 25.5398 75.1653 25.5284L75.4721 26.9318C75.3736 26.9697 75.2335 27.0076 75.0517 27.0455C74.8698 27.0871 74.6426 27.1098 74.3698 27.1136C73.9229 27.1212 73.5062 27.0417 73.1198 26.875C72.7335 26.7083 72.421 26.4508 72.1823 26.1023C71.9437 25.7538 71.8244 25.3163 71.8244 24.7898V16.1818ZM80.6839 27.1761C79.8241 27.1761 79.0835 26.9924 78.4623 26.625C77.8449 26.2538 77.3676 25.733 77.0305 25.0625C76.6972 24.3883 76.5305 23.5985 76.5305 22.6932C76.5305 21.7992 76.6972 21.0114 77.0305 20.3295C77.3676 19.6477 77.8373 19.1155 78.4396 18.733C79.0456 18.3504 79.754 18.1591 80.5646 18.1591C81.057 18.1591 81.5343 18.2405 81.9964 18.4034C82.4585 18.5663 82.8733 18.822 83.2407 19.1705C83.6081 19.5189 83.8979 19.9716 84.11 20.5284C84.3222 21.0814 84.4282 21.7538 84.4282 22.5455V23.1477H77.4907V21.875H82.7634C82.7634 21.428 82.6725 21.0322 82.4907 20.6875C82.3089 20.339 82.0532 20.0644 81.7237 19.8636C81.3979 19.6629 81.0153 19.5625 80.5759 19.5625C80.0987 19.5625 79.682 19.6799 79.3259 19.9148C78.9737 20.1458 78.7009 20.4489 78.5078 20.8239C78.3184 21.1951 78.2237 21.5985 78.2237 22.0341V23.0284C78.2237 23.6117 78.3259 24.108 78.5305 24.517C78.7388 24.9261 79.0286 25.2386 79.3998 25.4545C79.771 25.6667 80.2047 25.7727 80.7009 25.7727C81.0229 25.7727 81.3165 25.7273 81.5816 25.6364C81.8468 25.5417 82.0759 25.4015 82.2691 25.2159C82.4623 25.0303 82.61 24.8011 82.7123 24.5284L84.3203 24.8182C84.1915 25.2917 83.9604 25.7064 83.6271 26.0625C83.2975 26.4148 82.8828 26.6894 82.3828 26.8864C81.8866 27.0795 81.3203 27.1761 80.6839 27.1761ZM89.4042 27.1705C88.6997 27.1705 88.0709 26.9905 87.5179 26.6307C86.9686 26.267 86.5368 25.75 86.2224 25.0795C85.9118 24.4053 85.7565 23.5966 85.7565 22.6534C85.7565 21.7102 85.9137 20.9034 86.2281 20.233C86.5463 19.5625 86.9819 19.0492 87.5349 18.6932C88.0879 18.3371 88.7148 18.1591 89.4156 18.1591C89.9572 18.1591 90.3929 18.25 90.7224 18.4318C91.0557 18.6098 91.3133 18.8182 91.4951 19.0568C91.6807 19.2955 91.8247 19.5057 91.9269 19.6875H92.0292V15.3636H93.7281V27H92.069V25.642H91.9269C91.8247 25.8277 91.6769 26.0398 91.4838 26.2784C91.2944 26.517 91.033 26.7254 90.6997 26.9034C90.3663 27.0814 89.9345 27.1705 89.4042 27.1705ZM89.7792 25.7216C90.2679 25.7216 90.6807 25.5928 91.0179 25.3352C91.3588 25.0739 91.6163 24.7121 91.7906 24.25C91.9686 23.7879 92.0576 23.25 92.0576 22.6364C92.0576 22.0303 91.9705 21.5 91.7963 21.0455C91.622 20.5909 91.3663 20.2367 91.0292 19.983C90.6921 19.7292 90.2754 19.6023 89.7792 19.6023C89.2679 19.6023 88.8417 19.7348 88.5008 20C88.1599 20.2652 87.9023 20.6269 87.7281 21.0852C87.5576 21.5436 87.4724 22.0606 87.4724 22.6364C87.4724 23.2197 87.5595 23.7443 87.7338 24.2102C87.908 24.6761 88.1656 25.0455 88.5065 25.3182C88.8512 25.5871 89.2754 25.7216 89.7792 25.7216ZM106.518 18.4205C106.458 17.8826 106.208 17.4659 105.768 17.1705C105.329 16.8712 104.776 16.7216 104.109 16.7216C103.632 16.7216 103.219 16.7973 102.87 16.9489C102.522 17.0966 102.251 17.3011 102.058 17.5625C101.868 17.8201 101.774 18.1136 101.774 18.4432C101.774 18.7197 101.838 18.9583 101.967 19.1591C102.1 19.3598 102.272 19.5284 102.484 19.6648C102.7 19.7973 102.931 19.9091 103.177 20C103.423 20.0871 103.66 20.1591 103.887 20.2159L105.024 20.5114C105.395 20.6023 105.776 20.7254 106.166 20.8807C106.556 21.036 106.918 21.2405 107.251 21.4943C107.584 21.7481 107.853 22.0625 108.058 22.4375C108.266 22.8125 108.37 23.2614 108.37 23.7841C108.37 24.4432 108.2 25.0284 107.859 25.5398C107.522 26.0511 107.031 26.4545 106.387 26.75C105.747 27.0455 104.973 27.1932 104.064 27.1932C103.192 27.1932 102.439 27.0549 101.802 26.7784C101.166 26.5019 100.668 26.1098 100.308 25.6023C99.948 25.0909 99.7492 24.4848 99.7113 23.7841H101.473C101.507 24.2045 101.643 24.5549 101.882 24.8352C102.124 25.1117 102.433 25.3182 102.808 25.4545C103.187 25.5871 103.601 25.6534 104.052 25.6534C104.548 25.6534 104.99 25.5758 105.376 25.4205C105.766 25.2614 106.073 25.0417 106.297 24.7614C106.52 24.4773 106.632 24.1458 106.632 23.767C106.632 23.4223 106.533 23.1402 106.336 22.9205C106.143 22.7008 105.88 22.5189 105.547 22.375C105.217 22.2311 104.844 22.1042 104.427 21.9943L103.052 21.6193C102.12 21.3655 101.382 20.9924 100.836 20.5C100.295 20.0076 100.024 19.3561 100.024 18.5455C100.024 17.875 100.206 17.2898 100.569 16.7898C100.933 16.2898 101.425 15.9015 102.047 15.625C102.668 15.3447 103.368 15.2045 104.149 15.2045C104.937 15.2045 105.632 15.3428 106.234 15.6193C106.84 15.8958 107.317 16.2765 107.666 16.7614C108.014 17.2424 108.196 17.7955 108.211 18.4205H106.518ZM113.917 27.1761C113.058 27.1761 112.317 26.9924 111.696 26.625C111.078 26.2538 110.601 25.733 110.264 25.0625C109.931 24.3883 109.764 23.5985 109.764 22.6932C109.764 21.7992 109.931 21.0114 110.264 20.3295C110.601 19.6477 111.071 19.1155 111.673 18.733C112.279 18.3504 112.987 18.1591 113.798 18.1591C114.291 18.1591 114.768 18.2405 115.23 18.4034C115.692 18.5663 116.107 18.822 116.474 19.1705C116.842 19.5189 117.131 19.9716 117.344 20.5284C117.556 21.0814 117.662 21.7538 117.662 22.5455V23.1477H110.724V21.875H115.997C115.997 21.428 115.906 21.0322 115.724 20.6875C115.542 20.339 115.287 20.0644 114.957 19.8636C114.631 19.6629 114.249 19.5625 113.809 19.5625C113.332 19.5625 112.916 19.6799 112.559 19.9148C112.207 20.1458 111.934 20.4489 111.741 20.8239C111.552 21.1951 111.457 21.5985 111.457 22.0341V23.0284C111.457 23.6117 111.559 24.108 111.764 24.517C111.972 24.9261 112.262 25.2386 112.633 25.4545C113.005 25.6667 113.438 25.7727 113.934 25.7727C114.256 25.7727 114.55 25.7273 114.815 25.6364C115.08 25.5417 115.309 25.4015 115.503 25.2159C115.696 25.0303 115.844 24.8011 115.946 24.5284L117.554 24.8182C117.425 25.2917 117.194 25.7064 116.861 26.0625C116.531 26.4148 116.116 26.6894 115.616 26.8864C115.12 27.0795 114.554 27.1761 113.917 27.1761ZM123.047 27.1761C122.202 27.1761 121.475 26.9848 120.865 26.6023C120.259 26.2159 119.793 25.6837 119.467 25.0057C119.142 24.3277 118.979 23.5511 118.979 22.6761C118.979 21.7898 119.145 21.0076 119.479 20.3295C119.812 19.6477 120.282 19.1155 120.888 18.733C121.494 18.3504 122.208 18.1591 123.03 18.1591C123.693 18.1591 124.284 18.2822 124.802 18.5284C125.321 18.7708 125.74 19.1117 126.058 19.5511C126.38 19.9905 126.571 20.5038 126.632 21.0909H124.979C124.888 20.6818 124.679 20.3295 124.354 20.0341C124.032 19.7386 123.6 19.5909 123.058 19.5909C122.585 19.5909 122.17 19.7159 121.814 19.9659C121.462 20.2121 121.187 20.5644 120.99 21.0227C120.793 21.4773 120.695 22.0152 120.695 22.6364C120.695 23.2727 120.791 23.822 120.984 24.2841C121.177 24.7462 121.45 25.1042 121.802 25.358C122.159 25.6117 122.577 25.7386 123.058 25.7386C123.38 25.7386 123.672 25.6799 123.933 25.5625C124.198 25.4413 124.42 25.2689 124.598 25.0455C124.78 24.822 124.907 24.553 124.979 24.2386H126.632C126.571 24.803 126.388 25.3068 126.081 25.75C125.774 26.1932 125.363 26.5417 124.848 26.7955C124.337 27.0492 123.736 27.1761 123.047 27.1761ZM133.801 23.3807V18.2727H135.506V27H133.835V25.4886H133.744C133.544 25.9545 133.222 26.3428 132.778 26.6534C132.339 26.9602 131.792 27.1136 131.136 27.1136C130.576 27.1136 130.08 26.9905 129.648 26.7443C129.22 26.4943 128.883 26.125 128.636 25.6364C128.394 25.1477 128.273 24.5436 128.273 23.8239V18.2727H129.972V23.6193C129.972 24.214 130.136 24.6875 130.466 25.0398C130.796 25.392 131.224 25.5682 131.75 25.5682C132.068 25.5682 132.385 25.4886 132.699 25.3295C133.017 25.1705 133.28 24.9299 133.489 24.608C133.701 24.286 133.805 23.8769 133.801 23.3807ZM137.612 27V18.2727H139.254V19.6591H139.345C139.504 19.1894 139.785 18.8201 140.186 18.5511C140.592 18.2784 141.05 18.142 141.561 18.142C141.667 18.142 141.792 18.1458 141.936 18.1534C142.084 18.161 142.2 18.1705 142.283 18.1818V19.8068C142.215 19.7879 142.093 19.767 141.919 19.7443C141.745 19.7178 141.571 19.7045 141.397 19.7045C140.995 19.7045 140.637 19.7898 140.323 19.9602C140.012 20.1269 139.766 20.3598 139.584 20.6591C139.402 20.9545 139.311 21.2917 139.311 21.6705V27H137.612ZM143.577 27V18.2727H145.276V27H143.577ZM144.435 16.9261C144.14 16.9261 143.886 16.8277 143.674 16.6307C143.465 16.4299 143.361 16.1913 143.361 15.9148C143.361 15.6345 143.465 15.3958 143.674 15.1989C143.886 14.9981 144.14 14.8977 144.435 14.8977C144.73 14.8977 144.982 14.9981 145.191 15.1989C145.403 15.3958 145.509 15.6345 145.509 15.9148C145.509 16.1913 145.403 16.4299 145.191 16.6307C144.982 16.8277 144.73 16.9261 144.435 16.9261ZM151.459 18.2727V19.6364H146.692V18.2727H151.459ZM147.971 16.1818H149.67V24.4375C149.67 24.767 149.719 25.0152 149.817 25.1818C149.916 25.3447 150.043 25.4564 150.198 25.517C150.357 25.5739 150.529 25.6023 150.715 25.6023C150.851 25.6023 150.971 25.5928 151.073 25.5739C151.175 25.5549 151.255 25.5398 151.312 25.5284L151.618 26.9318C151.52 26.9697 151.38 27.0076 151.198 27.0455C151.016 27.0871 150.789 27.1098 150.516 27.1136C150.069 27.1212 149.652 27.0417 149.266 26.875C148.88 26.7083 148.567 26.4508 148.329 26.1023C148.09 25.7538 147.971 25.3163 147.971 24.7898V16.1818ZM154.236 30.2727C153.983 30.2727 153.752 30.2519 153.543 30.2102C153.335 30.1723 153.18 30.1307 153.077 30.0852L153.486 28.6932C153.797 28.7765 154.074 28.8125 154.316 28.8011C154.558 28.7898 154.772 28.6989 154.958 28.5284C155.147 28.358 155.314 28.0795 155.458 27.6932L155.668 27.1136L152.475 18.2727H154.293L156.503 25.0455H156.594L158.805 18.2727H160.628L157.032 28.1648C156.865 28.6193 156.653 29.0038 156.395 29.3182C156.138 29.6364 155.831 29.875 155.475 30.0341C155.119 30.1932 154.706 30.2727 154.236 30.2727ZM166.244 27V15.3636H170.392C171.297 15.3636 172.047 15.5284 172.642 15.858C173.236 16.1875 173.681 16.6383 173.977 17.2102C174.272 17.7784 174.42 18.4186 174.42 19.1307C174.42 19.8466 174.27 20.4905 173.971 21.0625C173.676 21.6307 173.229 22.0814 172.63 22.4148C172.035 22.7443 171.287 22.9091 170.386 22.9091H167.534V21.4205H170.227C170.799 21.4205 171.263 21.322 171.619 21.125C171.975 20.9242 172.236 20.6515 172.403 20.3068C172.57 19.9621 172.653 19.5701 172.653 19.1307C172.653 18.6913 172.57 18.3011 172.403 17.9602C172.236 17.6193 171.973 17.3523 171.613 17.1591C171.257 16.9659 170.787 16.8693 170.204 16.8693H167.999V27H166.244ZM178.627 27.1932C178.074 27.1932 177.574 27.0909 177.127 26.8864C176.68 26.678 176.326 26.3769 176.065 25.983C175.807 25.589 175.679 25.1061 175.679 24.5341C175.679 24.0417 175.773 23.6364 175.963 23.3182C176.152 23 176.408 22.7481 176.73 22.5625C177.052 22.3769 177.412 22.2367 177.809 22.142C178.207 22.0473 178.612 21.9754 179.025 21.9261C179.548 21.8655 179.972 21.8163 180.298 21.7784C180.624 21.7367 180.86 21.6705 181.008 21.5795C181.156 21.4886 181.23 21.3409 181.23 21.1364V21.0966C181.23 20.6004 181.09 20.2159 180.809 19.9432C180.533 19.6705 180.12 19.5341 179.571 19.5341C178.999 19.5341 178.548 19.661 178.218 19.9148C177.893 20.1648 177.667 20.4432 177.542 20.75L175.946 20.3864C176.135 19.8561 176.412 19.428 176.775 19.1023C177.143 18.7727 177.565 18.5341 178.042 18.3864C178.519 18.2348 179.021 18.1591 179.548 18.1591C179.896 18.1591 180.266 18.2008 180.656 18.2841C181.05 18.3636 181.417 18.5114 181.758 18.7273C182.103 18.9432 182.385 19.2519 182.605 19.6534C182.824 20.0511 182.934 20.5682 182.934 21.2045V27H181.275V25.8068H181.207C181.097 26.0265 180.932 26.2424 180.713 26.4545C180.493 26.6667 180.211 26.8428 179.866 26.983C179.521 27.1231 179.108 27.1932 178.627 27.1932ZM178.997 25.8295C179.466 25.8295 179.868 25.7367 180.201 25.5511C180.538 25.3655 180.794 25.1231 180.968 24.8239C181.146 24.5208 181.235 24.197 181.235 23.8523V22.7273C181.175 22.7879 181.057 22.8447 180.883 22.8977C180.713 22.947 180.518 22.9905 180.298 23.0284C180.078 23.0625 179.864 23.0947 179.656 23.125C179.448 23.1515 179.273 23.1742 179.133 23.1932C178.804 23.2348 178.502 23.3049 178.23 23.4034C177.961 23.5019 177.745 23.6439 177.582 23.8295C177.423 24.0114 177.343 24.2538 177.343 24.5568C177.343 24.9773 177.499 25.2955 177.809 25.5114C178.12 25.7235 178.516 25.8295 178.997 25.8295ZM185.021 27V18.2727H186.663V19.6591H186.754C186.913 19.1894 187.193 18.8201 187.595 18.5511C188 18.2784 188.459 18.142 188.97 18.142C189.076 18.142 189.201 18.1458 189.345 18.1534C189.493 18.161 189.608 18.1705 189.691 18.1818V19.8068C189.623 19.7879 189.502 19.767 189.328 19.7443C189.154 19.7178 188.979 19.7045 188.805 19.7045C188.404 19.7045 188.046 19.7898 187.731 19.9602C187.421 20.1269 187.174 20.3598 186.993 20.6591C186.811 20.9545 186.72 21.2917 186.72 21.6705V27H185.021ZM197.525 20.4034L195.986 20.6761C195.921 20.4792 195.819 20.2917 195.679 20.1136C195.542 19.9356 195.357 19.7898 195.122 19.6761C194.887 19.5625 194.594 19.5057 194.241 19.5057C193.76 19.5057 193.359 19.6136 193.037 19.8295C192.715 20.0417 192.554 20.3163 192.554 20.6534C192.554 20.9451 192.662 21.1799 192.878 21.358C193.094 21.536 193.442 21.6818 193.923 21.7955L195.31 22.1136C196.113 22.2992 196.711 22.5852 197.105 22.9716C197.499 23.358 197.696 23.8598 197.696 24.4773C197.696 25 197.544 25.4659 197.241 25.875C196.942 26.2803 196.524 26.5985 195.986 26.8295C195.452 27.0606 194.832 27.1761 194.128 27.1761C193.15 27.1761 192.353 26.9678 191.736 26.5511C191.118 26.1307 190.739 25.5341 190.599 24.7614L192.241 24.5114C192.344 24.9394 192.554 25.2633 192.872 25.483C193.19 25.6989 193.605 25.8068 194.116 25.8068C194.673 25.8068 195.118 25.6913 195.452 25.4602C195.785 25.2254 195.952 24.9394 195.952 24.6023C195.952 24.3295 195.849 24.1004 195.645 23.9148C195.444 23.7292 195.135 23.589 194.719 23.4943L193.241 23.1705C192.427 22.9848 191.825 22.6894 191.435 22.2841C191.048 21.8788 190.855 21.3655 190.855 20.7443C190.855 20.2292 190.999 19.7784 191.287 19.392C191.575 19.0057 191.972 18.7045 192.48 18.4886C192.988 18.2689 193.569 18.1591 194.224 18.1591C195.167 18.1591 195.91 18.3636 196.452 18.7727C196.993 19.178 197.351 19.7216 197.525 20.4034ZM199.388 27V18.2727H201.087V27H199.388ZM200.246 16.9261C199.95 16.9261 199.697 16.8277 199.484 16.6307C199.276 16.4299 199.172 16.1913 199.172 15.9148C199.172 15.6345 199.276 15.3958 199.484 15.1989C199.697 14.9981 199.95 14.8977 200.246 14.8977C200.541 14.8977 200.793 14.9981 201.001 15.1989C201.214 15.3958 201.32 15.6345 201.32 15.9148C201.32 16.1913 201.214 16.4299 201.001 16.6307C200.793 16.8277 200.541 16.9261 200.246 16.9261ZM204.895 21.8182V27H203.196V18.2727H204.827V19.6932H204.935C205.136 19.2311 205.45 18.8598 205.878 18.5795C206.31 18.2992 206.853 18.1591 207.509 18.1591C208.103 18.1591 208.624 18.2841 209.071 18.5341C209.518 18.7803 209.865 19.1477 210.111 19.6364C210.357 20.125 210.48 20.7292 210.48 21.4489V27H208.781V21.6534C208.781 21.0208 208.617 20.5265 208.287 20.1705C207.958 19.8106 207.505 19.6307 206.929 19.6307C206.535 19.6307 206.185 19.7159 205.878 19.8864C205.575 20.0568 205.334 20.3068 205.156 20.6364C204.982 20.9621 204.895 21.3561 204.895 21.8182ZM216.242 30.4545C215.549 30.4545 214.952 30.3636 214.452 30.1818C213.956 30 213.55 29.7595 213.236 29.4602C212.922 29.161 212.687 28.8333 212.532 28.4773L213.992 27.875C214.094 28.0417 214.23 28.2178 214.401 28.4034C214.575 28.5928 214.81 28.7538 215.105 28.8864C215.405 29.0189 215.789 29.0852 216.259 29.0852C216.903 29.0852 217.435 28.928 217.855 28.6136C218.276 28.303 218.486 27.8068 218.486 27.125V25.4091H218.378C218.276 25.5947 218.128 25.8011 217.935 26.0284C217.746 26.2557 217.484 26.4527 217.151 26.6193C216.818 26.786 216.384 26.8693 215.85 26.8693C215.16 26.8693 214.539 26.7083 213.986 26.3864C213.437 26.0606 213.001 25.5814 212.679 24.9489C212.361 24.3125 212.202 23.5303 212.202 22.6023C212.202 21.6742 212.359 20.8788 212.674 20.2159C212.992 19.553 213.427 19.0455 213.98 18.6932C214.533 18.3371 215.16 18.1591 215.861 18.1591C216.403 18.1591 216.84 18.25 217.174 18.4318C217.507 18.6098 217.766 18.8182 217.952 19.0568C218.141 19.2955 218.287 19.5057 218.389 19.6875H218.514V18.2727H220.179V27.1932C220.179 27.9432 220.005 28.5587 219.657 29.0398C219.308 29.5208 218.836 29.8769 218.242 30.108C217.651 30.339 216.984 30.4545 216.242 30.4545ZM216.225 25.4602C216.713 25.4602 217.126 25.3466 217.463 25.1193C217.804 24.8883 218.062 24.5587 218.236 24.1307C218.414 23.6989 218.503 23.1818 218.503 22.5795C218.503 21.9924 218.416 21.4754 218.242 21.0284C218.068 20.5814 217.812 20.233 217.475 19.983C217.138 19.7292 216.721 19.6023 216.225 19.6023C215.713 19.6023 215.287 19.7348 214.946 20C214.605 20.2614 214.348 20.6174 214.174 21.0682C214.003 21.5189 213.918 22.0227 213.918 22.5795C213.918 23.1515 214.005 23.6534 214.179 24.0852C214.354 24.517 214.611 24.8542 214.952 25.0966C215.297 25.339 215.721 25.4602 216.225 25.4602Z" fill="black" fill-opacity="0.8"/>
<rect x="3" y="86" width="230" height="67" rx="6" stroke="#0C7264" stroke-width="4" stroke-linecap="round"/>
<path d="M54.3725 114H52.5088L56.6963 102.364H58.7248L62.9123 114H61.0486L57.7588 104.477H57.6679L54.3725 114ZM54.685 109.443H60.7304V110.92H54.685V109.443ZM66.1723 102.364V114H64.4167V102.364H66.1723ZM73.5588 107.443V108.92H68.3997V107.443H73.5588ZM75.7834 114V102.364H79.9311C80.8364 102.364 81.5864 102.528 82.1811 102.858C82.7758 103.187 83.2209 103.638 83.5164 104.21C83.8118 104.778 83.9595 105.419 83.9595 106.131C83.9595 106.847 83.8099 107.491 83.5107 108.062C83.2152 108.631 82.7683 109.081 82.1698 109.415C81.5751 109.744 80.827 109.909 79.9255 109.909H77.0732V108.42H79.7664C80.3383 108.42 80.8023 108.322 81.1584 108.125C81.5145 107.924 81.7758 107.652 81.9425 107.307C82.1092 106.962 82.1925 106.57 82.1925 106.131C82.1925 105.691 82.1092 105.301 81.9425 104.96C81.7758 104.619 81.5126 104.352 81.1527 104.159C80.7967 103.966 80.327 103.869 79.7436 103.869H77.5391V114H75.7834ZM89.2722 114.176C88.454 114.176 87.74 113.989 87.1301 113.614C86.5203 113.239 86.0468 112.714 85.7097 112.04C85.3726 111.366 85.204 110.578 85.204 109.676C85.204 108.771 85.3726 107.979 85.7097 107.301C86.0468 106.623 86.5203 106.097 87.1301 105.722C87.74 105.347 88.454 105.159 89.2722 105.159C90.0904 105.159 90.8044 105.347 91.4142 105.722C92.0241 106.097 92.4976 106.623 92.8347 107.301C93.1718 107.979 93.3404 108.771 93.3404 109.676C93.3404 110.578 93.1718 111.366 92.8347 112.04C92.4976 112.714 92.0241 113.239 91.4142 113.614C90.8044 113.989 90.0904 114.176 89.2722 114.176ZM89.2779 112.75C89.8082 112.75 90.2476 112.61 90.596 112.33C90.9445 112.049 91.2021 111.676 91.3688 111.21C91.5392 110.744 91.6244 110.231 91.6244 109.67C91.6244 109.114 91.5392 108.602 91.3688 108.136C91.2021 107.667 90.9445 107.29 90.596 107.006C90.2476 106.722 89.8082 106.58 89.2779 106.58C88.7438 106.58 88.3006 106.722 87.9483 107.006C87.5998 107.29 87.3404 107.667 87.1699 108.136C87.0032 108.602 86.9199 109.114 86.9199 109.67C86.9199 110.231 87.0032 110.744 87.1699 111.21C87.3404 111.676 87.5998 112.049 87.9483 112.33C88.3006 112.61 88.7438 112.75 89.2779 112.75ZM96.6871 114L94.1189 105.273H95.8746L97.5848 111.682H97.67L99.386 105.273H101.142L102.846 111.653H102.931L104.63 105.273H106.386L103.823 114H102.09L100.318 107.699H100.187L98.4144 114H96.6871ZM111.318 114.176C110.458 114.176 109.718 113.992 109.096 113.625C108.479 113.254 108.002 112.733 107.664 112.062C107.331 111.388 107.164 110.598 107.164 109.693C107.164 108.799 107.331 108.011 107.664 107.33C108.002 106.648 108.471 106.116 109.074 105.733C109.68 105.35 110.388 105.159 111.199 105.159C111.691 105.159 112.168 105.241 112.63 105.403C113.093 105.566 113.507 105.822 113.875 106.17C114.242 106.519 114.532 106.972 114.744 107.528C114.956 108.081 115.062 108.754 115.062 109.545V110.148H108.125V108.875H113.397C113.397 108.428 113.307 108.032 113.125 107.688C112.943 107.339 112.687 107.064 112.358 106.864C112.032 106.663 111.649 106.562 111.21 106.562C110.733 106.562 110.316 106.68 109.96 106.915C109.608 107.146 109.335 107.449 109.142 107.824C108.952 108.195 108.858 108.598 108.858 109.034V110.028C108.858 110.612 108.96 111.108 109.164 111.517C109.373 111.926 109.663 112.239 110.034 112.455C110.405 112.667 110.839 112.773 111.335 112.773C111.657 112.773 111.95 112.727 112.216 112.636C112.481 112.542 112.71 112.402 112.903 112.216C113.096 112.03 113.244 111.801 113.346 111.528L114.954 111.818C114.825 112.292 114.594 112.706 114.261 113.062C113.932 113.415 113.517 113.689 113.017 113.886C112.521 114.08 111.954 114.176 111.318 114.176ZM116.771 114V105.273H118.413V106.659H118.504C118.663 106.189 118.944 105.82 119.345 105.551C119.75 105.278 120.209 105.142 120.72 105.142C120.826 105.142 120.951 105.146 121.095 105.153C121.243 105.161 121.358 105.17 121.442 105.182V106.807C121.373 106.788 121.252 106.767 121.078 106.744C120.904 106.718 120.729 106.705 120.555 106.705C120.154 106.705 119.796 106.79 119.481 106.96C119.171 107.127 118.925 107.36 118.743 107.659C118.561 107.955 118.47 108.292 118.47 108.67V114H116.771ZM126.185 114.176C125.325 114.176 124.584 113.992 123.963 113.625C123.346 113.254 122.868 112.733 122.531 112.062C122.198 111.388 122.031 110.598 122.031 109.693C122.031 108.799 122.198 108.011 122.531 107.33C122.868 106.648 123.338 106.116 123.94 105.733C124.546 105.35 125.255 105.159 126.065 105.159C126.558 105.159 127.035 105.241 127.497 105.403C127.959 105.566 128.374 105.822 128.741 106.17C129.109 106.519 129.399 106.972 129.611 107.528C129.823 108.081 129.929 108.754 129.929 109.545V110.148H122.991V108.875H128.264C128.264 108.428 128.173 108.032 127.991 107.688C127.81 107.339 127.554 107.064 127.224 106.864C126.899 106.663 126.516 106.562 126.077 106.562C125.599 106.562 125.183 106.68 124.827 106.915C124.474 107.146 124.202 107.449 124.009 107.824C123.819 108.195 123.724 108.598 123.724 109.034V110.028C123.724 110.612 123.827 111.108 124.031 111.517C124.24 111.926 124.529 112.239 124.901 112.455C125.272 112.667 125.705 112.773 126.202 112.773C126.524 112.773 126.817 112.727 127.082 112.636C127.348 112.542 127.577 112.402 127.77 112.216C127.963 112.03 128.111 111.801 128.213 111.528L129.821 111.818C129.692 112.292 129.461 112.706 129.128 113.062C128.798 113.415 128.384 113.689 127.884 113.886C127.387 114.08 126.821 114.176 126.185 114.176ZM134.905 114.17C134.2 114.17 133.572 113.991 133.019 113.631C132.469 113.267 132.038 112.75 131.723 112.08C131.413 111.405 131.257 110.597 131.257 109.653C131.257 108.71 131.414 107.903 131.729 107.233C132.047 106.562 132.483 106.049 133.036 105.693C133.589 105.337 134.216 105.159 134.916 105.159C135.458 105.159 135.894 105.25 136.223 105.432C136.556 105.61 136.814 105.818 136.996 106.057C137.181 106.295 137.325 106.506 137.428 106.688H137.53V102.364H139.229V114H137.57V112.642H137.428C137.325 112.828 137.178 113.04 136.985 113.278C136.795 113.517 136.534 113.725 136.2 113.903C135.867 114.081 135.435 114.17 134.905 114.17ZM135.28 112.722C135.769 112.722 136.181 112.593 136.519 112.335C136.86 112.074 137.117 111.712 137.291 111.25C137.469 110.788 137.558 110.25 137.558 109.636C137.558 109.03 137.471 108.5 137.297 108.045C137.123 107.591 136.867 107.237 136.53 106.983C136.193 106.729 135.776 106.602 135.28 106.602C134.769 106.602 134.342 106.735 134.002 107C133.661 107.265 133.403 107.627 133.229 108.085C133.058 108.544 132.973 109.061 132.973 109.636C132.973 110.22 133.06 110.744 133.235 111.21C133.409 111.676 133.666 112.045 134.007 112.318C134.352 112.587 134.776 112.722 135.28 112.722ZM147.428 102.364V114H145.672V102.364H147.428ZM156.212 107.403L154.672 107.676C154.608 107.479 154.506 107.292 154.366 107.114C154.229 106.936 154.044 106.79 153.809 106.676C153.574 106.562 153.28 106.506 152.928 106.506C152.447 106.506 152.046 106.614 151.724 106.83C151.402 107.042 151.241 107.316 151.241 107.653C151.241 107.945 151.349 108.18 151.564 108.358C151.78 108.536 152.129 108.682 152.61 108.795L153.996 109.114C154.799 109.299 155.398 109.585 155.792 109.972C156.186 110.358 156.383 110.86 156.383 111.477C156.383 112 156.231 112.466 155.928 112.875C155.629 113.28 155.21 113.598 154.672 113.83C154.138 114.061 153.519 114.176 152.814 114.176C151.837 114.176 151.04 113.968 150.422 113.551C149.805 113.131 149.426 112.534 149.286 111.761L150.928 111.511C151.03 111.939 151.241 112.263 151.559 112.483C151.877 112.699 152.292 112.807 152.803 112.807C153.36 112.807 153.805 112.691 154.138 112.46C154.472 112.225 154.638 111.939 154.638 111.602C154.638 111.33 154.536 111.1 154.332 110.915C154.131 110.729 153.822 110.589 153.405 110.494L151.928 110.17C151.114 109.985 150.511 109.689 150.121 109.284C149.735 108.879 149.542 108.366 149.542 107.744C149.542 107.229 149.686 106.778 149.974 106.392C150.261 106.006 150.659 105.705 151.167 105.489C151.674 105.269 152.256 105.159 152.911 105.159C153.854 105.159 154.597 105.364 155.138 105.773C155.68 106.178 156.038 106.722 156.212 107.403ZM164.614 107.403L163.075 107.676C163.01 107.479 162.908 107.292 162.768 107.114C162.631 106.936 162.446 106.79 162.211 106.676C161.976 106.562 161.682 106.506 161.33 106.506C160.849 106.506 160.448 106.614 160.126 106.83C159.804 107.042 159.643 107.316 159.643 107.653C159.643 107.945 159.751 108.18 159.967 108.358C160.182 108.536 160.531 108.682 161.012 108.795L162.398 109.114C163.201 109.299 163.8 109.585 164.194 109.972C164.588 110.358 164.785 110.86 164.785 111.477C164.785 112 164.633 112.466 164.33 112.875C164.031 113.28 163.612 113.598 163.075 113.83C162.54 114.061 161.921 114.176 161.217 114.176C160.239 114.176 159.442 113.968 158.825 113.551C158.207 113.131 157.828 112.534 157.688 111.761L159.33 111.511C159.432 111.939 159.643 112.263 159.961 112.483C160.279 112.699 160.694 112.807 161.205 112.807C161.762 112.807 162.207 112.691 162.54 112.46C162.874 112.225 163.04 111.939 163.04 111.602C163.04 111.33 162.938 111.1 162.734 110.915C162.533 110.729 162.224 110.589 161.807 110.494L160.33 110.17C159.516 109.985 158.914 109.689 158.523 109.284C158.137 108.879 157.944 108.366 157.944 107.744C157.944 107.229 158.088 106.778 158.376 106.392C158.664 106.006 159.061 105.705 159.569 105.489C160.076 105.269 160.658 105.159 161.313 105.159C162.256 105.159 162.999 105.364 163.54 105.773C164.082 106.178 164.44 106.722 164.614 107.403ZM172.005 110.381V105.273H173.71V114H172.039V112.489H171.948C171.748 112.955 171.426 113.343 170.982 113.653C170.543 113.96 169.996 114.114 169.34 114.114C168.78 114.114 168.283 113.991 167.852 113.744C167.424 113.494 167.087 113.125 166.84 112.636C166.598 112.148 166.477 111.544 166.477 110.824V105.273H168.176V110.619C168.176 111.214 168.34 111.687 168.67 112.04C168.999 112.392 169.427 112.568 169.954 112.568C170.272 112.568 170.588 112.489 170.903 112.33C171.221 112.17 171.484 111.93 171.693 111.608C171.905 111.286 172.009 110.877 172.005 110.381ZM179.578 114.176C178.718 114.176 177.977 113.992 177.356 113.625C176.739 113.254 176.261 112.733 175.924 112.062C175.591 111.388 175.424 110.598 175.424 109.693C175.424 108.799 175.591 108.011 175.924 107.33C176.261 106.648 176.731 106.116 177.333 105.733C177.939 105.35 178.648 105.159 179.458 105.159C179.951 105.159 180.428 105.241 180.89 105.403C181.352 105.566 181.767 105.822 182.134 106.17C182.502 106.519 182.792 106.972 183.004 107.528C183.216 108.081 183.322 108.754 183.322 109.545V110.148H176.384V108.875H181.657C181.657 108.428 181.566 108.032 181.384 107.688C181.203 107.339 180.947 107.064 180.617 106.864C180.292 106.663 179.909 106.562 179.47 106.562C178.992 106.562 178.576 106.68 178.22 106.915C177.867 107.146 177.595 107.449 177.402 107.824C177.212 108.195 177.117 108.598 177.117 109.034V110.028C177.117 110.612 177.22 111.108 177.424 111.517C177.633 111.926 177.922 112.239 178.294 112.455C178.665 112.667 179.098 112.773 179.595 112.773C179.917 112.773 180.21 112.727 180.475 112.636C180.741 112.542 180.97 112.402 181.163 112.216C181.356 112.03 181.504 111.801 181.606 111.528L183.214 111.818C183.085 112.292 182.854 112.706 182.521 113.062C182.191 113.415 181.777 113.689 181.277 113.886C180.78 114.08 180.214 114.176 179.578 114.176ZM85.6251 130.04C85.5152 129.695 85.3675 129.386 85.1819 129.114C85.0001 128.837 84.7823 128.602 84.5285 128.409C84.2747 128.212 83.9849 128.062 83.6592 127.96C83.3372 127.858 82.9831 127.807 82.5967 127.807C81.9414 127.807 81.3505 127.975 80.824 128.312C80.2974 128.65 79.8808 129.144 79.574 129.795C79.2709 130.443 79.1194 131.237 79.1194 132.176C79.1194 133.119 79.2728 133.917 79.5796 134.568C79.8865 135.22 80.3069 135.714 80.841 136.051C81.3751 136.388 81.9831 136.557 82.6649 136.557C83.2974 136.557 83.8486 136.428 84.3183 136.17C84.7918 135.913 85.1573 135.549 85.4149 135.08C85.6762 134.606 85.8069 134.049 85.8069 133.409L86.2615 133.494H82.9319V132.045H87.5058V133.369C87.5058 134.347 87.2974 135.195 86.8808 135.915C86.4679 136.631 85.8959 137.184 85.1649 137.574C84.4376 137.964 83.6043 138.159 82.6649 138.159C81.6118 138.159 80.6876 137.917 79.8921 137.432C79.1005 136.947 78.4831 136.259 78.0399 135.369C77.5967 134.475 77.3751 133.415 77.3751 132.188C77.3751 131.259 77.5039 130.426 77.7615 129.688C78.019 128.949 78.3808 128.322 78.8467 127.807C79.3164 127.288 79.8675 126.892 80.5001 126.619C81.1365 126.343 81.8315 126.205 82.5853 126.205C83.2141 126.205 83.7993 126.297 84.341 126.483C84.8865 126.669 85.3713 126.932 85.7956 127.273C86.2236 127.614 86.5777 128.019 86.8581 128.489C87.1384 128.955 87.3277 129.472 87.4262 130.04H85.6251ZM93.1835 138.176C92.3236 138.176 91.5831 137.992 90.9619 137.625C90.3445 137.254 89.8672 136.733 89.5301 136.062C89.1967 135.388 89.0301 134.598 89.0301 133.693C89.0301 132.799 89.1967 132.011 89.5301 131.33C89.8672 130.648 90.3369 130.116 90.9392 129.733C91.5452 129.35 92.2535 129.159 93.0642 129.159C93.5566 129.159 94.0338 129.241 94.496 129.403C94.9581 129.566 95.3729 129.822 95.7403 130.17C96.1077 130.519 96.3975 130.972 96.6096 131.528C96.8217 132.081 96.9278 132.754 96.9278 133.545V134.148H89.9903V132.875H95.263C95.263 132.428 95.1721 132.032 94.9903 131.688C94.8085 131.339 94.5528 131.064 94.2232 130.864C93.8975 130.663 93.5149 130.562 93.0755 130.562C92.5982 130.562 92.1816 130.68 91.8255 130.915C91.4732 131.146 91.2005 131.449 91.0073 131.824C90.8179 132.195 90.7232 132.598 90.7232 133.034V134.028C90.7232 134.612 90.8255 135.108 91.0301 135.517C91.2384 135.926 91.5282 136.239 91.8994 136.455C92.2706 136.667 92.7043 136.773 93.2005 136.773C93.5225 136.773 93.816 136.727 94.0812 136.636C94.3463 136.542 94.5755 136.402 94.7687 136.216C94.9619 136.03 95.1096 135.801 95.2119 135.528L96.8198 135.818C96.691 136.292 96.46 136.706 96.1267 137.062C95.7971 137.415 95.3823 137.689 94.8823 137.886C94.3861 138.08 93.8198 138.176 93.1835 138.176ZM100.336 132.818V138H98.6367V129.273H100.267V130.693H100.375C100.576 130.231 100.891 129.86 101.319 129.58C101.75 129.299 102.294 129.159 102.949 129.159C103.544 129.159 104.065 129.284 104.512 129.534C104.959 129.78 105.305 130.148 105.552 130.636C105.798 131.125 105.921 131.729 105.921 132.449V138H104.222V132.653C104.222 132.021 104.057 131.527 103.728 131.17C103.398 130.811 102.945 130.631 102.37 130.631C101.976 130.631 101.625 130.716 101.319 130.886C101.016 131.057 100.775 131.307 100.597 131.636C100.423 131.962 100.336 132.356 100.336 132.818ZM111.785 138.176C110.925 138.176 110.184 137.992 109.563 137.625C108.946 137.254 108.468 136.733 108.131 136.062C107.798 135.388 107.631 134.598 107.631 133.693C107.631 132.799 107.798 132.011 108.131 131.33C108.468 130.648 108.938 130.116 109.54 129.733C110.146 129.35 110.855 129.159 111.665 129.159C112.158 129.159 112.635 129.241 113.097 129.403C113.559 129.566 113.974 129.822 114.341 130.17C114.709 130.519 114.999 130.972 115.211 131.528C115.423 132.081 115.529 132.754 115.529 133.545V134.148H108.591V132.875H113.864C113.864 132.428 113.773 132.032 113.591 131.688C113.41 131.339 113.154 131.064 112.824 130.864C112.499 130.663 112.116 130.562 111.677 130.562C111.199 130.562 110.783 130.68 110.427 130.915C110.074 131.146 109.802 131.449 109.608 131.824C109.419 132.195 109.324 132.598 109.324 133.034V134.028C109.324 134.612 109.427 135.108 109.631 135.517C109.84 135.926 110.129 136.239 110.501 136.455C110.872 136.667 111.305 136.773 111.802 136.773C112.124 136.773 112.417 136.727 112.682 136.636C112.947 136.542 113.177 136.402 113.37 136.216C113.563 136.03 113.711 135.801 113.813 135.528L115.421 135.818C115.292 136.292 115.061 136.706 114.728 137.062C114.398 137.415 113.983 137.689 113.483 137.886C112.987 138.08 112.421 138.176 111.785 138.176ZM117.238 138V129.273H118.88V130.659H118.971C119.13 130.189 119.41 129.82 119.812 129.551C120.217 129.278 120.675 129.142 121.187 129.142C121.293 129.142 121.418 129.146 121.562 129.153C121.709 129.161 121.825 129.17 121.908 129.182V130.807C121.84 130.788 121.719 130.767 121.545 130.744C121.37 130.718 121.196 130.705 121.022 130.705C120.62 130.705 120.262 130.79 119.948 130.96C119.637 131.127 119.391 131.36 119.209 131.659C119.028 131.955 118.937 132.292 118.937 132.67V138H117.238ZM125.664 138.193C125.111 138.193 124.611 138.091 124.164 137.886C123.717 137.678 123.363 137.377 123.102 136.983C122.844 136.589 122.715 136.106 122.715 135.534C122.715 135.042 122.81 134.636 122.999 134.318C123.189 134 123.444 133.748 123.766 133.562C124.088 133.377 124.448 133.237 124.846 133.142C125.244 133.047 125.649 132.975 126.062 132.926C126.585 132.866 127.009 132.816 127.335 132.778C127.66 132.737 127.897 132.67 128.045 132.58C128.193 132.489 128.266 132.341 128.266 132.136V132.097C128.266 131.6 128.126 131.216 127.846 130.943C127.569 130.67 127.157 130.534 126.607 130.534C126.035 130.534 125.585 130.661 125.255 130.915C124.929 131.165 124.704 131.443 124.579 131.75L122.982 131.386C123.172 130.856 123.448 130.428 123.812 130.102C124.179 129.773 124.602 129.534 125.079 129.386C125.556 129.235 126.058 129.159 126.585 129.159C126.933 129.159 127.302 129.201 127.693 129.284C128.086 129.364 128.454 129.511 128.795 129.727C129.14 129.943 129.422 130.252 129.641 130.653C129.861 131.051 129.971 131.568 129.971 132.205V138H128.312V136.807H128.244C128.134 137.027 127.969 137.242 127.749 137.455C127.53 137.667 127.247 137.843 126.903 137.983C126.558 138.123 126.145 138.193 125.664 138.193ZM126.033 136.83C126.503 136.83 126.905 136.737 127.238 136.551C127.575 136.366 127.831 136.123 128.005 135.824C128.183 135.521 128.272 135.197 128.272 134.852V133.727C128.211 133.788 128.094 133.845 127.92 133.898C127.749 133.947 127.554 133.991 127.335 134.028C127.115 134.062 126.901 134.095 126.693 134.125C126.484 134.152 126.31 134.174 126.17 134.193C125.84 134.235 125.539 134.305 125.266 134.403C124.997 134.502 124.782 134.644 124.619 134.83C124.46 135.011 124.38 135.254 124.38 135.557C124.38 135.977 124.535 136.295 124.846 136.511C125.157 136.723 125.552 136.83 126.033 136.83ZM136.132 129.273V130.636H131.365V129.273H136.132ZM132.643 127.182H134.342V135.438C134.342 135.767 134.391 136.015 134.49 136.182C134.588 136.345 134.715 136.456 134.87 136.517C135.029 136.574 135.202 136.602 135.387 136.602C135.524 136.602 135.643 136.593 135.745 136.574C135.848 136.555 135.927 136.54 135.984 136.528L136.291 137.932C136.192 137.97 136.052 138.008 135.87 138.045C135.688 138.087 135.461 138.11 135.188 138.114C134.741 138.121 134.325 138.042 133.938 137.875C133.552 137.708 133.24 137.451 133.001 137.102C132.762 136.754 132.643 136.316 132.643 135.79V127.182ZM137.835 138V129.273H139.534V138H137.835ZM138.693 127.926C138.397 127.926 138.144 127.828 137.931 127.631C137.723 127.43 137.619 127.191 137.619 126.915C137.619 126.634 137.723 126.396 137.931 126.199C138.144 125.998 138.397 125.898 138.693 125.898C138.988 125.898 139.24 125.998 139.448 126.199C139.661 126.396 139.767 126.634 139.767 126.915C139.767 127.191 139.661 127.43 139.448 127.631C139.24 127.828 138.988 127.926 138.693 127.926ZM145.319 138.176C144.501 138.176 143.787 137.989 143.177 137.614C142.567 137.239 142.094 136.714 141.757 136.04C141.42 135.366 141.251 134.578 141.251 133.676C141.251 132.771 141.42 131.979 141.757 131.301C142.094 130.623 142.567 130.097 143.177 129.722C143.787 129.347 144.501 129.159 145.319 129.159C146.138 129.159 146.852 129.347 147.461 129.722C148.071 130.097 148.545 130.623 148.882 131.301C149.219 131.979 149.388 132.771 149.388 133.676C149.388 134.578 149.219 135.366 148.882 136.04C148.545 136.714 148.071 137.239 147.461 137.614C146.852 137.989 146.138 138.176 145.319 138.176ZM145.325 136.75C145.855 136.75 146.295 136.61 146.643 136.33C146.992 136.049 147.249 135.676 147.416 135.21C147.586 134.744 147.672 134.231 147.672 133.67C147.672 133.114 147.586 132.602 147.416 132.136C147.249 131.667 146.992 131.29 146.643 131.006C146.295 130.722 145.855 130.58 145.325 130.58C144.791 130.58 144.348 130.722 143.996 131.006C143.647 131.29 143.388 131.667 143.217 132.136C143.05 132.602 142.967 133.114 142.967 133.67C142.967 134.231 143.05 134.744 143.217 135.21C143.388 135.676 143.647 136.049 143.996 136.33C144.348 136.61 144.791 136.75 145.325 136.75ZM152.807 132.818V138H151.108V129.273H152.739V130.693H152.847C153.047 130.231 153.362 129.86 153.79 129.58C154.222 129.299 154.765 129.159 155.42 129.159C156.015 129.159 156.536 129.284 156.983 129.534C157.43 129.78 157.776 130.148 158.023 130.636C158.269 131.125 158.392 131.729 158.392 132.449V138H156.693V132.653C156.693 132.021 156.528 131.527 156.199 131.17C155.869 130.811 155.417 130.631 154.841 130.631C154.447 130.631 154.097 130.716 153.79 130.886C153.487 131.057 153.246 131.307 153.068 131.636C152.894 131.962 152.807 132.356 152.807 132.818Z" fill="black" fill-opacity="0.8"/>
<rect x="4" y="193" width="229" height="38" rx="3" stroke="#0C7264" stroke-width="4" stroke-linecap="round"/>
<path d="M58.3447 210.04C58.2349 209.695 58.0871 209.386 57.9015 209.114C57.7197 208.837 57.5019 208.602 57.2481 208.409C56.9943 208.212 56.7046 208.062 56.3788 207.96C56.0568 207.858 55.7027 207.807 55.3163 207.807C54.661 207.807 54.0701 207.975 53.5436 208.312C53.0171 208.65 52.6004 209.144 52.2936 209.795C51.9906 210.443 51.839 211.237 51.839 212.176C51.839 213.119 51.9925 213.917 52.2993 214.568C52.6061 215.22 53.0265 215.714 53.5606 216.051C54.0947 216.388 54.7027 216.557 55.3845 216.557C56.0171 216.557 56.5682 216.428 57.0379 216.17C57.5114 215.913 57.8769 215.549 58.1345 215.08C58.3959 214.606 58.5265 214.049 58.5265 213.409L58.9811 213.494H55.6515V212.045H60.2254V213.369C60.2254 214.347 60.0171 215.195 59.6004 215.915C59.1875 216.631 58.6156 217.184 57.8845 217.574C57.1572 217.964 56.3239 218.159 55.3845 218.159C54.3315 218.159 53.4072 217.917 52.6118 217.432C51.8201 216.947 51.2027 216.259 50.7595 215.369C50.3163 214.475 50.0947 213.415 50.0947 212.188C50.0947 211.259 50.2235 210.426 50.4811 209.688C50.7387 208.949 51.1004 208.322 51.5663 207.807C52.036 207.288 52.5871 206.892 53.2197 206.619C53.8561 206.343 54.5512 206.205 55.305 206.205C55.9337 206.205 56.519 206.297 57.0606 206.483C57.6061 206.669 58.0909 206.932 58.5152 207.273C58.9432 207.614 59.2974 208.019 59.5777 208.489C59.858 208.955 60.0474 209.472 60.1459 210.04H58.3447ZM62.6886 218V209.273H64.3875V218H62.6886ZM63.5466 207.926C63.2511 207.926 62.9973 207.828 62.7852 207.631C62.5769 207.43 62.4727 207.191 62.4727 206.915C62.4727 206.634 62.5769 206.396 62.7852 206.199C62.9973 205.998 63.2511 205.898 63.5466 205.898C63.842 205.898 64.0939 205.998 64.3022 206.199C64.5144 206.396 64.6204 206.634 64.6204 206.915C64.6204 207.191 64.5144 207.43 64.3022 207.631C64.0939 207.828 63.842 207.926 63.5466 207.926ZM70.5709 209.273V210.636H65.8038V209.273H70.5709ZM67.0822 207.182H68.7811V215.438C68.7811 215.767 68.8303 216.015 68.9288 216.182C69.0273 216.345 69.1542 216.456 69.3095 216.517C69.4686 216.574 69.6409 216.602 69.8265 216.602C69.9629 216.602 70.0822 216.593 70.1845 216.574C70.2868 216.555 70.3663 216.54 70.4231 216.528L70.7299 217.932C70.6315 217.97 70.4913 218.008 70.3095 218.045C70.1277 218.087 69.9004 218.11 69.6277 218.114C69.1807 218.121 68.764 218.042 68.3777 217.875C67.9913 217.708 67.6788 217.451 67.4402 217.102C67.2015 216.754 67.0822 216.316 67.0822 215.79V207.182ZM72.598 218V206.364H74.3537V211.42H80.1548V206.364H81.9162V218H80.1548V212.926H74.3537V218H72.598ZM89.689 214.381V209.273H91.3936V218H89.7231V216.489H89.6322C89.4314 216.955 89.1095 217.343 88.6663 217.653C88.2269 217.96 87.6796 218.114 87.0243 218.114C86.4636 218.114 85.9674 217.991 85.5356 217.744C85.1076 217.494 84.7705 217.125 84.5243 216.636C84.2818 216.148 84.1606 215.544 84.1606 214.824V209.273H85.8595V214.619C85.8595 215.214 86.0243 215.687 86.3538 216.04C86.6833 216.392 87.1114 216.568 87.6379 216.568C87.9561 216.568 88.2724 216.489 88.5868 216.33C88.9049 216.17 89.1682 215.93 89.3765 215.608C89.5886 215.286 89.6928 214.877 89.689 214.381ZM93.6366 218V206.364H95.3355V210.688H95.4377C95.5362 210.506 95.6783 210.295 95.8639 210.057C96.0495 209.818 96.307 209.61 96.6366 209.432C96.9661 209.25 97.4017 209.159 97.9434 209.159C98.648 209.159 99.2767 209.337 99.8298 209.693C100.383 210.049 100.817 210.562 101.131 211.233C101.449 211.903 101.608 212.71 101.608 213.653C101.608 214.597 101.451 215.405 101.137 216.08C100.822 216.75 100.39 217.267 99.8411 217.631C99.2919 217.991 98.665 218.17 97.9605 218.17C97.4302 218.17 96.9964 218.081 96.6593 217.903C96.326 217.725 96.0646 217.517 95.8752 217.278C95.6858 217.04 95.54 216.828 95.4377 216.642H95.2957V218H93.6366ZM95.3014 213.636C95.3014 214.25 95.3904 214.788 95.5684 215.25C95.7464 215.712 96.004 216.074 96.3411 216.335C96.6783 216.593 97.0911 216.722 97.5798 216.722C98.0874 216.722 98.5116 216.587 98.8525 216.318C99.1934 216.045 99.451 215.676 99.6252 215.21C99.8033 214.744 99.8923 214.22 99.8923 213.636C99.8923 213.061 99.8052 212.544 99.6309 212.085C99.4605 211.627 99.2029 211.265 98.8582 211C98.5173 210.735 98.0911 210.602 97.5798 210.602C97.0874 210.602 96.6707 210.729 96.3298 210.983C95.9927 211.237 95.737 211.591 95.5627 212.045C95.3885 212.5 95.3014 213.03 95.3014 213.636ZM109.29 206.364V218H107.535V206.364H109.29ZM113.234 212.818V218H111.535V209.273H113.165V210.693H113.273C113.474 210.231 113.789 209.86 114.217 209.58C114.648 209.299 115.192 209.159 115.847 209.159C116.442 209.159 116.963 209.284 117.41 209.534C117.857 209.78 118.203 210.148 118.45 210.636C118.696 211.125 118.819 211.729 118.819 212.449V218H117.12V212.653C117.12 212.021 116.955 211.527 116.626 211.17C116.296 210.811 115.843 210.631 115.268 210.631C114.874 210.631 114.523 210.716 114.217 210.886C113.914 211.057 113.673 211.307 113.495 211.636C113.321 211.962 113.234 212.356 113.234 212.818ZM124.995 209.273V210.636H120.228V209.273H124.995ZM121.506 207.182H123.205V215.438C123.205 215.767 123.255 216.015 123.353 216.182C123.452 216.345 123.578 216.456 123.734 216.517C123.893 216.574 124.065 216.602 124.251 216.602C124.387 216.602 124.506 216.593 124.609 216.574C124.711 216.555 124.791 216.54 124.847 216.528L125.154 217.932C125.056 217.97 124.916 218.008 124.734 218.045C124.552 218.087 124.325 218.11 124.052 218.114C123.605 218.121 123.188 218.042 122.802 217.875C122.416 217.708 122.103 217.451 121.864 217.102C121.626 216.754 121.506 216.316 121.506 215.79V207.182ZM130.366 218.176C129.506 218.176 128.766 217.992 128.144 217.625C127.527 217.254 127.05 216.733 126.713 216.062C126.379 215.388 126.213 214.598 126.213 213.693C126.213 212.799 126.379 212.011 126.713 211.33C127.05 210.648 127.519 210.116 128.122 209.733C128.728 209.35 129.436 209.159 130.247 209.159C130.739 209.159 131.216 209.241 131.678 209.403C132.141 209.566 132.555 209.822 132.923 210.17C133.29 210.519 133.58 210.972 133.792 211.528C134.004 212.081 134.11 212.754 134.11 213.545V214.148H127.173V212.875H132.446C132.446 212.428 132.355 212.032 132.173 211.688C131.991 211.339 131.735 211.064 131.406 210.864C131.08 210.663 130.697 210.562 130.258 210.562C129.781 210.562 129.364 210.68 129.008 210.915C128.656 211.146 128.383 211.449 128.19 211.824C128 212.195 127.906 212.598 127.906 213.034V214.028C127.906 214.612 128.008 215.108 128.213 215.517C128.421 215.926 128.711 216.239 129.082 216.455C129.453 216.667 129.887 216.773 130.383 216.773C130.705 216.773 130.999 216.727 131.264 216.636C131.529 216.542 131.758 216.402 131.951 216.216C132.144 216.03 132.292 215.801 132.394 215.528L134.002 215.818C133.874 216.292 133.642 216.706 133.309 217.062C132.98 217.415 132.565 217.689 132.065 217.886C131.569 218.08 131.002 218.176 130.366 218.176ZM139.478 221.455C138.785 221.455 138.189 221.364 137.689 221.182C137.192 221 136.787 220.759 136.473 220.46C136.158 220.161 135.923 219.833 135.768 219.477L137.228 218.875C137.331 219.042 137.467 219.218 137.637 219.403C137.812 219.593 138.047 219.754 138.342 219.886C138.641 220.019 139.026 220.085 139.495 220.085C140.139 220.085 140.672 219.928 141.092 219.614C141.512 219.303 141.723 218.807 141.723 218.125V216.409H141.615C141.512 216.595 141.365 216.801 141.172 217.028C140.982 217.256 140.721 217.453 140.387 217.619C140.054 217.786 139.62 217.869 139.086 217.869C138.397 217.869 137.776 217.708 137.223 217.386C136.673 217.061 136.238 216.581 135.916 215.949C135.598 215.312 135.439 214.53 135.439 213.602C135.439 212.674 135.596 211.879 135.91 211.216C136.228 210.553 136.664 210.045 137.217 209.693C137.77 209.337 138.397 209.159 139.098 209.159C139.639 209.159 140.077 209.25 140.41 209.432C140.743 209.61 141.003 209.818 141.189 210.057C141.378 210.295 141.524 210.506 141.626 210.688H141.751V209.273H143.416V218.193C143.416 218.943 143.242 219.559 142.893 220.04C142.545 220.521 142.073 220.877 141.478 221.108C140.887 221.339 140.221 221.455 139.478 221.455ZM139.461 216.46C139.95 216.46 140.363 216.347 140.7 216.119C141.041 215.888 141.298 215.559 141.473 215.131C141.651 214.699 141.74 214.182 141.74 213.58C141.74 212.992 141.653 212.475 141.478 212.028C141.304 211.581 141.048 211.233 140.711 210.983C140.374 210.729 139.957 210.602 139.461 210.602C138.95 210.602 138.524 210.735 138.183 211C137.842 211.261 137.584 211.617 137.41 212.068C137.24 212.519 137.154 213.023 137.154 213.58C137.154 214.152 137.242 214.653 137.416 215.085C137.59 215.517 137.848 215.854 138.189 216.097C138.533 216.339 138.957 216.46 139.461 216.46ZM145.518 218V209.273H147.16V210.659H147.251C147.41 210.189 147.691 209.82 148.092 209.551C148.497 209.278 148.956 209.142 149.467 209.142C149.573 209.142 149.698 209.146 149.842 209.153C149.99 209.161 150.105 209.17 150.189 209.182V210.807C150.121 210.788 149.999 210.767 149.825 210.744C149.651 210.718 149.477 210.705 149.302 210.705C148.901 210.705 148.543 210.79 148.228 210.96C147.918 211.127 147.672 211.36 147.49 211.659C147.308 211.955 147.217 212.292 147.217 212.67V218H145.518ZM153.945 218.193C153.391 218.193 152.891 218.091 152.445 217.886C151.998 217.678 151.643 217.377 151.382 216.983C151.124 216.589 150.996 216.106 150.996 215.534C150.996 215.042 151.09 214.636 151.28 214.318C151.469 214 151.725 213.748 152.047 213.562C152.369 213.377 152.729 213.237 153.126 213.142C153.524 213.047 153.929 212.975 154.342 212.926C154.865 212.866 155.289 212.816 155.615 212.778C155.941 212.737 156.177 212.67 156.325 212.58C156.473 212.489 156.547 212.341 156.547 212.136V212.097C156.547 211.6 156.407 211.216 156.126 210.943C155.85 210.67 155.437 210.534 154.888 210.534C154.316 210.534 153.865 210.661 153.535 210.915C153.21 211.165 152.984 211.443 152.859 211.75L151.263 211.386C151.452 210.856 151.729 210.428 152.092 210.102C152.46 209.773 152.882 209.534 153.359 209.386C153.837 209.235 154.338 209.159 154.865 209.159C155.213 209.159 155.583 209.201 155.973 209.284C156.367 209.364 156.734 209.511 157.075 209.727C157.42 209.943 157.702 210.252 157.922 210.653C158.141 211.051 158.251 211.568 158.251 212.205V218H156.592V216.807H156.524C156.414 217.027 156.249 217.242 156.03 217.455C155.81 217.667 155.528 217.843 155.183 217.983C154.838 218.123 154.426 218.193 153.945 218.193ZM154.314 216.83C154.784 216.83 155.185 216.737 155.518 216.551C155.855 216.366 156.111 216.123 156.285 215.824C156.463 215.521 156.552 215.197 156.552 214.852V213.727C156.492 213.788 156.374 213.845 156.2 213.898C156.03 213.947 155.835 213.991 155.615 214.028C155.395 214.062 155.181 214.095 154.973 214.125C154.765 214.152 154.59 214.174 154.45 214.193C154.121 214.235 153.82 214.305 153.547 214.403C153.278 214.502 153.062 214.644 152.899 214.83C152.74 215.011 152.66 215.254 152.66 215.557C152.66 215.977 152.816 216.295 153.126 216.511C153.437 216.723 153.833 216.83 154.314 216.83ZM164.412 209.273V210.636H159.645V209.273H164.412ZM160.923 207.182H162.622V215.438C162.622 215.767 162.671 216.015 162.77 216.182C162.868 216.345 162.995 216.456 163.151 216.517C163.31 216.574 163.482 216.602 163.668 216.602C163.804 216.602 163.923 216.593 164.026 216.574C164.128 216.555 164.207 216.54 164.264 216.528L164.571 217.932C164.473 217.97 164.332 218.008 164.151 218.045C163.969 218.087 163.742 218.11 163.469 218.114C163.022 218.121 162.605 218.042 162.219 217.875C161.832 217.708 161.52 217.451 161.281 217.102C161.043 216.754 160.923 216.316 160.923 215.79V207.182ZM166.115 218V209.273H167.814V218H166.115ZM166.973 207.926C166.678 207.926 166.424 207.828 166.212 207.631C166.003 207.43 165.899 207.191 165.899 206.915C165.899 206.634 166.003 206.396 166.212 206.199C166.424 205.998 166.678 205.898 166.973 205.898C167.269 205.898 167.521 205.998 167.729 206.199C167.941 206.396 168.047 206.634 168.047 206.915C168.047 207.191 167.941 207.43 167.729 207.631C167.521 207.828 167.269 207.926 166.973 207.926ZM173.6 218.176C172.782 218.176 172.068 217.989 171.458 217.614C170.848 217.239 170.374 216.714 170.037 216.04C169.7 215.366 169.532 214.578 169.532 213.676C169.532 212.771 169.7 211.979 170.037 211.301C170.374 210.623 170.848 210.097 171.458 209.722C172.068 209.347 172.782 209.159 173.6 209.159C174.418 209.159 175.132 209.347 175.742 209.722C176.352 210.097 176.825 210.623 177.162 211.301C177.499 211.979 177.668 212.771 177.668 213.676C177.668 214.578 177.499 215.366 177.162 216.04C176.825 216.714 176.352 217.239 175.742 217.614C175.132 217.989 174.418 218.176 173.6 218.176ZM173.605 216.75C174.136 216.75 174.575 216.61 174.924 216.33C175.272 216.049 175.53 215.676 175.696 215.21C175.867 214.744 175.952 214.231 175.952 213.67C175.952 213.114 175.867 212.602 175.696 212.136C175.53 211.667 175.272 211.29 174.924 211.006C174.575 210.722 174.136 210.58 173.605 210.58C173.071 210.58 172.628 210.722 172.276 211.006C171.927 211.29 171.668 211.667 171.497 212.136C171.331 212.602 171.247 213.114 171.247 213.67C171.247 214.231 171.331 214.744 171.497 215.21C171.668 215.676 171.927 216.049 172.276 216.33C172.628 216.61 173.071 216.75 173.605 216.75ZM181.087 212.818V218H179.388V209.273H181.019V210.693H181.127C181.328 210.231 181.642 209.86 182.07 209.58C182.502 209.299 183.045 209.159 183.701 209.159C184.295 209.159 184.816 209.284 185.263 209.534C185.71 209.78 186.057 210.148 186.303 210.636C186.549 211.125 186.672 211.729 186.672 212.449V218H184.973V212.653C184.973 212.021 184.809 211.527 184.479 211.17C184.15 210.811 183.697 210.631 183.121 210.631C182.727 210.631 182.377 210.716 182.07 210.886C181.767 211.057 181.526 211.307 181.348 211.636C181.174 211.962 181.087 212.356 181.087 212.818Z" fill="black" fill-opacity="0.8"/>
<rect x="4" y="274" width="229" height="38" rx="3" stroke="#0C7264" stroke-width="4" stroke-linecap="round"/>
<path d="M36.1021 290.42C36.0415 289.883 35.7915 289.466 35.3521 289.17C34.9127 288.871 34.3597 288.722 33.693 288.722C33.2158 288.722 32.8029 288.797 32.4544 288.949C32.1059 289.097 31.8351 289.301 31.6419 289.562C31.4525 289.82 31.3578 290.114 31.3578 290.443C31.3578 290.72 31.4222 290.958 31.551 291.159C31.6836 291.36 31.8559 291.528 32.068 291.665C32.2839 291.797 32.515 291.909 32.7612 292C33.0074 292.087 33.2442 292.159 33.4714 292.216L34.6078 292.511C34.979 292.602 35.3597 292.725 35.7499 292.881C36.14 293.036 36.5017 293.241 36.8351 293.494C37.1684 293.748 37.4374 294.062 37.6419 294.438C37.8502 294.812 37.9544 295.261 37.9544 295.784C37.9544 296.443 37.7839 297.028 37.443 297.54C37.1059 298.051 36.6154 298.455 35.9714 298.75C35.3313 299.045 34.5567 299.193 33.6476 299.193C32.7764 299.193 32.0226 299.055 31.3862 298.778C30.7499 298.502 30.2517 298.11 29.8919 297.602C29.5321 297.091 29.3332 296.485 29.2953 295.784H31.0567C31.0908 296.205 31.2271 296.555 31.4658 296.835C31.7082 297.112 32.0169 297.318 32.3919 297.455C32.7707 297.587 33.1855 297.653 33.6362 297.653C34.1324 297.653 34.5737 297.576 34.9601 297.42C35.3502 297.261 35.6571 297.042 35.8805 296.761C36.104 296.477 36.2158 296.146 36.2158 295.767C36.2158 295.422 36.1173 295.14 35.9203 294.92C35.7271 294.701 35.4639 294.519 35.1305 294.375C34.801 294.231 34.4279 294.104 34.0112 293.994L32.6362 293.619C31.7044 293.366 30.9658 292.992 30.4203 292.5C29.8786 292.008 29.6078 291.356 29.6078 290.545C29.6078 289.875 29.7896 289.29 30.1533 288.79C30.5169 288.29 31.0093 287.902 31.6305 287.625C32.2517 287.345 32.9525 287.205 33.7328 287.205C34.5207 287.205 35.2158 287.343 35.818 287.619C36.4241 287.896 36.9014 288.277 37.2499 288.761C37.5983 289.242 37.7802 289.795 37.7953 290.42H36.1021ZM43.5014 299.176C42.6416 299.176 41.901 298.992 41.2798 298.625C40.6624 298.254 40.1851 297.733 39.848 297.062C39.5147 296.388 39.348 295.598 39.348 294.693C39.348 293.799 39.5147 293.011 39.848 292.33C40.1851 291.648 40.6548 291.116 41.2571 290.733C41.8632 290.35 42.5715 290.159 43.3821 290.159C43.8745 290.159 44.3518 290.241 44.8139 290.403C45.276 290.566 45.6908 290.822 46.0582 291.17C46.4257 291.519 46.7154 291.972 46.9275 292.528C47.1397 293.081 47.2457 293.754 47.2457 294.545V295.148H40.3082V293.875H45.581C45.581 293.428 45.49 293.032 45.3082 292.688C45.1264 292.339 44.8707 292.064 44.5412 291.864C44.2154 291.663 43.8329 291.562 43.3935 291.562C42.9162 291.562 42.4995 291.68 42.1435 291.915C41.7912 292.146 41.5185 292.449 41.3253 292.824C41.1359 293.195 41.0412 293.598 41.0412 294.034V295.028C41.0412 295.612 41.1435 296.108 41.348 296.517C41.5563 296.926 41.8461 297.239 42.2173 297.455C42.5885 297.667 43.0222 297.773 43.5185 297.773C43.8404 297.773 44.134 297.727 44.3991 297.636C44.6643 297.542 44.8935 297.402 45.0866 297.216C45.2798 297.03 45.4275 296.801 45.5298 296.528L47.1378 296.818C47.009 297.292 46.7779 297.706 46.4446 298.062C46.115 298.415 45.7003 298.689 45.2003 298.886C44.7041 299.08 44.1378 299.176 43.5014 299.176ZM56.1706 290.273L53.0058 299H51.1876L48.0172 290.273H49.841L52.0513 296.989H52.1422L54.3467 290.273H56.1706ZM61.0557 299.176C60.1958 299.176 59.4553 298.992 58.8341 298.625C58.2166 298.254 57.7394 297.733 57.4023 297.062C57.0689 296.388 56.9023 295.598 56.9023 294.693C56.9023 293.799 57.0689 293.011 57.4023 292.33C57.7394 291.648 58.2091 291.116 58.8113 290.733C59.4174 290.35 60.1257 290.159 60.9363 290.159C61.4288 290.159 61.906 290.241 62.3682 290.403C62.8303 290.566 63.2451 290.822 63.6125 291.17C63.9799 291.519 64.2697 291.972 64.4818 292.528C64.6939 293.081 64.8 293.754 64.8 294.545V295.148H57.8625V293.875H63.1352C63.1352 293.428 63.0443 293.032 62.8625 292.688C62.6807 292.339 62.425 292.064 62.0954 291.864C61.7697 291.663 61.3871 291.562 60.9477 291.562C60.4704 291.562 60.0538 291.68 59.6977 291.915C59.3454 292.146 59.0727 292.449 58.8795 292.824C58.6901 293.195 58.5954 293.598 58.5954 294.034V295.028C58.5954 295.612 58.6977 296.108 58.9023 296.517C59.1106 296.926 59.4004 297.239 59.7716 297.455C60.1428 297.667 60.5765 297.773 61.0727 297.773C61.3947 297.773 61.6882 297.727 61.9534 297.636C62.2185 297.542 62.4477 297.402 62.6409 297.216C62.8341 297.03 62.9818 296.801 63.0841 296.528L64.692 296.818C64.5632 297.292 64.3322 297.706 63.9988 298.062C63.6693 298.415 63.2545 298.689 62.7545 298.886C62.2583 299.08 61.692 299.176 61.0557 299.176ZM66.5089 299V290.273H68.151V291.659H68.2419C68.401 291.189 68.6813 290.82 69.0828 290.551C69.4881 290.278 69.9464 290.142 70.4578 290.142C70.5638 290.142 70.6888 290.146 70.8328 290.153C70.9805 290.161 71.096 290.17 71.1794 290.182V291.807C71.1112 291.788 70.99 291.767 70.8157 291.744C70.6415 291.718 70.4673 291.705 70.293 291.705C69.8915 291.705 69.5335 291.79 69.2192 291.96C68.9085 292.127 68.6623 292.36 68.4805 292.659C68.2987 292.955 68.2078 293.292 68.2078 293.67V299H66.5089ZM72.4735 299V290.273H74.1724V299H72.4735ZM73.3315 288.926C73.036 288.926 72.7823 288.828 72.5701 288.631C72.3618 288.43 72.2576 288.191 72.2576 287.915C72.2576 287.634 72.3618 287.396 72.5701 287.199C72.7823 286.998 73.036 286.898 73.3315 286.898C73.627 286.898 73.8788 286.998 74.0872 287.199C74.2993 287.396 74.4054 287.634 74.4054 287.915C74.4054 288.191 74.2993 288.43 74.0872 288.631C73.8788 288.828 73.627 288.926 73.3315 288.926ZM80.3558 290.273V291.636H75.5887V290.273H80.3558ZM76.8672 288.182H78.566V296.438C78.566 296.767 78.6153 297.015 78.7137 297.182C78.8122 297.345 78.9391 297.456 79.0944 297.517C79.2535 297.574 79.4259 297.602 79.6115 297.602C79.7478 297.602 79.8672 297.593 79.9694 297.574C80.0717 297.555 80.1512 297.54 80.2081 297.528L80.5149 298.932C80.4164 298.97 80.2762 299.008 80.0944 299.045C79.9126 299.087 79.6853 299.11 79.4126 299.114C78.9656 299.121 78.549 299.042 78.1626 298.875C77.7762 298.708 77.4637 298.451 77.2251 298.102C76.9865 297.754 76.8672 297.316 76.8672 296.79V288.182ZM83.1329 302.273C82.8791 302.273 82.6481 302.252 82.4397 302.21C82.2314 302.172 82.0761 302.131 81.9738 302.085L82.3829 300.693C82.6935 300.777 82.97 300.813 83.2125 300.801C83.4549 300.79 83.6689 300.699 83.8545 300.528C84.0439 300.358 84.2106 300.08 84.3545 299.693L84.5647 299.114L81.3716 290.273H83.1897L85.4 297.045H85.4909L87.7011 290.273H89.525L85.9284 300.165C85.7617 300.619 85.5496 301.004 85.292 301.318C85.0344 301.636 84.7276 301.875 84.3716 302.034C84.0155 302.193 83.6026 302.273 83.1329 302.273ZM96.0876 293.347V294.818H90.9285V293.347H96.0876ZM98.3122 299V287.364H102.574C103.399 287.364 104.083 287.5 104.625 287.773C105.166 288.042 105.572 288.407 105.841 288.869C106.11 289.328 106.244 289.845 106.244 290.42C106.244 290.905 106.155 291.314 105.977 291.648C105.799 291.977 105.56 292.242 105.261 292.443C104.966 292.64 104.64 292.784 104.284 292.875V292.989C104.67 293.008 105.047 293.133 105.414 293.364C105.786 293.591 106.092 293.915 106.335 294.335C106.577 294.756 106.699 295.267 106.699 295.869C106.699 296.464 106.558 296.998 106.278 297.472C106.002 297.941 105.574 298.314 104.994 298.591C104.414 298.864 103.674 299 102.772 299H98.3122ZM100.068 297.494H102.602C103.443 297.494 104.045 297.331 104.409 297.006C104.772 296.68 104.954 296.273 104.954 295.784C104.954 295.417 104.861 295.08 104.676 294.773C104.49 294.466 104.225 294.222 103.88 294.04C103.539 293.858 103.134 293.767 102.664 293.767H100.068V297.494ZM100.068 292.398H102.42C102.814 292.398 103.168 292.322 103.483 292.17C103.801 292.019 104.053 291.807 104.238 291.534C104.428 291.258 104.522 290.932 104.522 290.557C104.522 290.076 104.354 289.672 104.017 289.347C103.68 289.021 103.163 288.858 102.466 288.858H100.068V292.398ZM111.008 299.193C110.455 299.193 109.955 299.091 109.508 298.886C109.061 298.678 108.707 298.377 108.446 297.983C108.188 297.589 108.059 297.106 108.059 296.534C108.059 296.042 108.154 295.636 108.344 295.318C108.533 295 108.789 294.748 109.111 294.562C109.433 294.377 109.792 294.237 110.19 294.142C110.588 294.047 110.993 293.975 111.406 293.926C111.929 293.866 112.353 293.816 112.679 293.778C113.005 293.737 113.241 293.67 113.389 293.58C113.537 293.489 113.611 293.341 113.611 293.136V293.097C113.611 292.6 113.47 292.216 113.19 291.943C112.914 291.67 112.501 291.534 111.951 291.534C111.38 291.534 110.929 291.661 110.599 291.915C110.273 292.165 110.048 292.443 109.923 292.75L108.326 292.386C108.516 291.856 108.792 291.428 109.156 291.102C109.523 290.773 109.946 290.534 110.423 290.386C110.9 290.235 111.402 290.159 111.929 290.159C112.277 290.159 112.647 290.201 113.037 290.284C113.431 290.364 113.798 290.511 114.139 290.727C114.484 290.943 114.766 291.252 114.986 291.653C115.205 292.051 115.315 292.568 115.315 293.205V299H113.656V297.807H113.588C113.478 298.027 113.313 298.242 113.094 298.455C112.874 298.667 112.592 298.843 112.247 298.983C111.902 299.123 111.489 299.193 111.008 299.193ZM111.378 297.83C111.847 297.83 112.249 297.737 112.582 297.551C112.919 297.366 113.175 297.123 113.349 296.824C113.527 296.521 113.616 296.197 113.616 295.852V294.727C113.556 294.788 113.438 294.845 113.264 294.898C113.094 294.947 112.898 294.991 112.679 295.028C112.459 295.062 112.245 295.095 112.037 295.125C111.828 295.152 111.654 295.174 111.514 295.193C111.184 295.235 110.883 295.305 110.611 295.403C110.342 295.502 110.126 295.644 109.963 295.83C109.804 296.011 109.724 296.254 109.724 296.557C109.724 296.977 109.88 297.295 110.19 297.511C110.501 297.723 110.897 297.83 111.378 297.83ZM123.942 292.403L122.402 292.676C122.338 292.479 122.235 292.292 122.095 292.114C121.959 291.936 121.773 291.79 121.538 291.676C121.303 291.562 121.01 291.506 120.658 291.506C120.177 291.506 119.775 291.614 119.453 291.83C119.131 292.042 118.97 292.316 118.97 292.653C118.97 292.945 119.078 293.18 119.294 293.358C119.51 293.536 119.858 293.682 120.339 293.795L121.726 294.114C122.529 294.299 123.127 294.585 123.521 294.972C123.915 295.358 124.112 295.86 124.112 296.477C124.112 297 123.961 297.466 123.658 297.875C123.358 298.28 122.94 298.598 122.402 298.83C121.868 299.061 121.249 299.176 120.544 299.176C119.567 299.176 118.769 298.968 118.152 298.551C117.535 298.131 117.156 297.534 117.016 296.761L118.658 296.511C118.76 296.939 118.97 297.263 119.288 297.483C119.606 297.699 120.021 297.807 120.533 297.807C121.089 297.807 121.535 297.691 121.868 297.46C122.201 297.225 122.368 296.939 122.368 296.602C122.368 296.33 122.266 296.1 122.061 295.915C121.86 295.729 121.552 295.589 121.135 295.494L119.658 295.17C118.843 294.985 118.241 294.689 117.851 294.284C117.464 293.879 117.271 293.366 117.271 292.744C117.271 292.229 117.415 291.778 117.703 291.392C117.991 291.006 118.389 290.705 118.896 290.489C119.404 290.269 119.985 290.159 120.641 290.159C121.584 290.159 122.326 290.364 122.868 290.773C123.41 291.178 123.767 291.722 123.942 292.403ZM129.565 299.176C128.706 299.176 127.965 298.992 127.344 298.625C126.726 298.254 126.249 297.733 125.912 297.062C125.579 296.388 125.412 295.598 125.412 294.693C125.412 293.799 125.579 293.011 125.912 292.33C126.249 291.648 126.719 291.116 127.321 290.733C127.927 290.35 128.635 290.159 129.446 290.159C129.939 290.159 130.416 290.241 130.878 290.403C131.34 290.566 131.755 290.822 132.122 291.17C132.49 291.519 132.779 291.972 132.992 292.528C133.204 293.081 133.31 293.754 133.31 294.545V295.148H126.372V293.875H131.645C131.645 293.428 131.554 293.032 131.372 292.688C131.19 292.339 130.935 292.064 130.605 291.864C130.279 291.663 129.897 291.562 129.457 291.562C128.98 291.562 128.564 291.68 128.207 291.915C127.855 292.146 127.582 292.449 127.389 292.824C127.2 293.195 127.105 293.598 127.105 294.034V295.028C127.105 295.612 127.207 296.108 127.412 296.517C127.62 296.926 127.91 297.239 128.281 297.455C128.653 297.667 129.086 297.773 129.582 297.773C129.904 297.773 130.198 297.727 130.463 297.636C130.728 297.542 130.957 297.402 131.151 297.216C131.344 297.03 131.492 296.801 131.594 296.528L133.202 296.818C133.073 297.292 132.842 297.706 132.509 298.062C132.179 298.415 131.764 298.689 131.264 298.886C130.768 299.08 130.202 299.176 129.565 299.176ZM138.286 299.17C137.581 299.17 136.952 298.991 136.399 298.631C135.85 298.267 135.418 297.75 135.104 297.08C134.793 296.405 134.638 295.597 134.638 294.653C134.638 293.71 134.795 292.903 135.11 292.233C135.428 291.562 135.863 291.049 136.416 290.693C136.969 290.337 137.596 290.159 138.297 290.159C138.839 290.159 139.274 290.25 139.604 290.432C139.937 290.61 140.195 290.818 140.377 291.057C140.562 291.295 140.706 291.506 140.808 291.688H140.911V287.364H142.61V299H140.95V297.642H140.808C140.706 297.828 140.558 298.04 140.365 298.278C140.176 298.517 139.915 298.725 139.581 298.903C139.248 299.081 138.816 299.17 138.286 299.17ZM138.661 297.722C139.149 297.722 139.562 297.593 139.899 297.335C140.24 297.074 140.498 296.712 140.672 296.25C140.85 295.788 140.939 295.25 140.939 294.636C140.939 294.03 140.852 293.5 140.678 293.045C140.504 292.591 140.248 292.237 139.911 291.983C139.574 291.729 139.157 291.602 138.661 291.602C138.149 291.602 137.723 291.735 137.382 292C137.041 292.265 136.784 292.627 136.61 293.085C136.439 293.544 136.354 294.061 136.354 294.636C136.354 295.22 136.441 295.744 136.615 296.21C136.79 296.676 137.047 297.045 137.388 297.318C137.733 297.587 138.157 297.722 138.661 297.722ZM149.053 299V287.364H156.269V288.875H150.809V292.42H155.752V293.926H150.809V299H149.053ZM158.116 299V290.273H159.815V299H158.116ZM158.974 288.926C158.678 288.926 158.424 288.828 158.212 288.631C158.004 288.43 157.9 288.191 157.9 287.915C157.9 287.634 158.004 287.396 158.212 287.199C158.424 286.998 158.678 286.898 158.974 286.898C159.269 286.898 159.521 286.998 159.729 287.199C159.941 287.396 160.047 287.634 160.047 287.915C160.047 288.191 159.941 288.43 159.729 288.631C159.521 288.828 159.269 288.926 158.974 288.926ZM163.623 287.364V299H161.924V287.364H163.623ZM169.806 290.273V291.636H165.039V290.273H169.806ZM166.318 288.182H168.017V296.438C168.017 296.767 168.066 297.015 168.164 297.182C168.263 297.345 168.39 297.456 168.545 297.517C168.704 297.574 168.876 297.602 169.062 297.602C169.198 297.602 169.318 297.593 169.42 297.574C169.522 297.555 169.602 297.54 169.659 297.528L169.965 298.932C169.867 298.97 169.727 299.008 169.545 299.045C169.363 299.087 169.136 299.11 168.863 299.114C168.416 299.121 167.999 299.042 167.613 298.875C167.227 298.708 166.914 298.451 166.676 298.102C166.437 297.754 166.318 297.316 166.318 296.79V288.182ZM175.177 299.176C174.317 299.176 173.577 298.992 172.956 298.625C172.338 298.254 171.861 297.733 171.524 297.062C171.19 296.388 171.024 295.598 171.024 294.693C171.024 293.799 171.19 293.011 171.524 292.33C171.861 291.648 172.331 291.116 172.933 290.733C173.539 290.35 174.247 290.159 175.058 290.159C175.55 290.159 176.028 290.241 176.49 290.403C176.952 290.566 177.367 290.822 177.734 291.17C178.101 291.519 178.391 291.972 178.603 292.528C178.815 293.081 178.921 293.754 178.921 294.545V295.148H171.984V293.875H177.257C177.257 293.428 177.166 293.032 176.984 292.688C176.802 292.339 176.546 292.064 176.217 291.864C175.891 291.663 175.509 291.562 175.069 291.562C174.592 291.562 174.175 291.68 173.819 291.915C173.467 292.146 173.194 292.449 173.001 292.824C172.812 293.195 172.717 293.598 172.717 294.034V295.028C172.717 295.612 172.819 296.108 173.024 296.517C173.232 296.926 173.522 297.239 173.893 297.455C174.264 297.667 174.698 297.773 175.194 297.773C175.516 297.773 175.81 297.727 176.075 297.636C176.34 297.542 176.569 297.402 176.762 297.216C176.956 297.03 177.103 296.801 177.206 296.528L178.814 296.818C178.685 297.292 178.454 297.706 178.12 298.062C177.791 298.415 177.376 298.689 176.876 298.886C176.38 299.08 175.814 299.176 175.177 299.176ZM180.63 299V290.273H182.272V291.659H182.363C182.522 291.189 182.803 290.82 183.204 290.551C183.61 290.278 184.068 290.142 184.579 290.142C184.685 290.142 184.81 290.146 184.954 290.153C185.102 290.161 185.218 290.17 185.301 290.182V291.807C185.233 291.788 185.111 291.767 184.937 291.744C184.763 291.718 184.589 291.705 184.415 291.705C184.013 291.705 183.655 291.79 183.341 291.96C183.03 292.127 182.784 292.36 182.602 292.659C182.42 292.955 182.329 293.292 182.329 293.67V299H180.63ZM186.595 299V290.273H188.294V299H186.595ZM187.453 288.926C187.158 288.926 186.904 288.828 186.692 288.631C186.483 288.43 186.379 288.191 186.379 287.915C186.379 287.634 186.483 287.396 186.692 287.199C186.904 286.998 187.158 286.898 187.453 286.898C187.748 286.898 188 286.998 188.209 287.199C188.421 287.396 188.527 287.634 188.527 287.915C188.527 288.191 188.421 288.43 188.209 288.631C188 288.828 187.748 288.926 187.453 288.926ZM192.102 293.818V299H190.403V290.273H192.034V291.693H192.142C192.343 291.231 192.657 290.86 193.085 290.58C193.517 290.299 194.061 290.159 194.716 290.159C195.311 290.159 195.831 290.284 196.278 290.534C196.725 290.78 197.072 291.148 197.318 291.636C197.564 292.125 197.688 292.729 197.688 293.449V299H195.989V293.653C195.989 293.021 195.824 292.527 195.494 292.17C195.165 291.811 194.712 291.631 194.136 291.631C193.742 291.631 193.392 291.716 193.085 291.886C192.782 292.057 192.542 292.307 192.364 292.636C192.189 292.962 192.102 293.356 192.102 293.818ZM203.449 302.455C202.756 302.455 202.159 302.364 201.659 302.182C201.163 302 200.758 301.759 200.443 301.46C200.129 301.161 199.894 300.833 199.739 300.477L201.199 299.875C201.301 300.042 201.438 300.218 201.608 300.403C201.782 300.593 202.017 300.754 202.313 300.886C202.612 301.019 202.996 301.085 203.466 301.085C204.11 301.085 204.642 300.928 205.063 300.614C205.483 300.303 205.693 299.807 205.693 299.125V297.409H205.585C205.483 297.595 205.335 297.801 205.142 298.028C204.953 298.256 204.691 298.453 204.358 298.619C204.025 298.786 203.591 298.869 203.057 298.869C202.368 298.869 201.746 298.708 201.193 298.386C200.644 298.061 200.208 297.581 199.887 296.949C199.568 296.312 199.409 295.53 199.409 294.602C199.409 293.674 199.566 292.879 199.881 292.216C200.199 291.553 200.635 291.045 201.188 290.693C201.741 290.337 202.368 290.159 203.068 290.159C203.61 290.159 204.047 290.25 204.381 290.432C204.714 290.61 204.974 290.818 205.159 291.057C205.349 291.295 205.494 291.506 205.597 291.688H205.722V290.273H207.387V299.193C207.387 299.943 207.212 300.559 206.864 301.04C206.515 301.521 206.044 301.877 205.449 302.108C204.858 302.339 204.191 302.455 203.449 302.455ZM203.432 297.46C203.921 297.46 204.333 297.347 204.671 297.119C205.012 296.888 205.269 296.559 205.443 296.131C205.621 295.699 205.71 295.182 205.71 294.58C205.71 293.992 205.623 293.475 205.449 293.028C205.275 292.581 205.019 292.233 204.682 291.983C204.345 291.729 203.928 291.602 203.432 291.602C202.921 291.602 202.494 291.735 202.154 292C201.813 292.261 201.555 292.617 201.381 293.068C201.21 293.519 201.125 294.023 201.125 294.58C201.125 295.152 201.212 295.653 201.387 296.085C201.561 296.517 201.818 296.854 202.159 297.097C202.504 297.339 202.928 297.46 203.432 297.46Z" fill="black" fill-opacity="0.8"/>
<path d="M120 159C120 158.172 119.328 157.5 118.5 157.5C117.672 157.5 117 158.172 117 159H120ZM117.439 188.061C118.025 188.646 118.975 188.646 119.561 188.061L129.107 178.515C129.692 177.929 129.692 176.979 129.107 176.393C128.521 175.808 127.571 175.808 126.985 176.393L118.5 184.879L110.015 176.393C109.429 175.808 108.479 175.808 107.893 176.393C107.308 176.979 107.308 177.929 107.893 178.515L117.439 188.061ZM117 159V187H120V159H117Z" fill="#B3B3B3"/>
<rect x="4" y="358" width="229" height="38" rx="3" stroke="#0C7264" stroke-width="4" stroke-linecap="round"/>
<path d="M31.3756 374.42C31.315 373.883 31.065 373.466 30.6256 373.17C30.1862 372.871 29.6331 372.722 28.9665 372.722C28.4892 372.722 28.0763 372.797 27.7278 372.949C27.3794 373.097 27.1085 373.301 26.9153 373.562C26.7259 373.82 26.6312 374.114 26.6312 374.443C26.6312 374.72 26.6956 374.958 26.8244 375.159C26.957 375.36 27.1294 375.528 27.3415 375.665C27.5574 375.797 27.7884 375.909 28.0347 376C28.2809 376.087 28.5176 376.159 28.7449 376.216L29.8812 376.511C30.2525 376.602 30.6331 376.725 31.0233 376.881C31.4134 377.036 31.7752 377.241 32.1085 377.494C32.4419 377.748 32.7108 378.062 32.9153 378.438C33.1237 378.812 33.2278 379.261 33.2278 379.784C33.2278 380.443 33.0574 381.028 32.7165 381.54C32.3794 382.051 31.8888 382.455 31.2449 382.75C30.6047 383.045 29.8301 383.193 28.921 383.193C28.0498 383.193 27.296 383.055 26.6597 382.778C26.0233 382.502 25.5252 382.11 25.1653 381.602C24.8055 381.091 24.6066 380.485 24.5687 379.784H26.3301C26.3642 380.205 26.5006 380.555 26.7392 380.835C26.9816 381.112 27.2903 381.318 27.6653 381.455C28.0441 381.587 28.4589 381.653 28.9097 381.653C29.4059 381.653 29.8472 381.576 30.2335 381.42C30.6237 381.261 30.9305 381.042 31.154 380.761C31.3775 380.477 31.4892 380.146 31.4892 379.767C31.4892 379.422 31.3907 379.14 31.1937 378.92C31.0006 378.701 30.7373 378.519 30.404 378.375C30.0744 378.231 29.7013 378.104 29.2847 377.994L27.9097 377.619C26.9778 377.366 26.2392 376.992 25.6937 376.5C25.1521 376.008 24.8812 375.356 24.8812 374.545C24.8812 373.875 25.0631 373.29 25.4267 372.79C25.7903 372.29 26.2828 371.902 26.904 371.625C27.5252 371.345 28.2259 371.205 29.0062 371.205C29.7941 371.205 30.4892 371.343 31.0915 371.619C31.6975 371.896 32.1748 372.277 32.5233 372.761C32.8718 373.242 33.0536 373.795 33.0687 374.42H31.3756ZM38.7748 383.176C37.915 383.176 37.1745 382.992 36.5533 382.625C35.9358 382.254 35.4586 381.733 35.1214 381.062C34.7881 380.388 34.6214 379.598 34.6214 378.693C34.6214 377.799 34.7881 377.011 35.1214 376.33C35.4586 375.648 35.9283 375.116 36.5305 374.733C37.1366 374.35 37.8449 374.159 38.6555 374.159C39.148 374.159 39.6252 374.241 40.0874 374.403C40.5495 374.566 40.9642 374.822 41.3317 375.17C41.6991 375.519 41.9889 375.972 42.201 376.528C42.4131 377.081 42.5192 377.754 42.5192 378.545V379.148H35.5817V377.875H40.8544C40.8544 377.428 40.7635 377.032 40.5817 376.688C40.3999 376.339 40.1442 376.064 39.8146 375.864C39.4889 375.663 39.1063 375.562 38.6669 375.562C38.1896 375.562 37.773 375.68 37.4169 375.915C37.0646 376.146 36.7919 376.449 36.5987 376.824C36.4093 377.195 36.3146 377.598 36.3146 378.034V379.028C36.3146 379.612 36.4169 380.108 36.6214 380.517C36.8298 380.926 37.1195 381.239 37.4908 381.455C37.862 381.667 38.2957 381.773 38.7919 381.773C39.1139 381.773 39.4074 381.727 39.6726 381.636C39.9377 381.542 40.1669 381.402 40.3601 381.216C40.5533 381.03 40.701 380.801 40.8033 380.528L42.4112 380.818C42.2824 381.292 42.0514 381.706 41.718 382.062C41.3885 382.415 40.9737 382.689 40.4737 382.886C39.9775 383.08 39.4112 383.176 38.7748 383.176ZM51.444 374.273L48.2792 383H46.4611L43.2906 374.273H45.1145L47.3247 380.989H47.4156L49.6202 374.273H51.444ZM56.3291 383.176C55.4693 383.176 54.7287 382.992 54.1075 382.625C53.4901 382.254 53.0128 381.733 52.6757 381.062C52.3424 380.388 52.1757 379.598 52.1757 378.693C52.1757 377.799 52.3424 377.011 52.6757 376.33C53.0128 375.648 53.4825 375.116 54.0848 374.733C54.6908 374.35 55.3992 374.159 56.2098 374.159C56.7022 374.159 57.1795 374.241 57.6416 374.403C58.1037 374.566 58.5185 374.822 58.8859 375.17C59.2533 375.519 59.5431 375.972 59.7552 376.528C59.9674 377.081 60.0734 377.754 60.0734 378.545V379.148H53.1359V377.875H58.4086C58.4086 377.428 58.3177 377.032 58.1359 376.688C57.9541 376.339 57.6984 376.064 57.3689 375.864C57.0431 375.663 56.6605 375.562 56.2211 375.562C55.7439 375.562 55.3272 375.68 54.9711 375.915C54.6189 376.146 54.3461 376.449 54.153 376.824C53.9636 377.195 53.8689 377.598 53.8689 378.034V379.028C53.8689 379.612 53.9711 380.108 54.1757 380.517C54.384 380.926 54.6738 381.239 55.045 381.455C55.4162 381.667 55.8499 381.773 56.3461 381.773C56.6681 381.773 56.9617 381.727 57.2268 381.636C57.492 381.542 57.7211 381.402 57.9143 381.216C58.1075 381.03 58.2552 380.801 58.3575 380.528L59.9655 380.818C59.8367 381.292 59.6056 381.706 59.2723 382.062C58.9427 382.415 58.528 382.689 58.028 382.886C57.5318 383.08 56.9655 383.176 56.3291 383.176ZM61.7824 383V374.273H63.4244V375.659H63.5153C63.6744 375.189 63.9547 374.82 64.3562 374.551C64.7615 374.278 65.2199 374.142 65.7312 374.142C65.8373 374.142 65.9623 374.146 66.1062 374.153C66.254 374.161 66.3695 374.17 66.4528 374.182V375.807C66.3846 375.788 66.2634 375.767 66.0892 375.744C65.9149 375.718 65.7407 375.705 65.5665 375.705C65.1649 375.705 64.807 375.79 64.4926 375.96C64.182 376.127 63.9358 376.36 63.754 376.659C63.5721 376.955 63.4812 377.292 63.4812 377.67V383H61.7824ZM67.747 383V374.273H69.4458V383H67.747ZM68.6049 372.926C68.3095 372.926 68.0557 372.828 67.8436 372.631C67.6352 372.43 67.5311 372.191 67.5311 371.915C67.5311 371.634 67.6352 371.396 67.8436 371.199C68.0557 370.998 68.3095 370.898 68.6049 370.898C68.9004 370.898 69.1523 370.998 69.3606 371.199C69.5727 371.396 69.6788 371.634 69.6788 371.915C69.6788 372.191 69.5727 372.43 69.3606 372.631C69.1523 372.828 68.9004 372.926 68.6049 372.926ZM75.6292 374.273V375.636H70.8622V374.273H75.6292ZM72.1406 372.182H73.8395V380.438C73.8395 380.767 73.8887 381.015 73.9872 381.182C74.0857 381.345 74.2126 381.456 74.3679 381.517C74.527 381.574 74.6993 381.602 74.8849 381.602C75.0213 381.602 75.1406 381.593 75.2429 381.574C75.3451 381.555 75.4247 381.54 75.4815 381.528L75.7883 382.932C75.6898 382.97 75.5497 383.008 75.3679 383.045C75.186 383.087 74.9588 383.11 74.686 383.114C74.2391 383.121 73.8224 383.042 73.436 382.875C73.0497 382.708 72.7372 382.451 72.4985 382.102C72.2599 381.754 72.1406 381.316 72.1406 380.79V372.182ZM78.4064 386.273C78.1526 386.273 77.9215 386.252 77.7132 386.21C77.5048 386.172 77.3495 386.131 77.2473 386.085L77.6564 384.693C77.967 384.777 78.2435 384.813 78.4859 384.801C78.7283 384.79 78.9423 384.699 79.1279 384.528C79.3173 384.358 79.484 384.08 79.6279 383.693L79.8382 383.114L76.645 374.273H78.4632L80.6734 381.045H80.7643L82.9745 374.273H84.7984L81.2018 384.165C81.0351 384.619 80.823 385.004 80.5654 385.318C80.3079 385.636 80.0011 385.875 79.645 386.034C79.2889 386.193 78.8761 386.273 78.4064 386.273ZM89.8399 372.875V371.364H98.8455V372.875H95.2149V383H93.4649V372.875H89.8399ZM103.019 383.176C102.159 383.176 101.419 382.992 100.797 382.625C100.18 382.254 99.7027 381.733 99.3656 381.062C99.0322 380.388 98.8656 379.598 98.8656 378.693C98.8656 377.799 99.0322 377.011 99.3656 376.33C99.7027 375.648 100.172 375.116 100.775 374.733C101.381 374.35 102.089 374.159 102.9 374.159C103.392 374.159 103.869 374.241 104.331 374.403C104.794 374.566 105.208 374.822 105.576 375.17C105.943 375.519 106.233 375.972 106.445 376.528C106.657 377.081 106.763 377.754 106.763 378.545V379.148H99.8258V377.875H105.099C105.099 377.428 105.008 377.032 104.826 376.688C104.644 376.339 104.388 376.064 104.059 375.864C103.733 375.663 103.35 375.562 102.911 375.562C102.434 375.562 102.017 375.68 101.661 375.915C101.309 376.146 101.036 376.449 100.843 376.824C100.653 377.195 100.559 377.598 100.559 378.034V379.028C100.559 379.612 100.661 380.108 100.866 380.517C101.074 380.926 101.364 381.239 101.735 381.455C102.106 381.667 102.54 381.773 103.036 381.773C103.358 381.773 103.652 381.727 103.917 381.636C104.182 381.542 104.411 381.402 104.604 381.216C104.797 381.03 104.945 380.801 105.047 380.528L106.655 380.818C106.527 381.292 106.295 381.706 105.962 382.062C105.633 382.415 105.218 382.689 104.718 382.886C104.222 383.08 103.655 383.176 103.019 383.176ZM111.012 383.193C110.459 383.193 109.959 383.091 109.512 382.886C109.065 382.678 108.711 382.377 108.45 381.983C108.192 381.589 108.063 381.106 108.063 380.534C108.063 380.042 108.158 379.636 108.347 379.318C108.537 379 108.792 378.748 109.114 378.562C109.436 378.377 109.796 378.237 110.194 378.142C110.592 378.047 110.997 377.975 111.41 377.926C111.932 377.866 112.357 377.816 112.682 377.778C113.008 377.737 113.245 377.67 113.393 377.58C113.54 377.489 113.614 377.341 113.614 377.136V377.097C113.614 376.6 113.474 376.216 113.194 375.943C112.917 375.67 112.504 375.534 111.955 375.534C111.383 375.534 110.932 375.661 110.603 375.915C110.277 376.165 110.052 376.443 109.927 376.75L108.33 376.386C108.52 375.856 108.796 375.428 109.16 375.102C109.527 374.773 109.95 374.534 110.427 374.386C110.904 374.235 111.406 374.159 111.932 374.159C112.281 374.159 112.65 374.201 113.04 374.284C113.434 374.364 113.802 374.511 114.143 374.727C114.487 374.943 114.77 375.252 114.989 375.653C115.209 376.051 115.319 376.568 115.319 377.205V383H113.66V381.807H113.592C113.482 382.027 113.317 382.242 113.097 382.455C112.878 382.667 112.595 382.843 112.251 382.983C111.906 383.123 111.493 383.193 111.012 383.193ZM111.381 381.83C111.851 381.83 112.253 381.737 112.586 381.551C112.923 381.366 113.179 381.123 113.353 380.824C113.531 380.521 113.62 380.197 113.62 379.852V378.727C113.559 378.788 113.442 378.845 113.268 378.898C113.097 378.947 112.902 378.991 112.682 379.028C112.463 379.062 112.249 379.095 112.04 379.125C111.832 379.152 111.658 379.174 111.518 379.193C111.188 379.235 110.887 379.305 110.614 379.403C110.345 379.502 110.129 379.644 109.967 379.83C109.807 380.011 109.728 380.254 109.728 380.557C109.728 380.977 109.883 381.295 110.194 381.511C110.504 381.723 110.9 381.83 111.381 381.83ZM117.406 383V374.273H119.036V375.693H119.144C119.326 375.212 119.623 374.837 120.036 374.568C120.449 374.295 120.943 374.159 121.519 374.159C122.103 374.159 122.591 374.295 122.985 374.568C123.383 374.841 123.676 375.216 123.866 375.693H123.957C124.165 375.227 124.497 374.856 124.951 374.58C125.406 374.299 125.947 374.159 126.576 374.159C127.368 374.159 128.014 374.407 128.514 374.903C129.017 375.4 129.269 376.148 129.269 377.148V383H127.57V377.307C127.57 376.716 127.409 376.288 127.087 376.023C126.765 375.758 126.381 375.625 125.934 375.625C125.381 375.625 124.951 375.795 124.644 376.136C124.337 376.473 124.184 376.907 124.184 377.438V383H122.491V377.199C122.491 376.725 122.343 376.345 122.048 376.057C121.752 375.769 121.368 375.625 120.894 375.625C120.572 375.625 120.275 375.71 120.002 375.881C119.733 376.047 119.515 376.28 119.349 376.58C119.186 376.879 119.104 377.225 119.104 377.619V383H117.406ZM139.582 374.273V375.636H134.65V374.273H139.582ZM136.002 383V373.261C136.002 372.716 136.122 372.263 136.36 371.903C136.599 371.54 136.915 371.269 137.309 371.091C137.703 370.909 138.131 370.818 138.593 370.818C138.934 370.818 139.226 370.847 139.468 370.903C139.711 370.956 139.891 371.006 140.008 371.051L139.61 372.426C139.531 372.403 139.429 372.377 139.304 372.347C139.179 372.312 139.027 372.295 138.849 372.295C138.436 372.295 138.141 372.398 137.963 372.602C137.788 372.807 137.701 373.102 137.701 373.489V383H136.002ZM144.491 383.176C143.673 383.176 142.959 382.989 142.349 382.614C141.739 382.239 141.266 381.714 140.929 381.04C140.592 380.366 140.423 379.578 140.423 378.676C140.423 377.771 140.592 376.979 140.929 376.301C141.266 375.623 141.739 375.097 142.349 374.722C142.959 374.347 143.673 374.159 144.491 374.159C145.309 374.159 146.023 374.347 146.633 374.722C147.243 375.097 147.717 375.623 148.054 376.301C148.391 376.979 148.559 377.771 148.559 378.676C148.559 379.578 148.391 380.366 148.054 381.04C147.717 381.714 147.243 382.239 146.633 382.614C146.023 382.989 145.309 383.176 144.491 383.176ZM144.497 381.75C145.027 381.75 145.467 381.61 145.815 381.33C146.164 381.049 146.421 380.676 146.588 380.21C146.758 379.744 146.844 379.231 146.844 378.67C146.844 378.114 146.758 377.602 146.588 377.136C146.421 376.667 146.164 376.29 145.815 376.006C145.467 375.722 145.027 375.58 144.497 375.58C143.963 375.58 143.52 375.722 143.167 376.006C142.819 376.29 142.559 376.667 142.389 377.136C142.222 377.602 142.139 378.114 142.139 378.67C142.139 379.231 142.222 379.744 142.389 380.21C142.559 380.676 142.819 381.049 143.167 381.33C143.52 381.61 143.963 381.75 144.497 381.75ZM150.28 383V374.273H151.922V375.659H152.013C152.172 375.189 152.452 374.82 152.854 374.551C153.259 374.278 153.717 374.142 154.229 374.142C154.335 374.142 154.46 374.146 154.604 374.153C154.751 374.161 154.867 374.17 154.95 374.182V375.807C154.882 375.788 154.761 375.767 154.587 375.744C154.412 375.718 154.238 375.705 154.064 375.705C153.662 375.705 153.304 375.79 152.99 375.96C152.679 376.127 152.433 376.36 152.251 376.659C152.07 376.955 151.979 377.292 151.979 377.67V383H150.28ZM160.439 383V371.364H164.587C165.488 371.364 166.236 371.519 166.831 371.83C167.43 372.14 167.877 372.57 168.172 373.119C168.468 373.665 168.615 374.295 168.615 375.011C168.615 375.723 168.466 376.35 168.166 376.892C167.871 377.43 167.424 377.848 166.825 378.148C166.231 378.447 165.483 378.597 164.581 378.597H161.439V377.085H164.422C164.99 377.085 165.452 377.004 165.808 376.841C166.168 376.678 166.432 376.441 166.598 376.131C166.765 375.82 166.848 375.447 166.848 375.011C166.848 374.572 166.763 374.191 166.593 373.869C166.426 373.547 166.163 373.301 165.803 373.131C165.447 372.956 164.979 372.869 164.399 372.869H162.195V383H160.439ZM166.183 377.75L169.058 383H167.058L164.24 377.75H166.183ZM174.091 383.176C173.231 383.176 172.491 382.992 171.87 382.625C171.252 382.254 170.775 381.733 170.438 381.062C170.104 380.388 169.938 379.598 169.938 378.693C169.938 377.799 170.104 377.011 170.438 376.33C170.775 375.648 171.245 375.116 171.847 374.733C172.453 374.35 173.161 374.159 173.972 374.159C174.464 374.159 174.942 374.241 175.404 374.403C175.866 374.566 176.281 374.822 176.648 375.17C177.015 375.519 177.305 375.972 177.517 376.528C177.729 377.081 177.836 377.754 177.836 378.545V379.148H170.898V377.875H176.171C176.171 377.428 176.08 377.032 175.898 376.688C175.716 376.339 175.461 376.064 175.131 375.864C174.805 375.663 174.423 375.562 173.983 375.562C173.506 375.562 173.089 375.68 172.733 375.915C172.381 376.146 172.108 376.449 171.915 376.824C171.726 377.195 171.631 377.598 171.631 378.034V379.028C171.631 379.612 171.733 380.108 171.938 380.517C172.146 380.926 172.436 381.239 172.807 381.455C173.178 381.667 173.612 381.773 174.108 381.773C174.43 381.773 174.724 381.727 174.989 381.636C175.254 381.542 175.483 381.402 175.676 381.216C175.87 381.03 176.017 380.801 176.12 380.528L177.728 380.818C177.599 381.292 177.368 381.706 177.034 382.062C176.705 382.415 176.29 382.689 175.79 382.886C175.294 383.08 174.728 383.176 174.091 383.176ZM186.76 374.273L183.596 383H181.777L178.607 374.273H180.431L182.641 380.989H182.732L184.937 374.273H186.76ZM188.181 383V374.273H189.88V383H188.181ZM189.039 372.926C188.743 372.926 188.49 372.828 188.278 372.631C188.069 372.43 187.965 372.191 187.965 371.915C187.965 371.634 188.069 371.396 188.278 371.199C188.49 370.998 188.743 370.898 189.039 370.898C189.334 370.898 189.586 370.998 189.795 371.199C190.007 371.396 190.113 371.634 190.113 371.915C190.113 372.191 190.007 372.43 189.795 372.631C189.586 372.828 189.334 372.926 189.039 372.926ZM195.751 383.176C194.891 383.176 194.15 382.992 193.529 382.625C192.912 382.254 192.434 381.733 192.097 381.062C191.764 380.388 191.597 379.598 191.597 378.693C191.597 377.799 191.764 377.011 192.097 376.33C192.434 375.648 192.904 375.116 193.506 374.733C194.112 374.35 194.821 374.159 195.631 374.159C196.124 374.159 196.601 374.241 197.063 374.403C197.525 374.566 197.94 374.822 198.308 375.17C198.675 375.519 198.965 375.972 199.177 376.528C199.389 377.081 199.495 377.754 199.495 378.545V379.148H192.558V377.875H197.83C197.83 377.428 197.739 377.032 197.558 376.688C197.376 376.339 197.12 376.064 196.791 375.864C196.465 375.663 196.082 375.562 195.643 375.562C195.166 375.562 194.749 375.68 194.393 375.915C194.041 376.146 193.768 376.449 193.575 376.824C193.385 377.195 193.291 377.598 193.291 378.034V379.028C193.291 379.612 193.393 380.108 193.597 380.517C193.806 380.926 194.095 381.239 194.467 381.455C194.838 381.667 195.272 381.773 195.768 381.773C196.09 381.773 196.383 381.727 196.648 381.636C196.914 381.542 197.143 381.402 197.336 381.216C197.529 381.03 197.677 380.801 197.779 380.528L199.387 380.818C199.258 381.292 199.027 381.706 198.694 382.062C198.364 382.415 197.95 382.689 197.45 382.886C196.953 383.08 196.387 383.176 195.751 383.176ZM203.08 383L200.512 374.273H202.268L203.978 380.682H204.063L205.779 374.273H207.535L209.239 380.653H209.325L211.024 374.273H212.779L210.217 383H208.484L206.711 376.699H206.58L204.808 383H203.08Z" fill="black" fill-opacity="0.8"/>
<path d="M118.382 46C118.382 45.1716 117.71 44.5 116.882 44.5C116.053 44.5 115.382 45.1716 115.382 46H118.382ZM115.821 82.5084C116.407 83.0942 117.357 83.0942 117.942 82.5084L127.488 72.9624C128.074 72.3766 128.074 71.4269 127.488 70.8411C126.903 70.2553 125.953 70.2553 125.367 70.8411L116.882 79.3264L108.397 70.8411C107.811 70.2553 106.861 70.2553 106.275 70.8411C105.689 71.4269 105.689 72.3766 106.275 72.9624L115.821 82.5084ZM115.382 46V81.4477H118.382V46H115.382Z" fill="#B3B3B3"/>
<path d="M120 237C120 236.172 119.328 235.5 118.5 235.5C117.672 235.5 117 236.172 117 237H120ZM117.439 269.061C118.025 269.646 118.975 269.646 119.561 269.061L129.107 259.515C129.692 258.929 129.692 257.979 129.107 257.393C128.521 256.808 127.571 256.808 126.985 257.393L118.5 265.879L110.015 257.393C109.429 256.808 108.479 256.808 107.893 257.393C107.308 257.979 107.308 258.929 107.893 259.515L117.439 269.061ZM117 237V268H120V237H117Z" fill="#B3B3B3"/>
<path d="M120 318C120 317.172 119.328 316.5 118.5 316.5C117.672 316.5 117 317.172 117 318H120ZM117.439 353.061C118.025 353.646 118.975 353.646 119.561 353.061L129.107 343.515C129.692 342.929 129.692 341.979 129.107 341.393C128.521 340.808 127.571 340.808 126.985 341.393L118.5 349.879L110.015 341.393C109.429 340.808 108.479 340.808 107.893 341.393C107.308 341.979 107.308 342.929 107.893 343.515L117.439 353.061ZM117 318V352H120V318H117Z" fill="#B3B3B3"/>
</svg>
