<svg width="245" height="493" viewBox="0 0 245 493" fill="none" xmlns="http://www.w3.org/2000/svg">
<rect x="3" y="75" width="229" height="38" rx="3" stroke="#0C7264" stroke-width="4" stroke-linecap="round"/>
<path d="M31.2193 91.4205C31.1587 90.8826 30.9087 90.4659 30.4693 90.1705C30.0299 89.8712 29.4769 89.7216 28.8102 89.7216C28.333 89.7216 27.9201 89.7973 27.5716 89.9489C27.2231 90.0966 26.9523 90.3011 26.7591 90.5625C26.5697 90.8201 26.475 91.1136 26.475 91.4432C26.475 91.7197 26.5394 91.9583 26.6682 92.1591C26.8008 92.3598 26.9731 92.5284 27.1852 92.6648C27.4011 92.7973 27.6322 92.9091 27.8784 93C28.1246 93.0871 28.3614 93.1591 28.5886 93.2159L29.725 93.5114C30.0962 93.6023 30.4769 93.7254 30.867 93.8807C31.2572 94.036 31.6189 94.2405 31.9523 94.4943C32.2856 94.7481 32.5545 95.0625 32.7591 95.4375C32.9674 95.8125 33.0716 96.2614 33.0716 96.7841C33.0716 97.4432 32.9011 98.0284 32.5602 98.5398C32.2231 99.0511 31.7326 99.4545 31.0886 99.75C30.4485 100.045 29.6739 100.193 28.7648 100.193C27.8936 100.193 27.1398 100.055 26.5034 99.7784C25.867 99.5019 25.3689 99.1098 25.0091 98.6023C24.6492 98.0909 24.4504 97.4848 24.4125 96.7841H26.1739C26.208 97.2045 26.3443 97.5549 26.583 97.8352C26.8254 98.1117 27.1341 98.3182 27.5091 98.4545C27.8879 98.5871 28.3026 98.6534 28.7534 98.6534C29.2496 98.6534 29.6909 98.5758 30.0773 98.4205C30.4674 98.2614 30.7742 98.0417 30.9977 97.7614C31.2212 97.4773 31.333 97.1458 31.333 96.767C31.333 96.4223 31.2345 96.1402 31.0375 95.9205C30.8443 95.7008 30.5811 95.5189 30.2477 95.375C29.9182 95.2311 29.5451 95.1042 29.1284 94.9943L27.7534 94.6193C26.8216 94.3655 26.083 93.9924 25.5375 93.5C24.9958 93.0076 24.725 92.3561 24.725 91.5455C24.725 90.875 24.9068 90.2898 25.2705 89.7898C25.6341 89.2898 26.1265 88.9015 26.7477 88.625C27.3689 88.3447 28.0697 88.2045 28.85 88.2045C29.6379 88.2045 30.333 88.3428 30.9352 88.6193C31.5413 88.8958 32.0186 89.2765 32.367 89.7614C32.7155 90.2424 32.8973 90.7955 32.9125 91.4205H31.2193ZM38.5334 100.176C37.6887 100.176 36.9614 99.9848 36.3516 99.6023C35.7455 99.2159 35.2796 98.6837 34.9538 98.0057C34.6281 97.3277 34.4652 96.5511 34.4652 95.6761C34.4652 94.7898 34.6319 94.0076 34.9652 93.3295C35.2985 92.6477 35.7682 92.1155 36.3743 91.733C36.9803 91.3504 37.6944 91.1591 38.5163 91.1591C39.1792 91.1591 39.7701 91.2822 40.2891 91.5284C40.808 91.7708 41.2266 92.1117 41.5447 92.5511C41.8667 92.9905 42.058 93.5038 42.1186 94.0909H40.4652C40.3743 93.6818 40.1659 93.3295 39.8402 93.0341C39.5182 92.7386 39.0864 92.5909 38.5447 92.5909C38.0713 92.5909 37.6565 92.7159 37.3004 92.9659C36.9481 93.2121 36.6735 93.5644 36.4766 94.0227C36.2796 94.4773 36.1811 95.0152 36.1811 95.6364C36.1811 96.2727 36.2777 96.822 36.4709 97.2841C36.6641 97.7462 36.9368 98.1042 37.2891 98.358C37.6451 98.6117 38.0637 98.7386 38.5447 98.7386C38.8667 98.7386 39.1584 98.6799 39.4197 98.5625C39.6849 98.4413 39.9065 98.2689 40.0845 98.0455C40.2663 97.822 40.3932 97.553 40.4652 97.2386H42.1186C42.058 97.803 41.8743 98.3068 41.5675 98.75C41.2606 99.1932 40.8497 99.5417 40.3345 99.7955C39.8231 100.049 39.2228 100.176 38.5334 100.176ZM46.2991 100.193C45.7461 100.193 45.2461 100.091 44.7991 99.8864C44.3522 99.678 43.998 99.3769 43.7366 98.983C43.4791 98.589 43.3503 98.1061 43.3503 97.5341C43.3503 97.0417 43.445 96.6364 43.6344 96.3182C43.8238 96 44.0794 95.7481 44.4014 95.5625C44.7234 95.3769 45.0832 95.2367 45.481 95.142C45.8787 95.0473 46.284 94.9754 46.6969 94.9261C47.2196 94.8655 47.6438 94.8163 47.9696 94.7784C48.2953 94.7367 48.5321 94.6705 48.6798 94.5795C48.8275 94.4886 48.9014 94.3409 48.9014 94.1364V94.0966C48.9014 93.6004 48.7613 93.2159 48.481 92.9432C48.2044 92.6705 47.7916 92.5341 47.2423 92.5341C46.6703 92.5341 46.2196 92.661 45.89 92.9148C45.5643 93.1648 45.3389 93.4432 45.2139 93.75L43.6173 93.3864C43.8067 92.8561 44.0832 92.428 44.4469 92.1023C44.8143 91.7727 45.2366 91.5341 45.7139 91.3864C46.1912 91.2348 46.6931 91.1591 47.2196 91.1591C47.5681 91.1591 47.9374 91.2008 48.3275 91.2841C48.7215 91.3636 49.0889 91.5114 49.4298 91.7273C49.7745 91.9432 50.0567 92.2519 50.2764 92.6534C50.4961 93.0511 50.606 93.5682 50.606 94.2045V100H48.9469V98.8068H48.8787C48.7688 99.0265 48.6041 99.2424 48.3844 99.4545C48.1647 99.6667 47.8825 99.8428 47.5378 99.983C47.1931 100.123 46.7802 100.193 46.2991 100.193ZM46.6685 98.8295C47.1381 98.8295 47.5397 98.7367 47.873 98.5511C48.2101 98.3655 48.4658 98.1231 48.64 97.8239C48.8181 97.5208 48.9071 97.197 48.9071 96.8523V95.7273C48.8465 95.7879 48.7291 95.8447 48.5548 95.8977C48.3844 95.947 48.1893 95.9905 47.9696 96.0284C47.7499 96.0625 47.5359 96.0947 47.3275 96.125C47.1192 96.1515 46.945 96.1742 46.8048 96.1932C46.4753 96.2348 46.1741 96.3049 45.9014 96.4034C45.6325 96.5019 45.4166 96.6439 45.2537 96.8295C45.0946 97.0114 45.015 97.2538 45.015 97.5568C45.015 97.9773 45.1703 98.2955 45.481 98.5114C45.7916 98.7235 46.1874 98.8295 46.6685 98.8295ZM54.3916 94.8182V100H52.6927V91.2727H54.3234V92.6932H54.4314C54.6321 92.2311 54.9465 91.8598 55.3746 91.5795C55.8064 91.2992 56.3499 91.1591 57.0052 91.1591C57.5999 91.1591 58.1208 91.2841 58.5677 91.5341C59.0147 91.7803 59.3613 92.1477 59.6075 92.6364C59.8537 93.125 59.9768 93.7292 59.9768 94.4489V100H58.278V94.6534C58.278 94.0208 58.1132 93.5265 57.7836 93.1705C57.4541 92.8106 57.0014 92.6307 56.4257 92.6307C56.0318 92.6307 55.6814 92.7159 55.3746 92.8864C55.0715 93.0568 54.831 93.3068 54.653 93.6364C54.4787 93.9621 54.3916 94.3561 54.3916 94.8182ZM66.274 100V88.3636H73.4899V89.875H68.0297V93.4205H72.9728V94.9261H68.0297V100H66.274ZM77.8451 100.193C77.2921 100.193 76.7921 100.091 76.3451 99.8864C75.8982 99.678 75.544 99.3769 75.2826 98.983C75.0251 98.589 74.8963 98.1061 74.8963 97.5341C74.8963 97.0417 74.991 96.6364 75.1804 96.3182C75.3698 96 75.6254 95.7481 75.9474 95.5625C76.2694 95.3769 76.6292 95.2367 77.027 95.142C77.4247 95.0473 77.83 94.9754 78.2429 94.9261C78.7656 94.8655 79.1898 94.8163 79.5156 94.7784C79.8413 94.7367 80.0781 94.6705 80.2258 94.5795C80.3735 94.4886 80.4474 94.3409 80.4474 94.1364V94.0966C80.4474 93.6004 80.3073 93.2159 80.027 92.9432C79.7504 92.6705 79.3376 92.5341 78.7883 92.5341C78.2163 92.5341 77.7656 92.661 77.436 92.9148C77.1103 93.1648 76.8849 93.4432 76.7599 93.75L75.1633 93.3864C75.3527 92.8561 75.6292 92.428 75.9929 92.1023C76.3603 91.7727 76.7826 91.5341 77.2599 91.3864C77.7372 91.2348 78.2391 91.1591 78.7656 91.1591C79.1141 91.1591 79.4834 91.2008 79.8735 91.2841C80.2675 91.3636 80.6349 91.5114 80.9758 91.7273C81.3205 91.9432 81.6027 92.2519 81.8224 92.6534C82.0421 93.0511 82.152 93.5682 82.152 94.2045V100H80.4929V98.8068H80.4247C80.3148 99.0265 80.1501 99.2424 79.9304 99.4545C79.7107 99.6667 79.4285 99.8428 79.0838 99.983C78.7391 100.123 78.3262 100.193 77.8451 100.193ZM78.2145 98.8295C78.6841 98.8295 79.0857 98.7367 79.419 98.5511C79.7561 98.3655 80.0118 98.1231 80.186 97.8239C80.3641 97.5208 80.4531 97.197 80.4531 96.8523V95.7273C80.3925 95.7879 80.2751 95.8447 80.1008 95.8977C79.9304 95.947 79.7353 95.9905 79.5156 96.0284C79.2959 96.0625 79.0819 96.0947 78.8735 96.125C78.6652 96.1515 78.491 96.1742 78.3508 96.1932C78.0213 96.2348 77.7201 96.3049 77.4474 96.4034C77.1785 96.5019 76.9626 96.6439 76.7997 96.8295C76.6406 97.0114 76.561 97.2538 76.561 97.5568C76.561 97.9773 76.7163 98.2955 77.027 98.5114C77.3376 98.7235 77.7334 98.8295 78.2145 98.8295ZM90.7785 93.4034L89.2387 93.6761C89.1743 93.4792 89.0721 93.2917 88.9319 93.1136C88.7956 92.9356 88.61 92.7898 88.3751 92.6761C88.1403 92.5625 87.8467 92.5057 87.4944 92.5057C87.0134 92.5057 86.6118 92.6136 86.2899 92.8295C85.9679 93.0417 85.8069 93.3163 85.8069 93.6534C85.8069 93.9451 85.9149 94.1799 86.1308 94.358C86.3467 94.536 86.6952 94.6818 87.1762 94.7955L88.5626 95.1136C89.3656 95.2992 89.9641 95.5852 90.3581 95.9716C90.752 96.358 90.949 96.8598 90.949 97.4773C90.949 98 90.7975 98.4659 90.4944 98.875C90.1952 99.2803 89.7766 99.5985 89.2387 99.8295C88.7046 100.061 88.0853 100.176 87.3808 100.176C86.4035 100.176 85.6062 99.9678 84.9887 99.5511C84.3713 99.1307 83.9925 98.5341 83.8524 97.7614L85.4944 97.5114C85.5967 97.9394 85.8069 98.2633 86.1251 98.483C86.4433 98.6989 86.8581 98.8068 87.3694 98.8068C87.9262 98.8068 88.3713 98.6913 88.7046 98.4602C89.038 98.2254 89.2046 97.9394 89.2046 97.6023C89.2046 97.3295 89.1024 97.1004 88.8978 96.9148C88.6971 96.7292 88.3884 96.589 87.9717 96.4943L86.4944 96.1705C85.68 95.9848 85.0778 95.6894 84.6876 95.2841C84.3012 94.8788 84.1081 94.3655 84.1081 93.7443C84.1081 93.2292 84.252 92.7784 84.5399 92.392C84.8278 92.0057 85.2255 91.7045 85.7331 91.4886C86.2406 91.2689 86.8221 91.1591 87.4774 91.1591C88.4206 91.1591 89.163 91.3636 89.7046 91.7727C90.2463 92.178 90.6043 92.7216 90.7785 93.4034ZM96.7147 91.2727V92.6364H91.9477V91.2727H96.7147ZM93.2261 89.1818H94.925V97.4375C94.925 97.767 94.9742 98.0152 95.0727 98.1818C95.1712 98.3447 95.2981 98.4564 95.4534 98.517C95.6125 98.5739 95.7848 98.6023 95.9704 98.6023C96.1068 98.6023 96.2261 98.5928 96.3284 98.5739C96.4306 98.5549 96.5102 98.5398 96.567 98.5284L96.8738 99.9318C96.7753 99.9697 96.6352 100.008 96.4534 100.045C96.2715 100.087 96.0443 100.11 95.7715 100.114C95.3246 100.121 94.9079 100.042 94.5215 99.875C94.1352 99.7083 93.8227 99.4508 93.584 99.1023C93.3454 98.7538 93.2261 98.3163 93.2261 97.7898V89.1818ZM99.5373 100H97.6737L101.861 88.3636H103.89L108.077 100H106.213L102.924 90.4773H102.833L99.5373 100ZM99.8498 95.4432H105.895V96.9205H99.8498V95.4432ZM109.581 100V88.3636H113.729C114.635 88.3636 115.385 88.5284 115.979 88.858C116.574 89.1875 117.019 89.6383 117.314 90.2102C117.61 90.7784 117.758 91.4186 117.758 92.1307C117.758 92.8466 117.608 93.4905 117.309 94.0625C117.013 94.6307 116.566 95.0814 115.968 95.4148C115.373 95.7443 114.625 95.9091 113.724 95.9091H110.871V94.4205H113.564C114.136 94.4205 114.6 94.322 114.956 94.125C115.313 93.9242 115.574 93.6515 115.741 93.3068C115.907 92.9621 115.991 92.5701 115.991 92.1307C115.991 91.6913 115.907 91.3011 115.741 90.9602C115.574 90.6193 115.311 90.3523 114.951 90.1591C114.595 89.9659 114.125 89.8693 113.542 89.8693H111.337V100H109.581ZM121.396 88.3636V100H119.64V88.3636H121.396ZM128.818 100H126.954L131.142 88.3636H133.17L137.357 100H135.494L132.204 90.4773H132.113L128.818 100ZM129.13 95.4432H135.176V96.9205H129.13V95.4432ZM138.862 100V88.3636H143.01C143.915 88.3636 144.665 88.5284 145.26 88.858C145.854 89.1875 146.299 89.6383 146.595 90.2102C146.89 90.7784 147.038 91.4186 147.038 92.1307C147.038 92.8466 146.888 93.4905 146.589 94.0625C146.294 94.6307 145.847 95.0814 145.248 95.4148C144.654 95.7443 143.905 95.9091 143.004 95.9091H140.152V94.4205H142.845C143.417 94.4205 143.881 94.322 144.237 94.125C144.593 93.9242 144.854 93.6515 145.021 93.3068C145.188 92.9621 145.271 92.5701 145.271 92.1307C145.271 91.6913 145.188 91.3011 145.021 90.9602C144.854 90.6193 144.591 90.3523 144.231 90.1591C143.875 89.9659 143.405 89.8693 142.822 89.8693H140.618V100H138.862ZM148.784 103.273V91.2727H150.443V92.6875H150.585C150.683 92.5057 150.826 92.2955 151.011 92.0568C151.197 91.8182 151.454 91.6098 151.784 91.4318C152.113 91.25 152.549 91.1591 153.091 91.1591C153.795 91.1591 154.424 91.3371 154.977 91.6932C155.53 92.0492 155.964 92.5625 156.278 93.233C156.596 93.9034 156.755 94.7102 156.755 95.6534C156.755 96.5966 156.598 97.4053 156.284 98.0795C155.969 98.75 155.538 99.267 154.988 99.6307C154.439 99.9905 153.812 100.17 153.108 100.17C152.577 100.17 152.144 100.081 151.807 99.9034C151.473 99.7254 151.212 99.517 151.022 99.2784C150.833 99.0398 150.687 98.8277 150.585 98.642H150.483V103.273H148.784ZM150.449 95.6364C150.449 96.25 150.538 96.7879 150.716 97.25C150.894 97.7121 151.151 98.0739 151.488 98.3352C151.826 98.5928 152.238 98.7216 152.727 98.7216C153.235 98.7216 153.659 98.5871 154 98.3182C154.341 98.0455 154.598 97.6761 154.772 97.2102C154.951 96.7443 155.04 96.2197 155.04 95.6364C155.04 95.0606 154.952 94.5436 154.778 94.0852C154.608 93.6269 154.35 93.2652 154.005 93C153.665 92.7348 153.238 92.6023 152.727 92.6023C152.235 92.6023 151.818 92.7292 151.477 92.983C151.14 93.2367 150.884 93.5909 150.71 94.0455C150.536 94.5 150.449 95.0303 150.449 95.6364ZM160.182 88.3636V100H158.483V88.3636H160.182ZM162.291 100V91.2727H163.99V100H162.291ZM163.149 89.9261C162.854 89.9261 162.6 89.8277 162.388 89.6307C162.179 89.4299 162.075 89.1913 162.075 88.9148C162.075 88.6345 162.179 88.3958 162.388 88.1989C162.6 87.9981 162.854 87.8977 163.149 87.8977C163.445 87.8977 163.697 87.9981 163.905 88.1989C164.117 88.3958 164.223 88.6345 164.223 88.9148C164.223 89.1913 164.117 89.4299 163.905 89.6307C163.697 89.8277 163.445 89.9261 163.149 89.9261ZM169.776 100.176C168.931 100.176 168.204 99.9848 167.594 99.6023C166.988 99.2159 166.522 98.6837 166.196 98.0057C165.87 97.3277 165.708 96.5511 165.708 95.6761C165.708 94.7898 165.874 94.0076 166.208 93.3295C166.541 92.6477 167.011 92.1155 167.617 91.733C168.223 91.3504 168.937 91.1591 169.759 91.1591C170.422 91.1591 171.012 91.2822 171.531 91.5284C172.05 91.7708 172.469 92.1117 172.787 92.5511C173.109 92.9905 173.3 93.5038 173.361 94.0909H171.708C171.617 93.6818 171.408 93.3295 171.083 93.0341C170.761 92.7386 170.329 92.5909 169.787 92.5909C169.314 92.5909 168.899 92.7159 168.543 92.9659C168.191 93.2121 167.916 93.5644 167.719 94.0227C167.522 94.4773 167.423 95.0152 167.423 95.6364C167.423 96.2727 167.52 96.822 167.713 97.2841C167.906 97.7462 168.179 98.1042 168.531 98.358C168.887 98.6117 169.306 98.7386 169.787 98.7386C170.109 98.7386 170.401 98.6799 170.662 98.5625C170.927 98.4413 171.149 98.2689 171.327 98.0455C171.509 97.822 171.636 97.553 171.708 97.2386H173.361C173.3 97.803 173.117 98.3068 172.81 98.75C172.503 99.1932 172.092 99.5417 171.577 99.7955C171.066 100.049 170.465 100.176 169.776 100.176ZM177.542 100.193C176.988 100.193 176.488 100.091 176.042 99.8864C175.595 99.678 175.24 99.3769 174.979 98.983C174.721 98.589 174.593 98.1061 174.593 97.5341C174.593 97.0417 174.687 96.6364 174.877 96.3182C175.066 96 175.322 95.7481 175.644 95.5625C175.966 95.3769 176.326 95.2367 176.723 95.142C177.121 95.0473 177.526 94.9754 177.939 94.9261C178.462 94.8655 178.886 94.8163 179.212 94.7784C179.538 94.7367 179.774 94.6705 179.922 94.5795C180.07 94.4886 180.144 94.3409 180.144 94.1364V94.0966C180.144 93.6004 180.004 93.2159 179.723 92.9432C179.447 92.6705 179.034 92.5341 178.485 92.5341C177.913 92.5341 177.462 92.661 177.132 92.9148C176.807 93.1648 176.581 93.4432 176.456 93.75L174.86 93.3864C175.049 92.8561 175.326 92.428 175.689 92.1023C176.057 91.7727 176.479 91.5341 176.956 91.3864C177.434 91.2348 177.935 91.1591 178.462 91.1591C178.81 91.1591 179.18 91.2008 179.57 91.2841C179.964 91.3636 180.331 91.5114 180.672 91.7273C181.017 91.9432 181.299 92.2519 181.519 92.6534C181.738 93.0511 181.848 93.5682 181.848 94.2045V100H180.189V98.8068H180.121C180.011 99.0265 179.846 99.2424 179.627 99.4545C179.407 99.6667 179.125 99.8428 178.78 99.983C178.435 100.123 178.023 100.193 177.542 100.193ZM177.911 98.8295C178.381 98.8295 178.782 98.7367 179.115 98.5511C179.452 98.3655 179.708 98.1231 179.882 97.8239C180.06 97.5208 180.149 97.197 180.149 96.8523V95.7273C180.089 95.7879 179.971 95.8447 179.797 95.8977C179.627 95.947 179.432 95.9905 179.212 96.0284C178.992 96.0625 178.778 96.0947 178.57 96.125C178.362 96.1515 178.187 96.1742 178.047 96.1932C177.718 96.2348 177.417 96.3049 177.144 96.4034C176.875 96.5019 176.659 96.6439 176.496 96.8295C176.337 97.0114 176.257 97.2538 176.257 97.5568C176.257 97.9773 176.413 98.2955 176.723 98.5114C177.034 98.7235 177.43 98.8295 177.911 98.8295ZM188.009 91.2727V92.6364H183.242V91.2727H188.009ZM184.52 89.1818H186.219V97.4375C186.219 97.767 186.268 98.0152 186.367 98.1818C186.465 98.3447 186.592 98.4564 186.748 98.517C186.907 98.5739 187.079 98.6023 187.265 98.6023C187.401 98.6023 187.52 98.5928 187.623 98.5739C187.725 98.5549 187.804 98.5398 187.861 98.5284L188.168 99.9318C188.07 99.9697 187.929 100.008 187.748 100.045C187.566 100.087 187.339 100.11 187.066 100.114C186.619 100.121 186.202 100.042 185.816 99.875C185.429 99.7083 185.117 99.4508 184.878 99.1023C184.64 98.7538 184.52 98.3163 184.52 97.7898V89.1818ZM189.712 100V91.2727H191.411V100H189.712ZM190.57 89.9261C190.275 89.9261 190.021 89.8277 189.809 89.6307C189.6 89.4299 189.496 89.1913 189.496 88.9148C189.496 88.6345 189.6 88.3958 189.809 88.1989C190.021 87.9981 190.275 87.8977 190.57 87.8977C190.866 87.8977 191.118 87.9981 191.326 88.1989C191.538 88.3958 191.644 88.6345 191.644 88.9148C191.644 89.1913 191.538 89.4299 191.326 89.6307C191.118 89.8277 190.866 89.9261 190.57 89.9261ZM197.197 100.176C196.379 100.176 195.665 99.9886 195.055 99.6136C194.445 99.2386 193.971 98.714 193.634 98.0398C193.297 97.3655 193.129 96.5777 193.129 95.6761C193.129 94.7708 193.297 93.9792 193.634 93.3011C193.971 92.6231 194.445 92.0966 195.055 91.7216C195.665 91.3466 196.379 91.1591 197.197 91.1591C198.015 91.1591 198.729 91.3466 199.339 91.7216C199.949 92.0966 200.422 92.6231 200.759 93.3011C201.096 93.9792 201.265 94.7708 201.265 95.6761C201.265 96.5777 201.096 97.3655 200.759 98.0398C200.422 98.714 199.949 99.2386 199.339 99.6136C198.729 99.9886 198.015 100.176 197.197 100.176ZM197.202 98.75C197.733 98.75 198.172 98.6098 198.521 98.3295C198.869 98.0492 199.127 97.6761 199.293 97.2102C199.464 96.7443 199.549 96.2311 199.549 95.6705C199.549 95.1136 199.464 94.6023 199.293 94.1364C199.127 93.6667 198.869 93.2898 198.521 93.0057C198.172 92.7216 197.733 92.5795 197.202 92.5795C196.668 92.5795 196.225 92.7216 195.873 93.0057C195.524 93.2898 195.265 93.6667 195.094 94.1364C194.928 94.6023 194.844 95.1136 194.844 95.6705C194.844 96.2311 194.928 96.7443 195.094 97.2102C195.265 97.6761 195.524 98.0492 195.873 98.3295C196.225 98.6098 196.668 98.75 197.202 98.75ZM204.684 94.8182V100H202.985V91.2727H204.616V92.6932H204.724C204.925 92.2311 205.239 91.8598 205.667 91.5795C206.099 91.2992 206.642 91.1591 207.298 91.1591C207.892 91.1591 208.413 91.2841 208.86 91.5341C209.307 91.7803 209.654 92.1477 209.9 92.6364C210.146 93.125 210.269 93.7292 210.269 94.4489V100H208.57V94.6534C208.57 94.0208 208.406 93.5265 208.076 93.1705C207.747 92.8106 207.294 92.6307 206.718 92.6307C206.324 92.6307 205.974 92.7159 205.667 92.8864C205.364 93.0568 205.123 93.3068 204.945 93.6364C204.771 93.9621 204.684 94.3561 204.684 94.8182Z" fill="black" fill-opacity="0.8"/>
<rect x="3" y="145" width="229" height="38" rx="3" stroke="#0C7264" stroke-width="4" stroke-linecap="round"/>
<path d="M49.2666 170V158.364H56.5621V159.875H51.0223V163.42H56.1814V164.926H51.0223V168.489H56.6302V170H49.2666ZM59.9358 161.273L61.8619 164.67L63.8051 161.273H65.663L62.9415 165.636L65.6858 170H63.8278L61.8619 166.739L59.9017 170H58.038L60.754 165.636L58.0721 161.273H59.9358ZM71.3052 161.273V162.636H66.5382V161.273H71.3052ZM67.8166 159.182H69.5155V167.438C69.5155 167.767 69.5647 168.015 69.6632 168.182C69.7617 168.345 69.8886 168.456 70.0439 168.517C70.203 168.574 70.3753 168.602 70.5609 168.602C70.6973 168.602 70.8166 168.593 70.9189 168.574C71.0211 168.555 71.1007 168.54 71.1575 168.528L71.4643 169.932C71.3658 169.97 71.2257 170.008 71.0439 170.045C70.862 170.087 70.6348 170.11 70.362 170.114C69.9151 170.121 69.4984 170.042 69.112 169.875C68.7257 169.708 68.4132 169.451 68.1745 169.102C67.9359 168.754 67.8166 168.316 67.8166 167.79V159.182ZM73.0085 170V161.273H74.6505V162.659H74.7414C74.9005 162.189 75.1808 161.82 75.5823 161.551C75.9877 161.278 76.446 161.142 76.9573 161.142C77.0634 161.142 77.1884 161.146 77.3323 161.153C77.4801 161.161 77.5956 161.17 77.6789 161.182V162.807C77.6108 162.788 77.4895 162.767 77.3153 162.744C77.1411 162.718 76.9668 162.705 76.7926 162.705C76.3911 162.705 76.0331 162.79 75.7187 162.96C75.4081 163.127 75.1619 163.36 74.9801 163.659C74.7983 163.955 74.7073 164.292 74.7073 164.67V170H73.0085ZM81.4348 170.193C80.8817 170.193 80.3817 170.091 79.9348 169.886C79.4878 169.678 79.1336 169.377 78.8723 168.983C78.6147 168.589 78.4859 168.106 78.4859 167.534C78.4859 167.042 78.5806 166.636 78.77 166.318C78.9594 166 79.2151 165.748 79.537 165.562C79.859 165.377 80.2188 165.237 80.6166 165.142C81.0143 165.047 81.4196 164.975 81.8325 164.926C82.3552 164.866 82.7795 164.816 83.1052 164.778C83.431 164.737 83.6677 164.67 83.8154 164.58C83.9632 164.489 84.037 164.341 84.037 164.136V164.097C84.037 163.6 83.8969 163.216 83.6166 162.943C83.3401 162.67 82.9272 162.534 82.3779 162.534C81.806 162.534 81.3552 162.661 81.0257 162.915C80.6999 163.165 80.4745 163.443 80.3495 163.75L78.7529 163.386C78.9423 162.856 79.2188 162.428 79.5825 162.102C79.9499 161.773 80.3723 161.534 80.8495 161.386C81.3268 161.235 81.8287 161.159 82.3552 161.159C82.7037 161.159 83.073 161.201 83.4632 161.284C83.8571 161.364 84.2245 161.511 84.5654 161.727C84.9101 161.943 85.1923 162.252 85.412 162.653C85.6317 163.051 85.7416 163.568 85.7416 164.205V170H84.0825V168.807H84.0143C83.9045 169.027 83.7397 169.242 83.52 169.455C83.3003 169.667 83.0181 169.843 82.6734 169.983C82.3287 170.123 81.9158 170.193 81.4348 170.193ZM81.8041 168.83C82.2738 168.83 82.6753 168.737 83.0086 168.551C83.3457 168.366 83.6014 168.123 83.7757 167.824C83.9537 167.521 84.0427 167.197 84.0427 166.852V165.727C83.9821 165.788 83.8647 165.845 83.6904 165.898C83.52 165.947 83.3249 165.991 83.1052 166.028C82.8855 166.062 82.6715 166.095 82.4632 166.125C82.2548 166.152 82.0806 166.174 81.9404 166.193C81.6109 166.235 81.3098 166.305 81.037 166.403C80.7681 166.502 80.5522 166.644 80.3893 166.83C80.2302 167.011 80.1507 167.254 80.1507 167.557C80.1507 167.977 80.306 168.295 80.6166 168.511C80.9272 168.723 81.323 168.83 81.8041 168.83ZM91.5045 170.176C90.6598 170.176 89.9325 169.985 89.3227 169.602C88.7166 169.216 88.2507 168.684 87.9249 168.006C87.5992 167.328 87.4363 166.551 87.4363 165.676C87.4363 164.79 87.603 164.008 87.9363 163.33C88.2696 162.648 88.7393 162.116 89.3454 161.733C89.9515 161.35 90.6655 161.159 91.4874 161.159C92.1503 161.159 92.7412 161.282 93.2602 161.528C93.7791 161.771 94.1977 162.112 94.5159 162.551C94.8378 162.991 95.0291 163.504 95.0897 164.091H93.4363C93.3454 163.682 93.1371 163.33 92.8113 163.034C92.4893 162.739 92.0575 162.591 91.5159 162.591C91.0424 162.591 90.6276 162.716 90.2715 162.966C89.9193 163.212 89.6446 163.564 89.4477 164.023C89.2507 164.477 89.1522 165.015 89.1522 165.636C89.1522 166.273 89.2488 166.822 89.442 167.284C89.6352 167.746 89.9079 168.104 90.2602 168.358C90.6162 168.612 91.0348 168.739 91.5159 168.739C91.8378 168.739 92.1295 168.68 92.3909 168.562C92.656 168.441 92.8776 168.269 93.0556 168.045C93.2374 167.822 93.3643 167.553 93.4363 167.239H95.0897C95.0291 167.803 94.8454 168.307 94.5386 168.75C94.2318 169.193 93.8208 169.542 93.3056 169.795C92.7943 170.049 92.1939 170.176 91.5045 170.176ZM100.804 161.273V162.636H96.0373V161.273H100.804ZM97.3157 159.182H99.0146V167.438C99.0146 167.767 99.0638 168.015 99.1623 168.182C99.2608 168.345 99.3877 168.456 99.543 168.517C99.7021 168.574 99.8744 168.602 100.06 168.602C100.196 168.602 100.316 168.593 100.418 168.574C100.52 168.555 100.6 168.54 100.657 168.528L100.963 169.932C100.865 169.97 100.725 170.008 100.543 170.045C100.361 170.087 100.134 170.11 99.8612 170.114C99.4142 170.121 98.9975 170.042 98.6112 169.875C98.2248 169.708 97.9123 169.451 97.6737 169.102C97.435 168.754 97.3157 168.316 97.3157 167.79V159.182ZM107.685 170H105.822L110.009 158.364H112.038L116.225 170H114.361L111.072 160.477H110.981L107.685 170ZM107.998 165.443H114.043V166.92H107.998V165.443ZM117.729 170V158.364H121.877C122.783 158.364 123.533 158.528 124.127 158.858C124.722 159.187 125.167 159.638 125.462 160.21C125.758 160.778 125.906 161.419 125.906 162.131C125.906 162.847 125.756 163.491 125.457 164.062C125.161 164.631 124.714 165.081 124.116 165.415C123.521 165.744 122.773 165.909 121.872 165.909H119.019V164.42H121.712C122.284 164.42 122.748 164.322 123.104 164.125C123.461 163.924 123.722 163.652 123.889 163.307C124.055 162.962 124.139 162.57 124.139 162.131C124.139 161.691 124.055 161.301 123.889 160.96C123.722 160.619 123.459 160.352 123.099 160.159C122.743 159.966 122.273 159.869 121.69 159.869H119.485V170H117.729ZM129.544 158.364V170H127.788V158.364H129.544ZM135.983 170V158.364H140.13C141.032 158.364 141.78 158.519 142.375 158.83C142.973 159.14 143.42 159.57 143.716 160.119C144.011 160.665 144.159 161.295 144.159 162.011C144.159 162.723 144.009 163.35 143.71 163.892C143.415 164.43 142.968 164.848 142.369 165.148C141.774 165.447 141.026 165.597 140.125 165.597H136.983V164.085H139.966C140.534 164.085 140.996 164.004 141.352 163.841C141.712 163.678 141.975 163.441 142.142 163.131C142.308 162.82 142.392 162.447 142.392 162.011C142.392 161.572 142.307 161.191 142.136 160.869C141.969 160.547 141.706 160.301 141.346 160.131C140.99 159.956 140.522 159.869 139.943 159.869H137.738V170H135.983ZM141.727 164.75L144.602 170H142.602L139.784 164.75H141.727ZM149.55 170.176C148.731 170.176 148.017 169.989 147.408 169.614C146.798 169.239 146.324 168.714 145.987 168.04C145.65 167.366 145.481 166.578 145.481 165.676C145.481 164.771 145.65 163.979 145.987 163.301C146.324 162.623 146.798 162.097 147.408 161.722C148.017 161.347 148.731 161.159 149.55 161.159C150.368 161.159 151.082 161.347 151.692 161.722C152.302 162.097 152.775 162.623 153.112 163.301C153.449 163.979 153.618 164.771 153.618 165.676C153.618 166.578 153.449 167.366 153.112 168.04C152.775 168.714 152.302 169.239 151.692 169.614C151.082 169.989 150.368 170.176 149.55 170.176ZM149.555 168.75C150.086 168.75 150.525 168.61 150.873 168.33C151.222 168.049 151.48 167.676 151.646 167.21C151.817 166.744 151.902 166.231 151.902 165.67C151.902 165.114 151.817 164.602 151.646 164.136C151.48 163.667 151.222 163.29 150.873 163.006C150.525 162.722 150.086 162.58 149.555 162.58C149.021 162.58 148.578 162.722 148.226 163.006C147.877 163.29 147.618 163.667 147.447 164.136C147.281 164.602 147.197 165.114 147.197 165.67C147.197 166.231 147.281 166.744 147.447 167.21C147.618 167.676 147.877 168.049 148.226 168.33C148.578 168.61 149.021 168.75 149.555 168.75ZM160.867 166.381V161.273H162.571V170H160.901V168.489H160.81C160.609 168.955 160.287 169.343 159.844 169.653C159.404 169.96 158.857 170.114 158.202 170.114C157.641 170.114 157.145 169.991 156.713 169.744C156.285 169.494 155.948 169.125 155.702 168.636C155.459 168.148 155.338 167.544 155.338 166.824V161.273H157.037V166.619C157.037 167.214 157.202 167.687 157.531 168.04C157.861 168.392 158.289 168.568 158.815 168.568C159.134 168.568 159.45 168.489 159.764 168.33C160.082 168.17 160.346 167.93 160.554 167.608C160.766 167.286 160.87 166.877 160.867 166.381ZM168.752 161.273V162.636H163.985V161.273H168.752ZM165.263 159.182H166.962V167.438C166.962 167.767 167.011 168.015 167.11 168.182C167.208 168.345 167.335 168.456 167.49 168.517C167.649 168.574 167.822 168.602 168.007 168.602C168.144 168.602 168.263 168.593 168.365 168.574C168.468 168.555 168.547 168.54 168.604 168.528L168.911 169.932C168.812 169.97 168.672 170.008 168.49 170.045C168.308 170.087 168.081 170.11 167.808 170.114C167.361 170.121 166.945 170.042 166.558 169.875C166.172 169.708 165.86 169.451 165.621 169.102C165.382 168.754 165.263 168.316 165.263 167.79V159.182ZM174.122 170.176C173.263 170.176 172.522 169.992 171.901 169.625C171.283 169.254 170.806 168.733 170.469 168.062C170.136 167.388 169.969 166.598 169.969 165.693C169.969 164.799 170.136 164.011 170.469 163.33C170.806 162.648 171.276 162.116 171.878 161.733C172.484 161.35 173.193 161.159 174.003 161.159C174.496 161.159 174.973 161.241 175.435 161.403C175.897 161.566 176.312 161.822 176.679 162.17C177.047 162.519 177.336 162.972 177.549 163.528C177.761 164.081 177.867 164.754 177.867 165.545V166.148H170.929V164.875H176.202C176.202 164.428 176.111 164.032 175.929 163.688C175.747 163.339 175.492 163.064 175.162 162.864C174.836 162.663 174.454 162.562 174.015 162.562C173.537 162.562 173.121 162.68 172.765 162.915C172.412 163.146 172.14 163.449 171.946 163.824C171.757 164.195 171.662 164.598 171.662 165.034V166.028C171.662 166.612 171.765 167.108 171.969 167.517C172.177 167.926 172.467 168.239 172.838 168.455C173.21 168.667 173.643 168.773 174.14 168.773C174.461 168.773 174.755 168.727 175.02 168.636C175.285 168.542 175.515 168.402 175.708 168.216C175.901 168.03 176.049 167.801 176.151 167.528L177.759 167.818C177.63 168.292 177.399 168.706 177.066 169.062C176.736 169.415 176.321 169.689 175.821 169.886C175.325 170.08 174.759 170.176 174.122 170.176ZM186.116 163.403L184.576 163.676C184.511 163.479 184.409 163.292 184.269 163.114C184.133 162.936 183.947 162.79 183.712 162.676C183.477 162.562 183.184 162.506 182.831 162.506C182.35 162.506 181.949 162.614 181.627 162.83C181.305 163.042 181.144 163.316 181.144 163.653C181.144 163.945 181.252 164.18 181.468 164.358C181.684 164.536 182.032 164.682 182.513 164.795L183.9 165.114C184.703 165.299 185.301 165.585 185.695 165.972C186.089 166.358 186.286 166.86 186.286 167.477C186.286 168 186.134 168.466 185.831 168.875C185.532 169.28 185.114 169.598 184.576 169.83C184.042 170.061 183.422 170.176 182.718 170.176C181.741 170.176 180.943 169.968 180.326 169.551C179.708 169.131 179.33 168.534 179.189 167.761L180.831 167.511C180.934 167.939 181.144 168.263 181.462 168.483C181.78 168.699 182.195 168.807 182.706 168.807C183.263 168.807 183.708 168.691 184.042 168.46C184.375 168.225 184.542 167.939 184.542 167.602C184.542 167.33 184.439 167.1 184.235 166.915C184.034 166.729 183.725 166.589 183.309 166.494L181.831 166.17C181.017 165.985 180.415 165.689 180.025 165.284C179.638 164.879 179.445 164.366 179.445 163.744C179.445 163.229 179.589 162.778 179.877 162.392C180.165 162.006 180.562 161.705 181.07 161.489C181.578 161.269 182.159 161.159 182.814 161.159C183.758 161.159 184.5 161.364 185.042 161.773C185.583 162.178 185.941 162.722 186.116 163.403Z" fill="black" fill-opacity="0.8"/>
<rect x="3" y="298" width="240" height="38" rx="3" stroke="#0C7264" stroke-width="4" stroke-linecap="round"/>
<path d="M22.7852 315.04C22.6753 314.695 22.5276 314.386 22.342 314.114C22.1602 313.837 21.9424 313.602 21.6886 313.409C21.4348 313.212 21.145 313.062 20.8193 312.96C20.4973 312.858 20.1431 312.807 19.7568 312.807C19.1014 312.807 18.5105 312.975 17.984 313.312C17.4575 313.65 17.0408 314.144 16.734 314.795C16.431 315.443 16.2795 316.237 16.2795 317.176C16.2795 318.119 16.4329 318.917 16.7397 319.568C17.0465 320.22 17.467 320.714 18.0011 321.051C18.5352 321.388 19.1431 321.557 19.8249 321.557C20.4575 321.557 21.0086 321.428 21.4783 321.17C21.9518 320.913 22.3174 320.549 22.5749 320.08C22.8363 319.606 22.967 319.049 22.967 318.409L23.4215 318.494H20.092V317.045H24.6658V318.369C24.6658 319.347 24.4575 320.195 24.0408 320.915C23.628 321.631 23.056 322.184 22.3249 322.574C21.5977 322.964 20.7643 323.159 19.8249 323.159C18.7719 323.159 17.8477 322.917 17.0522 322.432C16.2605 321.947 15.6431 321.259 15.1999 320.369C14.7568 319.475 14.5352 318.415 14.5352 317.188C14.5352 316.259 14.6639 315.426 14.9215 314.688C15.1791 313.949 15.5408 313.322 16.0068 312.807C16.4764 312.288 17.0276 311.892 17.6602 311.619C18.2965 311.343 18.9916 311.205 19.7454 311.205C20.3742 311.205 20.9594 311.297 21.5011 311.483C22.0465 311.669 22.5314 311.932 22.9556 312.273C23.3836 312.614 23.7378 313.019 24.0181 313.489C24.2984 313.955 24.4878 314.472 24.5863 315.04H22.7852ZM30.3435 323.176C29.4837 323.176 28.7432 322.992 28.1219 322.625C27.5045 322.254 27.0272 321.733 26.6901 321.062C26.3568 320.388 26.1901 319.598 26.1901 318.693C26.1901 317.799 26.3568 317.011 26.6901 316.33C27.0272 315.648 27.4969 315.116 28.0992 314.733C28.7053 314.35 29.4136 314.159 30.2242 314.159C30.7166 314.159 31.1939 314.241 31.656 314.403C32.1182 314.566 32.5329 314.822 32.9004 315.17C33.2678 315.519 33.5576 315.972 33.7697 316.528C33.9818 317.081 34.0879 317.754 34.0879 318.545V319.148H27.1504V317.875H32.4231C32.4231 317.428 32.3322 317.032 32.1504 316.688C31.9685 316.339 31.7129 316.064 31.3833 315.864C31.0576 315.663 30.675 315.562 30.2356 315.562C29.7583 315.562 29.3416 315.68 28.9856 315.915C28.6333 316.146 28.3606 316.449 28.1674 316.824C27.978 317.195 27.8833 317.598 27.8833 318.034V319.028C27.8833 319.612 27.9856 320.108 28.1901 320.517C28.3985 320.926 28.6882 321.239 29.0594 321.455C29.4307 321.667 29.8644 321.773 30.3606 321.773C30.6826 321.773 30.9761 321.727 31.2413 321.636C31.5064 321.542 31.7356 321.402 31.9288 321.216C32.1219 321.03 32.2697 320.801 32.3719 320.528L33.9799 320.818C33.8511 321.292 33.6201 321.706 33.2867 322.062C32.9572 322.415 32.5424 322.689 32.0424 322.886C31.5462 323.08 30.9799 323.176 30.3435 323.176ZM37.4957 317.818V323H35.7968V314.273H37.4275V315.693H37.5354C37.7362 315.231 38.0506 314.86 38.4786 314.58C38.9104 314.299 39.454 314.159 40.1093 314.159C40.704 314.159 41.2248 314.284 41.6718 314.534C42.1188 314.78 42.4654 315.148 42.7116 315.636C42.9578 316.125 43.0809 316.729 43.0809 317.449V323H41.382V317.653C41.382 317.021 41.2173 316.527 40.8877 316.17C40.5582 315.811 40.1055 315.631 39.5298 315.631C39.1358 315.631 38.7854 315.716 38.4786 315.886C38.1756 316.057 37.9351 316.307 37.757 316.636C37.5828 316.962 37.4957 317.356 37.4957 317.818ZM48.9447 323.176C48.0848 323.176 47.3443 322.992 46.7231 322.625C46.1056 322.254 45.6284 321.733 45.2913 321.062C44.9579 320.388 44.7913 319.598 44.7913 318.693C44.7913 317.799 44.9579 317.011 45.2913 316.33C45.6284 315.648 46.0981 315.116 46.7003 314.733C47.3064 314.35 48.0147 314.159 48.8253 314.159C49.3178 314.159 49.795 314.241 50.2572 314.403C50.7193 314.566 51.1341 314.822 51.5015 315.17C51.8689 315.519 52.1587 315.972 52.3708 316.528C52.5829 317.081 52.689 317.754 52.689 318.545V319.148H45.7515V317.875H51.0242C51.0242 317.428 50.9333 317.032 50.7515 316.688C50.5697 316.339 50.314 316.064 49.9844 315.864C49.6587 315.663 49.2761 315.562 48.8367 315.562C48.3594 315.562 47.9428 315.68 47.5867 315.915C47.2344 316.146 46.9617 316.449 46.7685 316.824C46.5791 317.195 46.4844 317.598 46.4844 318.034V319.028C46.4844 319.612 46.5867 320.108 46.7913 320.517C46.9996 320.926 47.2894 321.239 47.6606 321.455C48.0318 321.667 48.4655 321.773 48.9617 321.773C49.2837 321.773 49.5772 321.727 49.8424 321.636C50.1075 321.542 50.3367 321.402 50.5299 321.216C50.7231 321.03 50.8708 320.801 50.9731 320.528L52.581 320.818C52.4522 321.292 52.2212 321.706 51.8878 322.062C51.5583 322.415 51.1435 322.689 50.6435 322.886C50.1473 323.08 49.581 323.176 48.9447 323.176ZM54.3979 323V314.273H56.04V315.659H56.1309C56.29 315.189 56.5703 314.82 56.9718 314.551C57.3771 314.278 57.8354 314.142 58.3468 314.142C58.4528 314.142 58.5778 314.146 58.7218 314.153C58.8695 314.161 58.985 314.17 59.0684 314.182V315.807C59.0002 315.788 58.879 315.767 58.7047 315.744C58.5305 315.718 58.3563 315.705 58.182 315.705C57.7805 315.705 57.4225 315.79 57.1082 315.96C56.7975 316.127 56.5513 316.36 56.3695 316.659C56.1877 316.955 56.0968 317.292 56.0968 317.67V323H54.3979ZM62.8242 323.193C62.2712 323.193 61.7712 323.091 61.3242 322.886C60.8772 322.678 60.5231 322.377 60.2617 321.983C60.0041 321.589 59.8753 321.106 59.8753 320.534C59.8753 320.042 59.97 319.636 60.1594 319.318C60.3488 319 60.6045 318.748 60.9265 318.562C61.2484 318.377 61.6083 318.237 62.006 318.142C62.4037 318.047 62.809 317.975 63.2219 317.926C63.7446 317.866 64.1689 317.816 64.4946 317.778C64.8204 317.737 65.0571 317.67 65.2049 317.58C65.3526 317.489 65.4265 317.341 65.4265 317.136V317.097C65.4265 316.6 65.2863 316.216 65.006 315.943C64.7295 315.67 64.3166 315.534 63.7674 315.534C63.1954 315.534 62.7446 315.661 62.4151 315.915C62.0893 316.165 61.864 316.443 61.739 316.75L60.1424 316.386C60.3318 315.856 60.6083 315.428 60.9719 315.102C61.3393 314.773 61.7617 314.534 62.239 314.386C62.7162 314.235 63.2181 314.159 63.7446 314.159C64.0931 314.159 64.4625 314.201 64.8526 314.284C65.2465 314.364 65.614 314.511 65.9549 314.727C66.2996 314.943 66.5818 315.252 66.8015 315.653C67.0212 316.051 67.131 316.568 67.131 317.205V323H65.4719V321.807H65.4037C65.2939 322.027 65.1291 322.242 64.9094 322.455C64.6897 322.667 64.4075 322.843 64.0628 322.983C63.7181 323.123 63.3053 323.193 62.8242 323.193ZM63.1935 321.83C63.6632 321.83 64.0647 321.737 64.3981 321.551C64.7352 321.366 64.9909 321.123 65.1651 320.824C65.3431 320.521 65.4321 320.197 65.4321 319.852V318.727C65.3715 318.788 65.2541 318.845 65.0799 318.898C64.9094 318.947 64.7143 318.991 64.4946 319.028C64.275 319.062 64.0609 319.095 63.8526 319.125C63.6443 319.152 63.47 319.174 63.3299 319.193C63.0003 319.235 62.6992 319.305 62.4265 319.403C62.1575 319.502 61.9416 319.644 61.7787 319.83C61.6196 320.011 61.5401 320.254 61.5401 320.557C61.5401 320.977 61.6954 321.295 62.006 321.511C62.3166 321.723 62.7125 321.83 63.1935 321.83ZM73.2917 314.273V315.636H68.5246V314.273H73.2917ZM69.803 312.182H71.5019V320.438C71.5019 320.767 71.5511 321.015 71.6496 321.182C71.7481 321.345 71.875 321.456 72.0303 321.517C72.1894 321.574 72.3617 321.602 72.5473 321.602C72.6837 321.602 72.803 321.593 72.9053 321.574C73.0076 321.555 73.0871 321.54 73.1439 321.528L73.4508 322.932C73.3523 322.97 73.2121 323.008 73.0303 323.045C72.8485 323.087 72.6212 323.11 72.3485 323.114C71.9015 323.121 71.4848 323.042 71.0985 322.875C70.7121 322.708 70.3996 322.451 70.161 322.102C69.9223 321.754 69.803 321.316 69.803 320.79V312.182ZM78.6625 323.176C77.8027 323.176 77.0622 322.992 76.4409 322.625C75.8235 322.254 75.3462 321.733 75.0091 321.062C74.6758 320.388 74.5091 319.598 74.5091 318.693C74.5091 317.799 74.6758 317.011 75.0091 316.33C75.3462 315.648 75.8159 315.116 76.4182 314.733C77.0243 314.35 77.7326 314.159 78.5432 314.159C79.0356 314.159 79.5129 314.241 79.975 314.403C80.4372 314.566 80.8519 314.822 81.2194 315.17C81.5868 315.519 81.8766 315.972 82.0887 316.528C82.3008 317.081 82.4069 317.754 82.4069 318.545V319.148H75.4694V317.875H80.7421C80.7421 317.428 80.6512 317.032 80.4694 316.688C80.2875 316.339 80.0319 316.064 79.7023 315.864C79.3766 315.663 78.994 315.562 78.5546 315.562C78.0773 315.562 77.6606 315.68 77.3046 315.915C76.9523 316.146 76.6796 316.449 76.4864 316.824C76.297 317.195 76.2023 317.598 76.2023 318.034V319.028C76.2023 319.612 76.3046 320.108 76.5091 320.517C76.7175 320.926 77.0072 321.239 77.3784 321.455C77.7497 321.667 78.1834 321.773 78.6796 321.773C79.0016 321.773 79.2951 321.727 79.5603 321.636C79.8254 321.542 80.0546 321.402 80.2478 321.216C80.4409 321.03 80.5887 320.801 80.6909 320.528L82.2989 320.818C82.1701 321.292 81.9391 321.706 81.6057 322.062C81.2762 322.415 80.8614 322.689 80.3614 322.886C79.8652 323.08 79.2989 323.176 78.6625 323.176ZM88.3105 323V311.364H92.4583C93.3636 311.364 94.1136 311.528 94.7083 311.858C95.303 312.187 95.748 312.638 96.0435 313.21C96.3389 313.778 96.4867 314.419 96.4867 315.131C96.4867 315.847 96.3371 316.491 96.0378 317.062C95.7424 317.631 95.2954 318.081 94.6969 318.415C94.1022 318.744 93.3541 318.909 92.4526 318.909H89.6003V317.42H92.2935C92.8655 317.42 93.3295 317.322 93.6855 317.125C94.0416 316.924 94.303 316.652 94.4696 316.307C94.6363 315.962 94.7196 315.57 94.7196 315.131C94.7196 314.691 94.6363 314.301 94.4696 313.96C94.303 313.619 94.0397 313.352 93.6799 313.159C93.3238 312.966 92.8541 312.869 92.2708 312.869H90.0662V323H88.3105ZM101.799 323.176C100.981 323.176 100.267 322.989 99.6573 322.614C99.0474 322.239 98.5739 321.714 98.2368 321.04C97.8997 320.366 97.7311 319.578 97.7311 318.676C97.7311 317.771 97.8997 316.979 98.2368 316.301C98.5739 315.623 99.0474 315.097 99.6573 314.722C100.267 314.347 100.981 314.159 101.799 314.159C102.617 314.159 103.332 314.347 103.941 314.722C104.551 315.097 105.025 315.623 105.362 316.301C105.699 316.979 105.867 317.771 105.867 318.676C105.867 319.578 105.699 320.366 105.362 321.04C105.025 321.714 104.551 322.239 103.941 322.614C103.332 322.989 102.617 323.176 101.799 323.176ZM101.805 321.75C102.335 321.75 102.775 321.61 103.123 321.33C103.472 321.049 103.729 320.676 103.896 320.21C104.066 319.744 104.152 319.231 104.152 318.67C104.152 318.114 104.066 317.602 103.896 317.136C103.729 316.667 103.472 316.29 103.123 316.006C102.775 315.722 102.335 315.58 101.805 315.58C101.271 315.58 100.828 315.722 100.475 316.006C100.127 316.29 99.8675 316.667 99.697 317.136C99.5304 317.602 99.447 318.114 99.447 318.67C99.447 319.231 99.5304 319.744 99.697 320.21C99.8675 320.676 100.127 321.049 100.475 321.33C100.828 321.61 101.271 321.75 101.805 321.75ZM114.128 316.403L112.588 316.676C112.523 316.479 112.421 316.292 112.281 316.114C112.145 315.936 111.959 315.79 111.724 315.676C111.489 315.562 111.196 315.506 110.843 315.506C110.362 315.506 109.961 315.614 109.639 315.83C109.317 316.042 109.156 316.316 109.156 316.653C109.156 316.945 109.264 317.18 109.48 317.358C109.696 317.536 110.044 317.682 110.525 317.795L111.912 318.114C112.715 318.299 113.313 318.585 113.707 318.972C114.101 319.358 114.298 319.86 114.298 320.477C114.298 321 114.147 321.466 113.843 321.875C113.544 322.28 113.126 322.598 112.588 322.83C112.054 323.061 111.434 323.176 110.73 323.176C109.753 323.176 108.955 322.968 108.338 322.551C107.72 322.131 107.342 321.534 107.201 320.761L108.843 320.511C108.946 320.939 109.156 321.263 109.474 321.483C109.792 321.699 110.207 321.807 110.718 321.807C111.275 321.807 111.72 321.691 112.054 321.46C112.387 321.225 112.554 320.939 112.554 320.602C112.554 320.33 112.451 320.1 112.247 319.915C112.046 319.729 111.737 319.589 111.321 319.494L109.843 319.17C109.029 318.985 108.427 318.689 108.037 318.284C107.65 317.879 107.457 317.366 107.457 316.744C107.457 316.229 107.601 315.778 107.889 315.392C108.177 315.006 108.575 314.705 109.082 314.489C109.59 314.269 110.171 314.159 110.826 314.159C111.77 314.159 112.512 314.364 113.054 314.773C113.595 315.178 113.953 315.722 114.128 316.403ZM120.064 314.273V315.636H115.297V314.273H120.064ZM116.575 312.182H118.274V320.438C118.274 320.767 118.323 321.015 118.422 321.182C118.52 321.345 118.647 321.456 118.802 321.517C118.962 321.574 119.134 321.602 119.319 321.602C119.456 321.602 119.575 321.593 119.677 321.574C119.78 321.555 119.859 321.54 119.916 321.528L120.223 322.932C120.124 322.97 119.984 323.008 119.802 323.045C119.621 323.087 119.393 323.11 119.121 323.114C118.674 323.121 118.257 323.042 117.871 322.875C117.484 322.708 117.172 322.451 116.933 322.102C116.694 321.754 116.575 321.316 116.575 320.79V312.182ZM121.767 323V314.273H123.398V315.693H123.506C123.688 315.212 123.985 314.837 124.398 314.568C124.811 314.295 125.305 314.159 125.881 314.159C126.464 314.159 126.953 314.295 127.347 314.568C127.744 314.841 128.038 315.216 128.227 315.693H128.318C128.527 315.227 128.858 314.856 129.312 314.58C129.767 314.299 130.309 314.159 130.938 314.159C131.729 314.159 132.375 314.407 132.875 314.903C133.379 315.4 133.631 316.148 133.631 317.148V323H131.932V317.307C131.932 316.716 131.771 316.288 131.449 316.023C131.127 315.758 130.742 315.625 130.295 315.625C129.742 315.625 129.312 315.795 129.006 316.136C128.699 316.473 128.545 316.907 128.545 317.438V323H126.852V317.199C126.852 316.725 126.705 316.345 126.409 316.057C126.114 315.769 125.729 315.625 125.256 315.625C124.934 315.625 124.636 315.71 124.364 315.881C124.095 316.047 123.877 316.28 123.71 316.58C123.547 316.879 123.466 317.225 123.466 317.619V323H121.767ZM138.271 323.193C137.718 323.193 137.218 323.091 136.771 322.886C136.324 322.678 135.97 322.377 135.709 321.983C135.451 321.589 135.323 321.106 135.323 320.534C135.323 320.042 135.417 319.636 135.607 319.318C135.796 319 136.052 318.748 136.374 318.562C136.696 318.377 137.056 318.237 137.453 318.142C137.851 318.047 138.256 317.975 138.669 317.926C139.192 317.866 139.616 317.816 139.942 317.778C140.268 317.737 140.504 317.67 140.652 317.58C140.8 317.489 140.874 317.341 140.874 317.136V317.097C140.874 316.6 140.734 316.216 140.453 315.943C140.177 315.67 139.764 315.534 139.215 315.534C138.643 315.534 138.192 315.661 137.862 315.915C137.537 316.165 137.311 316.443 137.186 316.75L135.59 316.386C135.779 315.856 136.056 315.428 136.419 315.102C136.787 314.773 137.209 314.534 137.686 314.386C138.163 314.235 138.665 314.159 139.192 314.159C139.54 314.159 139.91 314.201 140.3 314.284C140.694 314.364 141.061 314.511 141.402 314.727C141.747 314.943 142.029 315.252 142.249 315.653C142.468 316.051 142.578 316.568 142.578 317.205V323H140.919V321.807H140.851C140.741 322.027 140.576 322.242 140.357 322.455C140.137 322.667 139.855 322.843 139.51 322.983C139.165 323.123 138.753 323.193 138.271 323.193ZM138.641 321.83C139.11 321.83 139.512 321.737 139.845 321.551C140.182 321.366 140.438 321.123 140.612 320.824C140.79 320.521 140.879 320.197 140.879 319.852V318.727C140.819 318.788 140.701 318.845 140.527 318.898C140.357 318.947 140.162 318.991 139.942 319.028C139.722 319.062 139.508 319.095 139.3 319.125C139.092 319.152 138.917 319.174 138.777 319.193C138.448 319.235 138.146 319.305 137.874 319.403C137.605 319.502 137.389 319.644 137.226 319.83C137.067 320.011 136.987 320.254 136.987 320.557C136.987 320.977 137.143 321.295 137.453 321.511C137.764 321.723 138.16 321.83 138.641 321.83ZM146.364 317.818V323H144.665V314.273H146.296V315.693H146.404C146.604 315.231 146.919 314.86 147.347 314.58C147.779 314.299 148.322 314.159 148.978 314.159C149.572 314.159 150.093 314.284 150.54 314.534C150.987 314.78 151.334 315.148 151.58 315.636C151.826 316.125 151.949 316.729 151.949 317.449V323H150.25V317.653C150.25 317.021 150.086 316.527 149.756 316.17C149.426 315.811 148.974 315.631 148.398 315.631C148.004 315.631 147.654 315.716 147.347 315.886C147.044 316.057 146.803 316.307 146.625 316.636C146.451 316.962 146.364 317.356 146.364 317.818ZM167.911 315.148H166.138C166.07 314.769 165.943 314.436 165.758 314.148C165.572 313.86 165.345 313.616 165.076 313.415C164.807 313.214 164.506 313.062 164.172 312.96C163.843 312.858 163.492 312.807 163.121 312.807C162.451 312.807 161.85 312.975 161.32 313.312C160.794 313.65 160.377 314.144 160.07 314.795C159.767 315.447 159.616 316.242 159.616 317.182C159.616 318.129 159.767 318.928 160.07 319.58C160.377 320.231 160.796 320.723 161.326 321.057C161.856 321.39 162.453 321.557 163.116 321.557C163.483 321.557 163.832 321.508 164.161 321.409C164.494 321.307 164.796 321.157 165.064 320.96C165.333 320.763 165.561 320.523 165.746 320.239C165.936 319.951 166.066 319.621 166.138 319.25L167.911 319.256C167.816 319.828 167.633 320.354 167.36 320.835C167.091 321.312 166.744 321.725 166.32 322.074C165.9 322.419 165.419 322.686 164.877 322.875C164.335 323.064 163.744 323.159 163.104 323.159C162.097 323.159 161.199 322.92 160.411 322.443C159.623 321.962 159.002 321.275 158.547 320.381C158.097 319.487 157.871 318.42 157.871 317.182C157.871 315.939 158.099 314.873 158.553 313.983C159.008 313.089 159.629 312.403 160.417 311.926C161.205 311.445 162.1 311.205 163.104 311.205C163.722 311.205 164.297 311.294 164.832 311.472C165.369 311.646 165.852 311.903 166.28 312.244C166.708 312.581 167.063 312.994 167.343 313.483C167.623 313.968 167.813 314.523 167.911 315.148ZM173.376 323.176C172.557 323.176 171.843 322.989 171.234 322.614C170.624 322.239 170.15 321.714 169.813 321.04C169.476 320.366 169.307 319.578 169.307 318.676C169.307 317.771 169.476 316.979 169.813 316.301C170.15 315.623 170.624 315.097 171.234 314.722C171.843 314.347 172.557 314.159 173.376 314.159C174.194 314.159 174.908 314.347 175.518 314.722C176.128 315.097 176.601 315.623 176.938 316.301C177.275 316.979 177.444 317.771 177.444 318.676C177.444 319.578 177.275 320.366 176.938 321.04C176.601 321.714 176.128 322.239 175.518 322.614C174.908 322.989 174.194 323.176 173.376 323.176ZM173.381 321.75C173.912 321.75 174.351 321.61 174.7 321.33C175.048 321.049 175.306 320.676 175.472 320.21C175.643 319.744 175.728 319.231 175.728 318.67C175.728 318.114 175.643 317.602 175.472 317.136C175.306 316.667 175.048 316.29 174.7 316.006C174.351 315.722 173.912 315.58 173.381 315.58C172.847 315.58 172.404 315.722 172.052 316.006C171.703 316.29 171.444 316.667 171.273 317.136C171.107 317.602 171.023 318.114 171.023 318.67C171.023 319.231 171.107 319.744 171.273 320.21C171.444 320.676 171.703 321.049 172.052 321.33C172.404 321.61 172.847 321.75 173.381 321.75ZM180.863 311.364V323H179.164V311.364H180.863ZM184.671 311.364V323H182.973V311.364H184.671ZM190.542 323.176C189.682 323.176 188.942 322.992 188.321 322.625C187.703 322.254 187.226 321.733 186.889 321.062C186.556 320.388 186.389 319.598 186.389 318.693C186.389 317.799 186.556 317.011 186.889 316.33C187.226 315.648 187.696 315.116 188.298 314.733C188.904 314.35 189.612 314.159 190.423 314.159C190.915 314.159 191.393 314.241 191.855 314.403C192.317 314.566 192.732 314.822 193.099 315.17C193.467 315.519 193.756 315.972 193.968 316.528C194.181 317.081 194.287 317.754 194.287 318.545V319.148H187.349V317.875H192.622C192.622 317.428 192.531 317.032 192.349 316.688C192.167 316.339 191.912 316.064 191.582 315.864C191.256 315.663 190.874 315.562 190.434 315.562C189.957 315.562 189.54 315.68 189.184 315.915C188.832 316.146 188.559 316.449 188.366 316.824C188.177 317.195 188.082 317.598 188.082 318.034V319.028C188.082 319.612 188.184 320.108 188.389 320.517C188.597 320.926 188.887 321.239 189.258 321.455C189.629 321.667 190.063 321.773 190.559 321.773C190.881 321.773 191.175 321.727 191.44 321.636C191.705 321.542 191.934 321.402 192.128 321.216C192.321 321.03 192.468 320.801 192.571 320.528L194.179 320.818C194.05 321.292 193.819 321.706 193.485 322.062C193.156 322.415 192.741 322.689 192.241 322.886C191.745 323.08 191.179 323.176 190.542 323.176ZM199.672 323.176C198.827 323.176 198.1 322.985 197.49 322.602C196.884 322.216 196.418 321.684 196.092 321.006C195.766 320.328 195.604 319.551 195.604 318.676C195.604 317.79 195.77 317.008 196.104 316.33C196.437 315.648 196.907 315.116 197.513 314.733C198.119 314.35 198.833 314.159 199.655 314.159C200.318 314.159 200.908 314.282 201.427 314.528C201.946 314.771 202.365 315.112 202.683 315.551C203.005 315.991 203.196 316.504 203.257 317.091H201.604C201.513 316.682 201.304 316.33 200.979 316.034C200.657 315.739 200.225 315.591 199.683 315.591C199.21 315.591 198.795 315.716 198.439 315.966C198.086 316.212 197.812 316.564 197.615 317.023C197.418 317.477 197.319 318.015 197.319 318.636C197.319 319.273 197.416 319.822 197.609 320.284C197.802 320.746 198.075 321.104 198.427 321.358C198.783 321.612 199.202 321.739 199.683 321.739C200.005 321.739 200.297 321.68 200.558 321.562C200.823 321.441 201.045 321.269 201.223 321.045C201.405 320.822 201.532 320.553 201.604 320.239H203.257C203.196 320.803 203.013 321.307 202.706 321.75C202.399 322.193 201.988 322.542 201.473 322.795C200.961 323.049 200.361 323.176 199.672 323.176ZM208.972 314.273V315.636H204.204V314.273H208.972ZM205.483 312.182H207.182V320.438C207.182 320.767 207.231 321.015 207.329 321.182C207.428 321.345 207.555 321.456 207.71 321.517C207.869 321.574 208.042 321.602 208.227 321.602C208.364 321.602 208.483 321.593 208.585 321.574C208.687 321.555 208.767 321.54 208.824 321.528L209.131 322.932C209.032 322.97 208.892 323.008 208.71 323.045C208.528 323.087 208.301 323.11 208.028 323.114C207.581 323.121 207.165 323.042 206.778 322.875C206.392 322.708 206.079 322.451 205.841 322.102C205.602 321.754 205.483 321.316 205.483 320.79V312.182ZM210.675 323V314.273H212.374V323H210.675ZM211.533 312.926C211.237 312.926 210.984 312.828 210.771 312.631C210.563 312.43 210.459 312.191 210.459 311.915C210.459 311.634 210.563 311.396 210.771 311.199C210.984 310.998 211.237 310.898 211.533 310.898C211.828 310.898 212.08 310.998 212.288 311.199C212.501 311.396 212.607 311.634 212.607 311.915C212.607 312.191 212.501 312.43 212.288 312.631C212.08 312.828 211.828 312.926 211.533 312.926ZM218.159 323.176C217.341 323.176 216.627 322.989 216.017 322.614C215.407 322.239 214.934 321.714 214.597 321.04C214.26 320.366 214.091 319.578 214.091 318.676C214.091 317.771 214.26 316.979 214.597 316.301C214.934 315.623 215.407 315.097 216.017 314.722C216.627 314.347 217.341 314.159 218.159 314.159C218.977 314.159 219.692 314.347 220.301 314.722C220.911 315.097 221.385 315.623 221.722 316.301C222.059 316.979 222.227 317.771 222.227 318.676C222.227 319.578 222.059 320.366 221.722 321.04C221.385 321.714 220.911 322.239 220.301 322.614C219.692 322.989 218.977 323.176 218.159 323.176ZM218.165 321.75C218.695 321.75 219.135 321.61 219.483 321.33C219.832 321.049 220.089 320.676 220.256 320.21C220.426 319.744 220.512 319.231 220.512 318.67C220.512 318.114 220.426 317.602 220.256 317.136C220.089 316.667 219.832 316.29 219.483 316.006C219.135 315.722 218.695 315.58 218.165 315.58C217.631 315.58 217.188 315.722 216.835 316.006C216.487 316.29 216.227 316.667 216.057 317.136C215.89 317.602 215.807 318.114 215.807 318.67C215.807 319.231 215.89 319.744 216.057 320.21C216.227 320.676 216.487 321.049 216.835 321.33C217.188 321.61 217.631 321.75 218.165 321.75ZM225.647 317.818V323H223.948V314.273H225.578V315.693H225.686C225.887 315.231 226.202 314.86 226.63 314.58C227.061 314.299 227.605 314.159 228.26 314.159C228.855 314.159 229.376 314.284 229.823 314.534C230.27 314.78 230.616 315.148 230.863 315.636C231.109 316.125 231.232 316.729 231.232 317.449V323H229.533V317.653C229.533 317.021 229.368 316.527 229.039 316.17C228.709 315.811 228.257 315.631 227.681 315.631C227.287 315.631 226.936 315.716 226.63 315.886C226.327 316.057 226.086 316.307 225.908 316.636C225.734 316.962 225.647 317.356 225.647 317.818Z" fill="black" fill-opacity="0.8"/>
<rect x="2" y="380" width="241" height="38" rx="3" stroke="#0C7264" stroke-width="4" stroke-linecap="round"/>
<path d="M20.278 393.364H22.0394V401.017C22.0394 401.831 21.8481 402.553 21.4655 403.182C21.0829 403.807 20.545 404.299 19.8519 404.659C19.1587 405.015 18.3462 405.193 17.4144 405.193C16.4863 405.193 15.6757 405.015 14.9825 404.659C14.2894 404.299 13.7515 403.807 13.3689 403.182C12.9863 402.553 12.795 401.831 12.795 401.017V393.364H14.5507V400.875C14.5507 401.402 14.6662 401.869 14.8973 402.278C15.1322 402.688 15.4636 403.009 15.8916 403.244C16.3197 403.475 16.8272 403.591 17.4144 403.591C18.0053 403.591 18.5147 403.475 18.9428 403.244C19.3746 403.009 19.7041 402.688 19.9314 402.278C20.1625 401.869 20.278 401.402 20.278 400.875V393.364ZM24.2795 408.273V396.273H25.9386V397.688H26.0807C26.1792 397.506 26.3212 397.295 26.5068 397.057C26.6924 396.818 26.95 396.61 27.2795 396.432C27.6091 396.25 28.0447 396.159 28.5864 396.159C29.2909 396.159 29.9197 396.337 30.4727 396.693C31.0258 397.049 31.4595 397.562 31.7739 398.233C32.092 398.903 32.2511 399.71 32.2511 400.653C32.2511 401.597 32.0939 402.405 31.7795 403.08C31.4652 403.75 31.0333 404.267 30.4841 404.631C29.9348 404.991 29.308 405.17 28.6034 405.17C28.0731 405.17 27.6394 405.081 27.3023 404.903C26.9689 404.725 26.7076 404.517 26.5182 404.278C26.3288 404.04 26.183 403.828 26.0807 403.642H25.9784V408.273H24.2795ZM25.9443 400.636C25.9443 401.25 26.0333 401.788 26.2114 402.25C26.3894 402.712 26.647 403.074 26.9841 403.335C27.3212 403.593 27.7341 403.722 28.2227 403.722C28.7303 403.722 29.1545 403.587 29.4955 403.318C29.8364 403.045 30.0939 402.676 30.2682 402.21C30.4462 401.744 30.5352 401.22 30.5352 400.636C30.5352 400.061 30.4481 399.544 30.2739 399.085C30.1034 398.627 29.8458 398.265 29.5011 398C29.1602 397.735 28.7341 397.602 28.2227 397.602C27.7303 397.602 27.3136 397.729 26.9727 397.983C26.6356 398.237 26.3799 398.591 26.2057 399.045C26.0314 399.5 25.9443 400.03 25.9443 400.636ZM35.6774 393.364V405H33.9785V393.364H35.6774ZM41.4631 405.176C40.6449 405.176 39.9309 404.989 39.321 404.614C38.7112 404.239 38.2377 403.714 37.9006 403.04C37.5634 402.366 37.3949 401.578 37.3949 400.676C37.3949 399.771 37.5634 398.979 37.9006 398.301C38.2377 397.623 38.7112 397.097 39.321 396.722C39.9309 396.347 40.6449 396.159 41.4631 396.159C42.2812 396.159 42.9953 396.347 43.6051 396.722C44.215 397.097 44.6884 397.623 45.0256 398.301C45.3627 398.979 45.5312 399.771 45.5312 400.676C45.5312 401.578 45.3627 402.366 45.0256 403.04C44.6884 403.714 44.215 404.239 43.6051 404.614C42.9953 404.989 42.2812 405.176 41.4631 405.176ZM41.4687 403.75C41.999 403.75 42.4384 403.61 42.7869 403.33C43.1354 403.049 43.393 402.676 43.5596 402.21C43.7301 401.744 43.8153 401.231 43.8153 400.67C43.8153 400.114 43.7301 399.602 43.5596 399.136C43.393 398.667 43.1354 398.29 42.7869 398.006C42.4384 397.722 41.999 397.58 41.4687 397.58C40.9346 397.58 40.4915 397.722 40.1392 398.006C39.7907 398.29 39.5312 398.667 39.3608 399.136C39.1941 399.602 39.1108 400.114 39.1108 400.67C39.1108 401.231 39.1941 401.744 39.3608 402.21C39.5312 402.676 39.7907 403.049 40.1392 403.33C40.4915 403.61 40.9346 403.75 41.4687 403.75ZM49.7913 405.193C49.2383 405.193 48.7383 405.091 48.2913 404.886C47.8443 404.678 47.4902 404.377 47.2288 403.983C46.9712 403.589 46.8425 403.106 46.8425 402.534C46.8425 402.042 46.9372 401.636 47.1265 401.318C47.3159 401 47.5716 400.748 47.8936 400.562C48.2156 400.377 48.5754 400.237 48.9731 400.142C49.3709 400.047 49.7762 399.975 50.189 399.926C50.7118 399.866 51.136 399.816 51.4618 399.778C51.7875 399.737 52.0243 399.67 52.172 399.58C52.3197 399.489 52.3936 399.341 52.3936 399.136V399.097C52.3936 398.6 52.2534 398.216 51.9731 397.943C51.6966 397.67 51.2837 397.534 50.7345 397.534C50.1625 397.534 49.7118 397.661 49.3822 397.915C49.0565 398.165 48.8311 398.443 48.7061 398.75L47.1095 398.386C47.2989 397.856 47.5754 397.428 47.939 397.102C48.3065 396.773 48.7288 396.534 49.2061 396.386C49.6834 396.235 50.1853 396.159 50.7118 396.159C51.0603 396.159 51.4296 396.201 51.8197 396.284C52.2137 396.364 52.5811 396.511 52.922 396.727C53.2667 396.943 53.5489 397.252 53.7686 397.653C53.9883 398.051 54.0981 398.568 54.0981 399.205V405H52.439V403.807H52.3709C52.261 404.027 52.0962 404.242 51.8765 404.455C51.6568 404.667 51.3747 404.843 51.03 404.983C50.6853 405.123 50.2724 405.193 49.7913 405.193ZM50.1606 403.83C50.6303 403.83 51.0318 403.737 51.3652 403.551C51.7023 403.366 51.958 403.123 52.1322 402.824C52.3103 402.521 52.3993 402.197 52.3993 401.852V400.727C52.3387 400.788 52.2212 400.845 52.047 400.898C51.8765 400.947 51.6815 400.991 51.4618 401.028C51.2421 401.062 51.0281 401.095 50.8197 401.125C50.6114 401.152 50.4372 401.174 50.297 401.193C49.9675 401.235 49.6663 401.305 49.3936 401.403C49.1247 401.502 48.9087 401.644 48.7459 401.83C48.5868 402.011 48.5072 402.254 48.5072 402.557C48.5072 402.977 48.6625 403.295 48.9731 403.511C49.2837 403.723 49.6796 403.83 50.1606 403.83ZM59.452 405.17C58.7474 405.17 58.1186 404.991 57.5656 404.631C57.0164 404.267 56.5845 403.75 56.2701 403.08C55.9595 402.405 55.8042 401.597 55.8042 400.653C55.8042 399.71 55.9614 398.903 56.2758 398.233C56.594 397.562 57.0296 397.049 57.5826 396.693C58.1357 396.337 58.7626 396.159 59.4633 396.159C60.005 396.159 60.4406 396.25 60.7701 396.432C61.1035 396.61 61.3611 396.818 61.5429 397.057C61.7285 397.295 61.8724 397.506 61.9747 397.688H62.077V393.364H63.7758V405H62.1167V403.642H61.9747C61.8724 403.828 61.7247 404.04 61.5315 404.278C61.3421 404.517 61.0808 404.725 60.7474 404.903C60.4141 405.081 59.9823 405.17 59.452 405.17ZM59.827 403.722C60.3156 403.722 60.7285 403.593 61.0656 403.335C61.4065 403.074 61.6641 402.712 61.8383 402.25C62.0164 401.788 62.1054 401.25 62.1054 400.636C62.1054 400.03 62.0183 399.5 61.844 399.045C61.6698 398.591 61.4141 398.237 61.077 397.983C60.7398 397.729 60.3232 397.602 59.827 397.602C59.3156 397.602 58.8895 397.735 58.5486 398C58.2076 398.265 57.9501 398.627 57.7758 399.085C57.6054 399.544 57.5201 400.061 57.5201 400.636C57.5201 401.22 57.6073 401.744 57.7815 402.21C57.9558 402.676 58.2133 403.045 58.5542 403.318C58.8989 403.587 59.3232 403.722 59.827 403.722ZM79.8841 397.148H78.1113C78.0431 396.769 77.9163 396.436 77.7306 396.148C77.545 395.86 77.3178 395.616 77.0488 395.415C76.7799 395.214 76.4788 395.062 76.1454 394.96C75.8159 394.858 75.4655 394.807 75.0943 394.807C74.4238 394.807 73.8235 394.975 73.2931 395.312C72.7666 395.65 72.35 396.144 72.0431 396.795C71.7401 397.447 71.5886 398.242 71.5886 399.182C71.5886 400.129 71.7401 400.928 72.0431 401.58C72.35 402.231 72.7685 402.723 73.2988 403.057C73.8291 403.39 74.4257 403.557 75.0886 403.557C75.456 403.557 75.8045 403.508 76.1341 403.409C76.4674 403.307 76.7685 403.157 77.0375 402.96C77.3064 402.763 77.5337 402.523 77.7193 402.239C77.9087 401.951 78.0394 401.621 78.1113 401.25L79.8841 401.256C79.7894 401.828 79.6056 402.354 79.3329 402.835C79.064 403.312 78.7174 403.725 78.2931 404.074C77.8727 404.419 77.3916 404.686 76.85 404.875C76.3083 405.064 75.7174 405.159 75.0772 405.159C74.0697 405.159 73.1719 404.92 72.3841 404.443C71.5962 403.962 70.975 403.275 70.5204 402.381C70.0697 401.487 69.8443 400.42 69.8443 399.182C69.8443 397.939 70.0716 396.873 70.5261 395.983C70.9806 395.089 71.6019 394.403 72.3897 393.926C73.1776 393.445 74.0735 393.205 75.0772 393.205C75.6947 393.205 76.2704 393.294 76.8045 393.472C77.3424 393.646 77.8253 393.903 78.2534 394.244C78.6814 394.581 79.0356 394.994 79.3159 395.483C79.5962 395.968 79.7856 396.523 79.8841 397.148ZM85.3487 405.176C84.5305 405.176 83.8165 404.989 83.2066 404.614C82.5968 404.239 82.1233 403.714 81.7862 403.04C81.4491 402.366 81.2805 401.578 81.2805 400.676C81.2805 399.771 81.4491 398.979 81.7862 398.301C82.1233 397.623 82.5968 397.097 83.2066 396.722C83.8165 396.347 84.5305 396.159 85.3487 396.159C86.1669 396.159 86.8809 396.347 87.4907 396.722C88.1006 397.097 88.5741 397.623 88.9112 398.301C89.2483 398.979 89.4169 399.771 89.4169 400.676C89.4169 401.578 89.2483 402.366 88.9112 403.04C88.5741 403.714 88.1006 404.239 87.4907 404.614C86.8809 404.989 86.1669 405.176 85.3487 405.176ZM85.3544 403.75C85.8847 403.75 86.3241 403.61 86.6725 403.33C87.021 403.049 87.2786 402.676 87.4453 402.21C87.6157 401.744 87.701 401.231 87.701 400.67C87.701 400.114 87.6157 399.602 87.4453 399.136C87.2786 398.667 87.021 398.29 86.6725 398.006C86.3241 397.722 85.8847 397.58 85.3544 397.58C84.8203 397.58 84.3771 397.722 84.0248 398.006C83.6763 398.29 83.4169 398.667 83.2464 399.136C83.0797 399.602 82.9964 400.114 82.9964 400.67C82.9964 401.231 83.0797 401.744 83.2464 402.21C83.4169 402.676 83.6763 403.049 84.0248 403.33C84.3771 403.61 84.8203 403.75 85.3544 403.75ZM92.836 393.364V405H91.1372V393.364H92.836ZM96.6444 393.364V405H94.9455V393.364H96.6444ZM102.515 405.176C101.655 405.176 100.915 404.992 100.294 404.625C99.6763 404.254 99.199 403.733 98.8619 403.062C98.5285 402.388 98.3619 401.598 98.3619 400.693C98.3619 399.799 98.5285 399.011 98.8619 398.33C99.199 397.648 99.6687 397.116 100.271 396.733C100.877 396.35 101.585 396.159 102.396 396.159C102.888 396.159 103.366 396.241 103.828 396.403C104.29 396.566 104.705 396.822 105.072 397.17C105.44 397.519 105.729 397.972 105.941 398.528C106.154 399.081 106.26 399.754 106.26 400.545V401.148H99.3221V399.875H104.595C104.595 399.428 104.504 399.032 104.322 398.688C104.14 398.339 103.885 398.064 103.555 397.864C103.229 397.663 102.847 397.562 102.407 397.562C101.93 397.562 101.513 397.68 101.157 397.915C100.805 398.146 100.532 398.449 100.339 398.824C100.15 399.195 100.055 399.598 100.055 400.034V401.028C100.055 401.612 100.157 402.108 100.362 402.517C100.57 402.926 100.86 403.239 101.231 403.455C101.602 403.667 102.036 403.773 102.532 403.773C102.854 403.773 103.148 403.727 103.413 403.636C103.678 403.542 103.907 403.402 104.101 403.216C104.294 403.03 104.441 402.801 104.544 402.528L106.152 402.818C106.023 403.292 105.792 403.706 105.458 404.062C105.129 404.415 104.714 404.689 104.214 404.886C103.718 405.08 103.152 405.176 102.515 405.176ZM111.645 405.176C110.8 405.176 110.073 404.985 109.463 404.602C108.857 404.216 108.391 403.684 108.065 403.006C107.739 402.328 107.576 401.551 107.576 400.676C107.576 399.79 107.743 399.008 108.076 398.33C108.41 397.648 108.88 397.116 109.486 396.733C110.092 396.35 110.806 396.159 111.628 396.159C112.291 396.159 112.881 396.282 113.4 396.528C113.919 396.771 114.338 397.112 114.656 397.551C114.978 397.991 115.169 398.504 115.23 399.091H113.576C113.486 398.682 113.277 398.33 112.951 398.034C112.63 397.739 112.198 397.591 111.656 397.591C111.183 397.591 110.768 397.716 110.412 397.966C110.059 398.212 109.785 398.564 109.588 399.023C109.391 399.477 109.292 400.015 109.292 400.636C109.292 401.273 109.389 401.822 109.582 402.284C109.775 402.746 110.048 403.104 110.4 403.358C110.756 403.612 111.175 403.739 111.656 403.739C111.978 403.739 112.27 403.68 112.531 403.562C112.796 403.441 113.018 403.269 113.196 403.045C113.378 402.822 113.505 402.553 113.576 402.239H115.23C115.169 402.803 114.986 403.307 114.679 403.75C114.372 404.193 113.961 404.542 113.446 404.795C112.934 405.049 112.334 405.176 111.645 405.176ZM120.945 396.273V397.636H116.177V396.273H120.945ZM117.456 394.182H119.155V402.438C119.155 402.767 119.204 403.015 119.302 403.182C119.401 403.345 119.528 403.456 119.683 403.517C119.842 403.574 120.015 403.602 120.2 403.602C120.337 403.602 120.456 403.593 120.558 403.574C120.66 403.555 120.74 403.54 120.797 403.528L121.104 404.932C121.005 404.97 120.865 405.008 120.683 405.045C120.501 405.087 120.274 405.11 120.001 405.114C119.554 405.121 119.138 405.042 118.751 404.875C118.365 404.708 118.052 404.451 117.814 404.102C117.575 403.754 117.456 403.316 117.456 402.79V394.182ZM122.648 405V396.273H124.347V405H122.648ZM123.506 394.926C123.21 394.926 122.957 394.828 122.744 394.631C122.536 394.43 122.432 394.191 122.432 393.915C122.432 393.634 122.536 393.396 122.744 393.199C122.957 392.998 123.21 392.898 123.506 392.898C123.801 392.898 124.053 392.998 124.261 393.199C124.474 393.396 124.58 393.634 124.58 393.915C124.58 394.191 124.474 394.43 124.261 394.631C124.053 394.828 123.801 394.926 123.506 394.926ZM130.132 405.176C129.314 405.176 128.6 404.989 127.99 404.614C127.38 404.239 126.907 403.714 126.57 403.04C126.233 402.366 126.064 401.578 126.064 400.676C126.064 399.771 126.233 398.979 126.57 398.301C126.907 397.623 127.38 397.097 127.99 396.722C128.6 396.347 129.314 396.159 130.132 396.159C130.95 396.159 131.665 396.347 132.274 396.722C132.884 397.097 133.358 397.623 133.695 398.301C134.032 398.979 134.2 399.771 134.2 400.676C134.2 401.578 134.032 402.366 133.695 403.04C133.358 403.714 132.884 404.239 132.274 404.614C131.665 404.989 130.95 405.176 130.132 405.176ZM130.138 403.75C130.668 403.75 131.108 403.61 131.456 403.33C131.805 403.049 132.062 402.676 132.229 402.21C132.399 401.744 132.485 401.231 132.485 400.67C132.485 400.114 132.399 399.602 132.229 399.136C132.062 398.667 131.805 398.29 131.456 398.006C131.108 397.722 130.668 397.58 130.138 397.58C129.604 397.58 129.161 397.722 128.808 398.006C128.46 398.29 128.2 398.667 128.03 399.136C127.863 399.602 127.78 400.114 127.78 400.67C127.78 401.231 127.863 401.744 128.03 402.21C128.2 402.676 128.46 403.049 128.808 403.33C129.161 403.61 129.604 403.75 130.138 403.75ZM137.62 399.818V405H135.921V396.273H137.551V397.693H137.659C137.86 397.231 138.175 396.86 138.603 396.58C139.034 396.299 139.578 396.159 140.233 396.159C140.828 396.159 141.349 396.284 141.796 396.534C142.243 396.78 142.589 397.148 142.836 397.636C143.082 398.125 143.205 398.729 143.205 399.449V405H141.506V399.653C141.506 399.021 141.341 398.527 141.012 398.17C140.682 397.811 140.23 397.631 139.654 397.631C139.26 397.631 138.909 397.716 138.603 397.886C138.3 398.057 138.059 398.307 137.881 398.636C137.707 398.962 137.62 399.356 137.62 399.818ZM153.44 396.273V397.636H148.672V396.273H153.44ZM149.951 394.182H151.65V402.438C151.65 402.767 151.699 403.015 151.797 403.182C151.896 403.345 152.023 403.456 152.178 403.517C152.337 403.574 152.51 403.602 152.695 403.602C152.832 403.602 152.951 403.593 153.053 403.574C153.155 403.555 153.235 403.54 153.292 403.528L153.599 404.932C153.5 404.97 153.36 405.008 153.178 405.045C152.996 405.087 152.769 405.11 152.496 405.114C152.049 405.121 151.633 405.042 151.246 404.875C150.86 404.708 150.547 404.451 150.309 404.102C150.07 403.754 149.951 403.316 149.951 402.79V394.182ZM158.725 405.176C157.907 405.176 157.193 404.989 156.583 404.614C155.973 404.239 155.5 403.714 155.163 403.04C154.826 402.366 154.657 401.578 154.657 400.676C154.657 399.771 154.826 398.979 155.163 398.301C155.5 397.623 155.973 397.097 156.583 396.722C157.193 396.347 157.907 396.159 158.725 396.159C159.543 396.159 160.257 396.347 160.867 396.722C161.477 397.097 161.951 397.623 162.288 398.301C162.625 398.979 162.793 399.771 162.793 400.676C162.793 401.578 162.625 402.366 162.288 403.04C161.951 403.714 161.477 404.239 160.867 404.614C160.257 404.989 159.543 405.176 158.725 405.176ZM158.731 403.75C159.261 403.75 159.701 403.61 160.049 403.33C160.398 403.049 160.655 402.676 160.822 402.21C160.992 401.744 161.077 401.231 161.077 400.67C161.077 400.114 160.992 399.602 160.822 399.136C160.655 398.667 160.398 398.29 160.049 398.006C159.701 397.722 159.261 397.58 158.731 397.58C158.197 397.58 157.754 397.722 157.401 398.006C157.053 398.29 156.793 398.667 156.623 399.136C156.456 399.602 156.373 400.114 156.373 400.67C156.373 401.231 156.456 401.744 156.623 402.21C156.793 402.676 157.053 403.049 157.401 403.33C157.754 403.61 158.197 403.75 158.731 403.75ZM168.708 405V393.364H172.856C173.761 393.364 174.511 393.528 175.106 393.858C175.701 394.187 176.146 394.638 176.441 395.21C176.737 395.778 176.885 396.419 176.885 397.131C176.885 397.847 176.735 398.491 176.436 399.062C176.14 399.631 175.693 400.081 175.095 400.415C174.5 400.744 173.752 400.909 172.85 400.909H169.998V399.42H172.691C173.263 399.42 173.727 399.322 174.083 399.125C174.439 398.924 174.701 398.652 174.867 398.307C175.034 397.962 175.117 397.57 175.117 397.131C175.117 396.691 175.034 396.301 174.867 395.96C174.701 395.619 174.438 395.352 174.078 395.159C173.722 394.966 173.252 394.869 172.669 394.869H170.464V405H168.708ZM182.197 405.176C181.379 405.176 180.665 404.989 180.055 404.614C179.445 404.239 178.972 403.714 178.635 403.04C178.298 402.366 178.129 401.578 178.129 400.676C178.129 399.771 178.298 398.979 178.635 398.301C178.972 397.623 179.445 397.097 180.055 396.722C180.665 396.347 181.379 396.159 182.197 396.159C183.015 396.159 183.729 396.347 184.339 396.722C184.949 397.097 185.423 397.623 185.76 398.301C186.097 398.979 186.265 399.771 186.265 400.676C186.265 401.578 186.097 402.366 185.76 403.04C185.423 403.714 184.949 404.239 184.339 404.614C183.729 404.989 183.015 405.176 182.197 405.176ZM182.203 403.75C182.733 403.75 183.173 403.61 183.521 403.33C183.87 403.049 184.127 402.676 184.294 402.21C184.464 401.744 184.549 401.231 184.549 400.67C184.549 400.114 184.464 399.602 184.294 399.136C184.127 398.667 183.87 398.29 183.521 398.006C183.173 397.722 182.733 397.58 182.203 397.58C181.669 397.58 181.226 397.722 180.873 398.006C180.525 398.29 180.265 398.667 180.095 399.136C179.928 399.602 179.845 400.114 179.845 400.67C179.845 401.231 179.928 401.744 180.095 402.21C180.265 402.676 180.525 403.049 180.873 403.33C181.226 403.61 181.669 403.75 182.203 403.75ZM194.525 398.403L192.986 398.676C192.921 398.479 192.819 398.292 192.679 398.114C192.542 397.936 192.357 397.79 192.122 397.676C191.887 397.562 191.594 397.506 191.241 397.506C190.76 397.506 190.359 397.614 190.037 397.83C189.715 398.042 189.554 398.316 189.554 398.653C189.554 398.945 189.662 399.18 189.878 399.358C190.094 399.536 190.442 399.682 190.923 399.795L192.31 400.114C193.113 400.299 193.711 400.585 194.105 400.972C194.499 401.358 194.696 401.86 194.696 402.477C194.696 403 194.544 403.466 194.241 403.875C193.942 404.28 193.524 404.598 192.986 404.83C192.452 405.061 191.832 405.176 191.128 405.176C190.15 405.176 189.353 404.968 188.736 404.551C188.118 404.131 187.739 403.534 187.599 402.761L189.241 402.511C189.344 402.939 189.554 403.263 189.872 403.483C190.19 403.699 190.605 403.807 191.116 403.807C191.673 403.807 192.118 403.691 192.452 403.46C192.785 403.225 192.952 402.939 192.952 402.602C192.952 402.33 192.849 402.1 192.645 401.915C192.444 401.729 192.135 401.589 191.719 401.494L190.241 401.17C189.427 400.985 188.825 400.689 188.435 400.284C188.048 399.879 187.855 399.366 187.855 398.744C187.855 398.229 187.999 397.778 188.287 397.392C188.575 397.006 188.972 396.705 189.48 396.489C189.988 396.269 190.569 396.159 191.224 396.159C192.167 396.159 192.91 396.364 193.452 396.773C193.993 397.178 194.351 397.722 194.525 398.403ZM200.462 396.273V397.636H195.695V396.273H200.462ZM196.973 394.182H198.672V402.438C198.672 402.767 198.721 403.015 198.82 403.182C198.918 403.345 199.045 403.456 199.2 403.517C199.359 403.574 199.532 403.602 199.717 403.602C199.854 403.602 199.973 403.593 200.075 403.574C200.178 403.555 200.257 403.54 200.314 403.528L200.621 404.932C200.522 404.97 200.382 405.008 200.2 405.045C200.018 405.087 199.791 405.11 199.518 405.114C199.072 405.121 198.655 405.042 198.268 404.875C197.882 404.708 197.57 404.451 197.331 404.102C197.092 403.754 196.973 403.316 196.973 402.79V394.182ZM202.165 405V396.273H203.796V397.693H203.904C204.085 397.212 204.383 396.837 204.796 396.568C205.208 396.295 205.703 396.159 206.279 396.159C206.862 396.159 207.351 396.295 207.744 396.568C208.142 396.841 208.436 397.216 208.625 397.693H208.716C208.924 397.227 209.256 396.856 209.71 396.58C210.165 396.299 210.707 396.159 211.335 396.159C212.127 396.159 212.773 396.407 213.273 396.903C213.777 397.4 214.029 398.148 214.029 399.148V405H212.33V399.307C212.33 398.716 212.169 398.288 211.847 398.023C211.525 397.758 211.14 397.625 210.693 397.625C210.14 397.625 209.71 397.795 209.404 398.136C209.097 398.473 208.943 398.907 208.943 399.438V405H207.25V399.199C207.25 398.725 207.102 398.345 206.807 398.057C206.512 397.769 206.127 397.625 205.654 397.625C205.332 397.625 205.034 397.71 204.762 397.881C204.493 398.047 204.275 398.28 204.108 398.58C203.945 398.879 203.864 399.225 203.864 399.619V405H202.165ZM218.669 405.193C218.116 405.193 217.616 405.091 217.169 404.886C216.722 404.678 216.368 404.377 216.107 403.983C215.849 403.589 215.72 403.106 215.72 402.534C215.72 402.042 215.815 401.636 216.005 401.318C216.194 401 216.45 400.748 216.772 400.562C217.094 400.377 217.453 400.237 217.851 400.142C218.249 400.047 218.654 399.975 219.067 399.926C219.59 399.866 220.014 399.816 220.34 399.778C220.666 399.737 220.902 399.67 221.05 399.58C221.198 399.489 221.272 399.341 221.272 399.136V399.097C221.272 398.6 221.131 398.216 220.851 397.943C220.575 397.67 220.162 397.534 219.612 397.534C219.041 397.534 218.59 397.661 218.26 397.915C217.934 398.165 217.709 398.443 217.584 398.75L215.987 398.386C216.177 397.856 216.453 397.428 216.817 397.102C217.184 396.773 217.607 396.534 218.084 396.386C218.561 396.235 219.063 396.159 219.59 396.159C219.938 396.159 220.308 396.201 220.698 396.284C221.092 396.364 221.459 396.511 221.8 396.727C222.145 396.943 222.427 397.252 222.647 397.653C222.866 398.051 222.976 398.568 222.976 399.205V405H221.317V403.807H221.249C221.139 404.027 220.974 404.242 220.755 404.455C220.535 404.667 220.253 404.843 219.908 404.983C219.563 405.123 219.15 405.193 218.669 405.193ZM219.039 403.83C219.508 403.83 219.91 403.737 220.243 403.551C220.58 403.366 220.836 403.123 221.01 402.824C221.188 402.521 221.277 402.197 221.277 401.852V400.727C221.217 400.788 221.099 400.845 220.925 400.898C220.755 400.947 220.559 400.991 220.34 401.028C220.12 401.062 219.906 401.095 219.698 401.125C219.489 401.152 219.315 401.174 219.175 401.193C218.845 401.235 218.544 401.305 218.272 401.403C218.003 401.502 217.787 401.644 217.624 401.83C217.465 402.011 217.385 402.254 217.385 402.557C217.385 402.977 217.541 403.295 217.851 403.511C218.162 403.723 218.558 403.83 219.039 403.83ZM226.762 399.818V405H225.063V396.273H226.694V397.693H226.802C227.002 397.231 227.317 396.86 227.745 396.58C228.177 396.299 228.72 396.159 229.375 396.159C229.97 396.159 230.491 396.284 230.938 396.534C231.385 396.78 231.731 397.148 231.978 397.636C232.224 398.125 232.347 398.729 232.347 399.449V405H230.648V399.653C230.648 399.021 230.483 398.527 230.154 398.17C229.824 397.811 229.372 397.631 228.796 397.631C228.402 397.631 228.052 397.716 227.745 397.886C227.442 398.057 227.201 398.307 227.023 398.636C226.849 398.962 226.762 399.356 226.762 399.818Z" fill="black" fill-opacity="0.8"/>
<rect x="2" y="215" width="230" height="37" rx="3" stroke="#0C7264" stroke-width="4" stroke-linecap="round"/>
<path d="M61.5793 240H59.7157L63.9032 228.364H65.9316L70.1191 240H68.2554L64.9657 230.477H64.8748L61.5793 240ZM61.8918 235.443H67.9373V236.92H61.8918V235.443ZM73.186 234.818V240H71.4871V231.273H73.1178V232.693H73.2257C73.4265 232.231 73.7409 231.86 74.1689 231.58C74.6007 231.299 75.1443 231.159 75.7996 231.159C76.3943 231.159 76.9151 231.284 77.3621 231.534C77.8091 231.78 78.1557 232.148 78.4019 232.636C78.6481 233.125 78.7712 233.729 78.7712 234.449V240H77.0723V234.653C77.0723 234.021 76.9076 233.527 76.578 233.17C76.2485 232.811 75.7958 232.631 75.2201 232.631C74.8261 232.631 74.4757 232.716 74.1689 232.886C73.8659 233.057 73.6254 233.307 73.4473 233.636C73.2731 233.962 73.186 234.356 73.186 234.818ZM83.4134 240.193C82.8603 240.193 82.3603 240.091 81.9134 239.886C81.4664 239.678 81.1122 239.377 80.8509 238.983C80.5933 238.589 80.4645 238.106 80.4645 237.534C80.4645 237.042 80.5592 236.636 80.7486 236.318C80.938 236 81.1937 235.748 81.5157 235.562C81.8376 235.377 82.1975 235.237 82.5952 235.142C82.9929 235.047 83.3982 234.975 83.8111 234.926C84.3338 234.866 84.7581 234.816 85.0838 234.778C85.4096 234.737 85.6463 234.67 85.7941 234.58C85.9418 234.489 86.0157 234.341 86.0157 234.136V234.097C86.0157 233.6 85.8755 233.216 85.5952 232.943C85.3187 232.67 84.9058 232.534 84.3566 232.534C83.7846 232.534 83.3338 232.661 83.0043 232.915C82.6785 233.165 82.4532 233.443 82.3282 233.75L80.7316 233.386C80.921 232.856 81.1975 232.428 81.5611 232.102C81.9285 231.773 82.3509 231.534 82.8282 231.386C83.3054 231.235 83.8073 231.159 84.3338 231.159C84.6823 231.159 85.0516 231.201 85.4418 231.284C85.8357 231.364 86.2032 231.511 86.5441 231.727C86.8888 231.943 87.171 232.252 87.3907 232.653C87.6103 233.051 87.7202 233.568 87.7202 234.205V240H86.0611V238.807H85.9929C85.8831 239.027 85.7183 239.242 85.4986 239.455C85.2789 239.667 84.9967 239.843 84.652 239.983C84.3073 240.123 83.8944 240.193 83.4134 240.193ZM83.7827 238.83C84.2524 238.83 84.6539 238.737 84.9872 238.551C85.3244 238.366 85.58 238.123 85.7543 237.824C85.9323 237.521 86.0213 237.197 86.0213 236.852V235.727C85.9607 235.788 85.8433 235.845 85.6691 235.898C85.4986 235.947 85.3035 235.991 85.0838 236.028C84.8641 236.062 84.6501 236.095 84.4418 236.125C84.2335 236.152 84.0592 236.174 83.9191 236.193C83.5895 236.235 83.2884 236.305 83.0157 236.403C82.7467 236.502 82.5308 236.644 82.3679 236.83C82.2088 237.011 82.1293 237.254 82.1293 237.557C82.1293 237.977 82.2846 238.295 82.5952 238.511C82.9058 238.723 83.3016 238.83 83.7827 238.83ZM91.5058 228.364V240H89.807V228.364H91.5058ZM94.6892 243.273C94.4354 243.273 94.2044 243.252 93.996 243.21C93.7877 243.172 93.6324 243.131 93.5301 243.085L93.9392 241.693C94.2498 241.777 94.5263 241.813 94.7688 241.801C95.0112 241.79 95.2252 241.699 95.4108 241.528C95.6002 241.358 95.7669 241.08 95.9108 240.693L96.121 240.114L92.9279 231.273H94.746L96.9563 238.045H97.0472L99.2574 231.273H101.081L97.4847 241.165C97.318 241.619 97.1059 242.004 96.8483 242.318C96.5907 242.636 96.2839 242.875 95.9279 243.034C95.5718 243.193 95.1589 243.273 94.6892 243.273ZM102.32 240V238.835L107.047 232.83V232.75H102.473V231.273H109.167V232.511L104.621 238.443V238.523H109.326V240H102.32ZM114.665 240.176C113.805 240.176 113.065 239.992 112.444 239.625C111.826 239.254 111.349 238.733 111.012 238.062C110.679 237.388 110.512 236.598 110.512 235.693C110.512 234.799 110.679 234.011 111.012 233.33C111.349 232.648 111.819 232.116 112.421 231.733C113.027 231.35 113.735 231.159 114.546 231.159C115.038 231.159 115.516 231.241 115.978 231.403C116.44 231.566 116.855 231.822 117.222 232.17C117.59 232.519 117.879 232.972 118.091 233.528C118.304 234.081 118.41 234.754 118.41 235.545V236.148H111.472V234.875H116.745C116.745 234.428 116.654 234.032 116.472 233.688C116.29 233.339 116.035 233.064 115.705 232.864C115.379 232.663 114.997 232.562 114.557 232.562C114.08 232.562 113.663 232.68 113.307 232.915C112.955 233.146 112.682 233.449 112.489 233.824C112.3 234.195 112.205 234.598 112.205 235.034V236.028C112.205 236.612 112.307 237.108 112.512 237.517C112.72 237.926 113.01 238.239 113.381 238.455C113.752 238.667 114.186 238.773 114.682 238.773C115.004 238.773 115.298 238.727 115.563 238.636C115.828 238.542 116.057 238.402 116.251 238.216C116.444 238.03 116.591 237.801 116.694 237.528L118.302 237.818C118.173 238.292 117.942 238.706 117.609 239.062C117.279 239.415 116.864 239.689 116.364 239.886C115.868 240.08 115.302 240.176 114.665 240.176ZM126.069 240L123.501 231.273H125.257L126.967 237.682H127.052L128.768 231.273H130.524L132.228 237.653H132.313L134.012 231.273H135.768L133.205 240H131.472L129.7 233.699H129.569L127.796 240H126.069ZM137.204 240V231.273H138.903V240H137.204ZM138.062 229.926C137.767 229.926 137.513 229.828 137.301 229.631C137.092 229.43 136.988 229.191 136.988 228.915C136.988 228.634 137.092 228.396 137.301 228.199C137.513 227.998 137.767 227.898 138.062 227.898C138.358 227.898 138.609 227.998 138.818 228.199C139.03 228.396 139.136 228.634 139.136 228.915C139.136 229.191 139.03 229.43 138.818 229.631C138.609 229.828 138.358 229.926 138.062 229.926ZM145.086 231.273V232.636H140.319V231.273H145.086ZM141.598 229.182H143.297V237.438C143.297 237.767 143.346 238.015 143.444 238.182C143.543 238.345 143.67 238.456 143.825 238.517C143.984 238.574 144.156 238.602 144.342 238.602C144.478 238.602 144.598 238.593 144.7 238.574C144.802 238.555 144.882 238.54 144.939 238.528L145.245 239.932C145.147 239.97 145.007 240.008 144.825 240.045C144.643 240.087 144.416 240.11 144.143 240.114C143.696 240.121 143.28 240.042 142.893 239.875C142.507 239.708 142.194 239.451 141.956 239.102C141.717 238.754 141.598 238.316 141.598 237.79V229.182ZM148.676 234.818V240H146.977V228.364H148.653V232.693H148.761C148.966 232.223 149.278 231.85 149.699 231.574C150.119 231.297 150.668 231.159 151.346 231.159C151.945 231.159 152.468 231.282 152.915 231.528C153.365 231.775 153.714 232.142 153.96 232.631C154.21 233.116 154.335 233.722 154.335 234.449V240H152.636V234.653C152.636 234.013 152.471 233.517 152.142 233.165C151.812 232.809 151.354 232.631 150.767 232.631C150.365 232.631 150.006 232.716 149.687 232.886C149.373 233.057 149.125 233.307 148.943 233.636C148.765 233.962 148.676 234.356 148.676 234.818ZM161.604 240H159.74L163.928 228.364H165.956L170.144 240H168.28L164.99 230.477H164.899L161.604 240ZM161.916 235.443H167.962V236.92H161.916V235.443ZM173.404 228.364V240H171.648V228.364H173.404Z" fill="black" fill-opacity="0.8"/>
<rect x="64" y="454" width="107" height="37" rx="3" stroke="#0C7264" stroke-width="4" stroke-linecap="round"/>
<path d="M104.345 479V467.364H111.64V468.875H106.101V472.42H111.26V473.926H106.101V477.489H111.709V479H104.345ZM115.372 473.818V479H113.673V470.273H115.304V471.693H115.412C115.613 471.231 115.927 470.86 116.355 470.58C116.787 470.299 117.33 470.159 117.986 470.159C118.58 470.159 119.101 470.284 119.548 470.534C119.995 470.78 120.342 471.148 120.588 471.636C120.834 472.125 120.957 472.729 120.957 473.449V479H119.259V473.653C119.259 473.021 119.094 472.527 118.764 472.17C118.435 471.811 117.982 471.631 117.406 471.631C117.012 471.631 116.662 471.716 116.355 471.886C116.052 472.057 115.812 472.307 115.634 472.636C115.459 472.962 115.372 473.356 115.372 473.818ZM126.327 479.17C125.622 479.17 124.994 478.991 124.44 478.631C123.891 478.267 123.459 477.75 123.145 477.08C122.834 476.405 122.679 475.597 122.679 474.653C122.679 473.71 122.836 472.903 123.151 472.233C123.469 471.562 123.904 471.049 124.458 470.693C125.011 470.337 125.637 470.159 126.338 470.159C126.88 470.159 127.315 470.25 127.645 470.432C127.978 470.61 128.236 470.818 128.418 471.057C128.603 471.295 128.747 471.506 128.85 471.688H128.952V467.364H130.651V479H128.992V477.642H128.85C128.747 477.828 128.6 478.04 128.406 478.278C128.217 478.517 127.956 478.725 127.622 478.903C127.289 479.081 126.857 479.17 126.327 479.17ZM126.702 477.722C127.19 477.722 127.603 477.593 127.94 477.335C128.281 477.074 128.539 476.712 128.713 476.25C128.891 475.788 128.98 475.25 128.98 474.636C128.98 474.03 128.893 473.5 128.719 473.045C128.545 472.591 128.289 472.237 127.952 471.983C127.615 471.729 127.198 471.602 126.702 471.602C126.19 471.602 125.764 471.735 125.423 472C125.083 472.265 124.825 472.627 124.651 473.085C124.48 473.544 124.395 474.061 124.395 474.636C124.395 475.22 124.482 475.744 124.656 476.21C124.831 476.676 125.088 477.045 125.429 477.318C125.774 477.587 126.198 477.722 126.702 477.722Z" fill="black" fill-opacity="0.8"/>
<ellipse cx="110.5" cy="20.5" rx="36.5" ry="18.5" stroke="#0C7264" stroke-width="4" stroke-linecap="round"/>
<path d="M100.409 20.4034L98.869 20.6761C98.8047 20.4792 98.7024 20.2917 98.5622 20.1136C98.4259 19.9356 98.2403 19.7898 98.0054 19.6761C97.7706 19.5625 97.477 19.5057 97.1247 19.5057C96.6437 19.5057 96.2422 19.6136 95.9202 19.8295C95.5982 20.0417 95.4372 20.3163 95.4372 20.6534C95.4372 20.9451 95.5452 21.1799 95.7611 21.358C95.977 21.536 96.3255 21.6818 96.8065 21.7955L98.1929 22.1136C98.9959 22.2992 99.5944 22.5852 99.9884 22.9716C100.382 23.358 100.579 23.8598 100.579 24.4773C100.579 25 100.428 25.4659 100.125 25.875C99.8255 26.2803 99.4069 26.5985 98.869 26.8295C98.335 27.0606 97.7156 27.1761 97.0111 27.1761C96.0338 27.1761 95.2365 26.9678 94.619 26.5511C94.0016 26.1307 93.6228 25.5341 93.4827 24.7614L95.1247 24.5114C95.227 24.9394 95.4372 25.2633 95.7554 25.483C96.0736 25.6989 96.4884 25.8068 96.9997 25.8068C97.5565 25.8068 98.0016 25.6913 98.335 25.4602C98.6683 25.2254 98.835 24.9394 98.835 24.6023C98.835 24.3295 98.7327 24.1004 98.5281 23.9148C98.3274 23.7292 98.0187 23.589 97.602 23.4943L96.1247 23.1705C95.3103 22.9848 94.7081 22.6894 94.3179 22.2841C93.9315 21.8788 93.7384 21.3655 93.7384 20.7443C93.7384 20.2292 93.8823 19.7784 94.1702 19.392C94.4581 19.0057 94.8558 18.7045 95.3634 18.4886C95.8709 18.2689 96.4524 18.1591 97.1077 18.1591C98.0509 18.1591 98.7933 18.3636 99.335 18.7727C99.8766 19.178 100.235 19.7216 100.409 20.4034ZM106.345 18.2727V19.6364H101.578V18.2727H106.345ZM102.856 16.1818H104.555V24.4375C104.555 24.767 104.605 25.0152 104.703 25.1818C104.801 25.3447 104.928 25.4564 105.084 25.517C105.243 25.5739 105.415 25.6023 105.601 25.6023C105.737 25.6023 105.856 25.5928 105.959 25.5739C106.061 25.5549 106.14 25.5398 106.197 25.5284L106.504 26.9318C106.406 26.9697 106.265 27.0076 106.084 27.0455C105.902 27.0871 105.675 27.1098 105.402 27.1136C104.955 27.1212 104.538 27.0417 104.152 26.875C103.765 26.7083 103.453 26.4508 103.214 26.1023C102.976 25.7538 102.856 25.3163 102.856 24.7898V16.1818ZM110.588 27.1932C110.035 27.1932 109.535 27.0909 109.088 26.8864C108.641 26.678 108.287 26.3769 108.026 25.983C107.768 25.589 107.639 25.1061 107.639 24.5341C107.639 24.0417 107.734 23.6364 107.923 23.3182C108.113 23 108.368 22.7481 108.69 22.5625C109.012 22.3769 109.372 22.2367 109.77 22.142C110.168 22.0473 110.573 21.9754 110.986 21.9261C111.509 21.8655 111.933 21.8163 112.259 21.7784C112.584 21.7367 112.821 21.6705 112.969 21.5795C113.116 21.4886 113.19 21.3409 113.19 21.1364V21.0966C113.19 20.6004 113.05 20.2159 112.77 19.9432C112.493 19.6705 112.08 19.5341 111.531 19.5341C110.959 19.5341 110.509 19.661 110.179 19.9148C109.853 20.1648 109.628 20.4432 109.503 20.75L107.906 20.3864C108.096 19.8561 108.372 19.428 108.736 19.1023C109.103 18.7727 109.526 18.5341 110.003 18.3864C110.48 18.2348 110.982 18.1591 111.509 18.1591C111.857 18.1591 112.226 18.2008 112.616 18.2841C113.01 18.3636 113.378 18.5114 113.719 18.7273C114.063 18.9432 114.346 19.2519 114.565 19.6534C114.785 20.0511 114.895 20.5682 114.895 21.2045V27H113.236V25.8068H113.168C113.058 26.0265 112.893 26.2424 112.673 26.4545C112.454 26.6667 112.171 26.8428 111.827 26.983C111.482 27.1231 111.069 27.1932 110.588 27.1932ZM110.957 25.8295C111.427 25.8295 111.829 25.7367 112.162 25.5511C112.499 25.3655 112.755 25.1231 112.929 24.8239C113.107 24.5208 113.196 24.197 113.196 23.8523V22.7273C113.135 22.7879 113.018 22.8447 112.844 22.8977C112.673 22.947 112.478 22.9905 112.259 23.0284C112.039 23.0625 111.825 23.0947 111.616 23.125C111.408 23.1515 111.234 23.1742 111.094 23.1932C110.764 23.2348 110.463 23.3049 110.19 23.4034C109.921 23.5019 109.705 23.6439 109.543 23.8295C109.384 24.0114 109.304 24.2538 109.304 24.5568C109.304 24.9773 109.459 25.2955 109.77 25.5114C110.08 25.7235 110.476 25.8295 110.957 25.8295ZM116.982 27V18.2727H118.624V19.6591H118.715C118.874 19.1894 119.154 18.8201 119.556 18.5511C119.961 18.2784 120.419 18.142 120.931 18.142C121.037 18.142 121.162 18.1458 121.306 18.1534C121.453 18.161 121.569 18.1705 121.652 18.1818V19.8068C121.584 19.7879 121.463 19.767 121.288 19.7443C121.114 19.7178 120.94 19.7045 120.766 19.7045C120.364 19.7045 120.006 19.7898 119.692 19.9602C119.381 20.1269 119.135 20.3598 118.953 20.6591C118.771 20.9545 118.681 21.2917 118.681 21.6705V27H116.982ZM127.536 18.2727V19.6364H122.769V18.2727H127.536ZM124.047 16.1818H125.746V24.4375C125.746 24.767 125.795 25.0152 125.894 25.1818C125.992 25.3447 126.119 25.4564 126.274 25.517C126.434 25.5739 126.606 25.6023 126.791 25.6023C126.928 25.6023 127.047 25.5928 127.149 25.5739C127.252 25.5549 127.331 25.5398 127.388 25.5284L127.695 26.9318C127.596 26.9697 127.456 27.0076 127.274 27.0455C127.093 27.0871 126.865 27.1098 126.593 27.1136C126.146 27.1212 125.729 27.0417 125.343 26.875C124.956 26.7083 124.644 26.4508 124.405 26.1023C124.166 25.7538 124.047 25.3163 124.047 24.7898V16.1818Z" fill="black" fill-opacity="0.8"/>
<path d="M112.4 45C112.4 44.1716 111.729 43.5 110.9 43.5C110.072 43.5 109.4 44.1716 109.4 45H112.4ZM109.84 70.0607C110.426 70.6464 111.375 70.6464 111.961 70.0607L121.507 60.5147C122.093 59.9289 122.093 58.9792 121.507 58.3934C120.921 57.8076 119.971 57.8076 119.386 58.3934L110.9 66.8787L102.415 58.3934C101.829 57.8076 100.88 57.8076 100.294 58.3934C99.708 58.9792 99.708 59.9289 100.294 60.5147L109.84 70.0607ZM109.4 45V69H112.4V45H109.4Z" fill="#B3B3B3"/>
<path d="M118.382 119C118.382 118.172 117.71 117.5 116.882 117.5C116.053 117.5 115.382 118.172 115.382 119H118.382ZM115.821 141.508C116.407 142.094 117.357 142.094 117.942 141.508L127.488 131.962C128.074 131.377 128.074 130.427 127.488 129.841C126.903 129.255 125.953 129.255 125.367 129.841L116.882 138.326L108.397 129.841C107.811 129.255 106.861 129.255 106.275 129.841C105.689 130.427 105.689 131.377 106.275 131.962L115.821 141.508ZM115.382 119V140.448H118.382V119H115.382Z" fill="#B3B3B3"/>
<path d="M119.192 189C119.192 188.172 118.521 187.5 117.692 187.5C116.864 187.5 116.192 188.172 116.192 189H119.192ZM116.632 208.502C117.218 209.087 118.167 209.087 118.753 208.502L128.299 198.956C128.885 198.37 128.885 197.42 128.299 196.834C127.713 196.249 126.763 196.249 126.178 196.834L117.692 205.32L109.207 196.834C108.621 196.249 107.672 196.249 107.086 196.834C106.5 197.42 106.5 198.37 107.086 198.956L116.632 208.502ZM116.192 189V207.441H119.192V189H116.192Z" fill="#B3B3B3"/>
<path d="M118.725 258C118.725 257.172 118.053 256.5 117.225 256.5C116.396 256.5 115.725 257.172 115.725 258H118.725ZM116.164 291.397C116.75 291.983 117.699 291.983 118.285 291.397L127.831 281.851C128.417 281.265 128.417 280.316 127.831 279.73C127.245 279.144 126.296 279.144 125.71 279.73L117.225 288.215L108.739 279.73C108.154 279.144 107.204 279.144 106.618 279.73C106.032 280.316 106.032 281.265 106.618 281.851L116.164 291.397ZM115.725 258V290.336H118.725V258H115.725Z" fill="#B3B3B3"/>
<path d="M120.675 344.955C120.675 344.127 120.003 343.455 119.175 343.455C118.346 343.455 117.675 344.127 117.675 344.955H120.675ZM118.114 375.336C118.7 375.921 119.65 375.921 120.235 375.336L129.781 365.79C130.367 365.204 130.367 364.254 129.781 363.668C129.196 363.083 128.246 363.083 127.66 363.668L119.175 372.154L110.69 363.668C110.104 363.083 109.154 363.083 108.568 363.668C107.982 364.254 107.982 365.204 108.568 365.79L118.114 375.336ZM117.675 344.955V374.275H120.675V344.955H117.675Z" fill="#B3B3B3"/>
<path d="M122.271 424C122.271 423.172 121.6 422.5 120.771 422.5C119.943 422.5 119.271 423.172 119.271 424H122.271ZM119.711 446.43C120.297 447.016 121.246 447.016 121.832 446.43L131.378 436.884C131.964 436.298 131.964 435.348 131.378 434.763C130.792 434.177 129.843 434.177 129.257 434.763L120.771 443.248L112.286 434.763C111.7 434.177 110.751 434.177 110.165 434.763C109.579 435.348 109.579 436.298 110.165 436.884L119.711 446.43ZM119.271 424V445.369H122.271V424H119.271Z" fill="#B3B3B3"/>
</svg>
